<svg xmlns="http://www.w3.org/2000/svg" viewBox="0 0 22 15.83">
    <path d="m20.24,15.83H1.76c-.4,0-.77-.24-.92-.62-.56-1.34-.84-2.76-.84-4.22C0,4.93,4.93,0,11,0s11,4.93,11,11c0,1.46-.28,2.87-.84,4.22-.15.37-.52.62-.92.62ZM2.46,13.83h17.09c.3-.91.46-1.86.46-2.83,0-4.96-4.04-9-9-9S2,6.04,2,11c0,.97.15,1.92.46,2.83Z"/>
    <path d="m17.36,5.58c-.36-.42-.99-.47-1.41-.12l-4.39,3.72c-.17-.05-.34-.08-.52-.08-1.07,0-1.94.87-1.94,1.94s.87,1.94,1.94,1.94,1.94-.87,1.94-1.94c0-.14-.02-.28-.05-.41l4.3-3.65c.42-.36.47-.99.12-1.41Z"/>
</svg>