<svg xmlns="http://www.w3.org/2000/svg" viewBox="0 0 1500.8 480.54">
  <g var:body.fill="">
    <path d="M0,300.14H74.65c4.67,22.81,26.44,35.77,54.95,35.77s47.17-8.29,47.17-29.55c0-14-8.81-23.84-29.55-27.47l-69.46-12.44C29.55,258.15,5.18,235.34,5.18,194.91c0-56.5,53.91-83.98,118.71-83.98,68.42,0,115.08,31.1,118.71,83.46h-72.57c-4.15-20.74-20.22-31.1-47.69-31.1-24.36,0-43.02,7.78-43.02,24.88,0,11.92,6.74,20.22,27.99,23.84l69.46,10.89c49.76,8.29,74.65,32.66,74.65,74.65,0,62.72-56.5,91.23-122.34,91.23S6.74,358.72,0,300.14Z"/>
    <path d="M576.06,249.86c0,76.72-44.06,139.96-114.04,139.96-40.43,0-79.31-18.66-92.79-88.12v178.84h-79.31V114.56h67.39l8.81,78.79c17.11-67.39,56.5-83.46,99.53-83.46,65.83,0,110.41,61.69,110.41,139.96Zm-79.31,0c0-40.95-25.4-76.72-63.76-76.72s-63.76,33.18-63.76,76.72,24.36,76.2,63.76,76.2,63.76-35.77,63.76-76.2Z"/>
    <path d="M719.8,385.16h-79.31V176.77h-39.4v-62.21h118.71V385.16ZM637.38,40.43c0-26.95,18.66-40.43,43.02-40.43s43.03,13.48,43.03,40.43-18.66,39.92-43.03,39.92-43.02-13.48-43.02-39.92Z"/>
    <path d="M961.87,114.56v62.21h-31.62c-46.65,0-72.57,25.4-72.57,76.72v131.67h-79.31V114.56h64.28l7.78,84.5c11.4-62.21,40.44-84.5,78.28-84.5h33.18Z"/>
    <path d="M1116.62,385.16h-79.31V176.77h-39.4v-62.21h118.71V385.16Zm-82.42-344.72c0-26.95,18.66-40.43,43.02-40.43s43.03,13.48,43.03,40.43-18.66,39.92-43.03,39.92-43.02-13.48-43.02-39.92Z"/>
  </g>
  <path var:exclamation.fill="" d="M1279.49,385.16h-79.31V176.77h-39.4v-62.21h118.71V385.16Zm-82.42-344.72c0-26.95,18.66-40.43,43.02-40.43s43.02,13.48,43.02,40.43-18.66,39.92-43.02,39.92-43.02-13.48-43.02-39.92Z"/>
  <path var:body.fill="" d="M1500.8,319.84v65.32h-55.98c-57.54,0-86.57-30.58-86.57-89.16v-119.23h-39.4v-62.21h39.4V40.43h79.31v16.07c0,27.47-17.1,58.06-59.1,58.06h121.82v62.21h-62.72v107.82c0,22.81,11.92,35.25,34.22,35.25h29.03Z"/>
</svg>