<svg xmlns="http://www.w3.org/2000/svg" viewBox="0 0 293.09 113.21">
    <defs>
        <style>
            .cls-1{fill:#f1b700;}.cls-2{fill:#fff;}.cls-3{fill:#de311e;}.cls-4{fill:#26993a;}.cls-5{fill:#5d5b5f;}.cls-6{fill:#5073b8;}
        </style>
    </defs>
    <path class="cls-5" d="m44.82,93.97h-11.68c.09-2.95,0-6.02-.26-9.24-.26-3.21-.89-6.46-1.88-9.77-.99-3.3-2.43-6.12-4.33-8.46l-8.09,38.28H.06L13.83,39.64h18.51c1.41,1.54,2.78,3.48,4.14,5.83,1.35,2.35,2.59,4.84,3.72,7.49,1.12,2.65,2.06,5.29,2.8,7.91.75,2.63,1.21,4.97,1.37,7.03h.34c1.16-2.51,3.12-5.62,5.89-9.32,2.77-3.7,5.78-7.28,9.06-10.73,3.27-3.45,6.25-6.19,8.93-8.21h18.52l-13.76,65.13h-18.52l8.09-38.28c-7.5,6.41-13.54,15.57-18.11,27.48"/>
    <path class="cls-5" d="m81.3,72.2c1.52-7.19,4.27-13.36,8.27-18.5,3.99-5.14,8.83-9.02,14.51-11.64,5.69-2.62,11.75-3.92,18.2-3.92s11.86,1.31,16.44,3.92c4.58,2.61,7.8,6.49,9.67,11.63,1.86,5.14,2.02,11.31.5,18.51-1.53,7.21-4.31,13.39-8.34,18.53-4.02,5.14-8.88,9.01-14.57,11.63-5.69,2.61-11.72,3.92-18.09,3.92s-11.98-1.31-16.55-3.92c-4.57-2.62-7.78-6.5-9.6-11.64-1.82-5.14-1.97-11.32-.44-18.52m19.06,0c-.77,3.59-.95,6.84-.56,9.75.38,2.92,1.49,5.25,3.34,6.98,1.85,1.74,4.47,2.61,7.88,2.61,4.96,0,9.03-1.83,12.24-5.48,3.21-3.65,5.4-8.26,6.58-13.85,1.19-5.59.95-10.21-.71-13.85-1.67-3.64-4.98-5.47-9.95-5.47-3.39,0-6.4.88-8.99,2.6-2.6,1.74-4.69,4.06-6.29,6.94-1.6,2.89-2.78,6.15-3.54,9.78"/>
    <path class="cls-5" d="m156.83,39.64h33.52c5.32,0,9.35.91,12.12,2.72,2.76,1.82,4.48,4.01,5.16,6.58.67,2.58.74,5.12.2,7.63-.65,3.14-2.11,5.82-4.34,8.03-2.23,2.21-4.77,3.9-7.63,5.07l-.04.17c7.43,2.85,10.26,8.46,8.48,16.85-.67,3.19-2.12,6.15-4.36,8.91-2.23,2.75-5.32,4.96-9.29,6.65-3.95,1.69-8.64,2.54-14.08,2.54h-33.5l13.75-65.13m13.94,37.91l2.87-13.61h6.76c5.61,0,8.81-1.85,9.59-5.54.46-2.21-.03-3.6-1.47-4.23-1.46-.62-3.55-.94-6.28-.94h-9.77l-8.01,37.92h10.18c3.7,0,6.38-.7,8.05-2.08,1.66-1.38,2.67-2.91,3.03-4.59.61-2.92.04-4.8-1.71-5.66-1.75-.86-3.97-1.29-6.65-1.29h-6.58"/>
    <polygon class="cls-4" points="215.33 39.64 233.86 39.64 220.06 104.78 201.54 104.78 215.33 39.64"/>
    <path class="cls-5" d="m283.44,104.77h-19.4c-.3-4.19-1.21-8.48-2.71-12.9-1.51-4.42-3.31-8.03-5.43-10.8-3.29,2.86-6.6,6.44-9.92,10.75-3.33,4.31-6.08,8.63-8.27,12.95h-19.39c1.71-3.25,3.61-6.47,5.72-9.64,2.09-3.17,4.41-6.32,6.94-9.42,2.54-3.11,5.16-6,7.86-8.67,2.7-2.67,5.57-5.16,8.6-7.46-4.36-6.26-7.29-11.9-8.77-16.93-1.49-5.02-2.3-9.35-2.46-13.01h20c.33,3.83.8,7,1.4,9.54.61,2.53,1.7,5.23,3.32,8.1,2.03-2.11,4.13-4.62,6.27-7.51,2.16-2.9,4.12-6.27,5.88-10.12h20.02c-1.57,3.39-3.58,6.8-6,10.25-2.42,3.45-5.16,6.86-8.21,10.21-3.05,3.35-6.25,6.52-9.59,9.47,2.03,2.26,3.85,4.81,5.5,7.64,1.63,2.83,3.02,5.78,4.18,8.8,1.17,3.04,2.12,6.17,2.89,9.41.75,3.24,1.29,6.35,1.59,9.33"/>
    <path class="cls-6" d="m203.5,14.12c0-4.65,1.19-9.02,3.29-12.82-4.77,3.27-7.91,8.77-7.91,14.99,0,8.36,5.65,15.4,13.33,17.52-5.36-4.87-8.72-11.88-8.72-19.69"/>
    <path class="cls-3" d="m191.33,16.77c0-4.33,1.12-8.4,3.06-11.94-4.44,3.05-7.35,8.16-7.35,13.96,0,7.78,5.25,14.33,12.41,16.3-4.99-4.52-8.12-11.06-8.12-18.32"/>
    <path class="cls-1" d="m180.02,19.29c0-4.03,1.04-7.82,2.85-11.1-4.14,2.83-6.85,7.59-6.85,12.98,0,7.24,4.89,13.34,11.55,15.17-4.64-4.21-7.55-10.29-7.55-17.05"/>
    <path class="cls-4" d="m244.12,15.43c0,8.52-6.9,15.43-15.43,15.43s-15.43-6.91-15.43-15.43,6.91-15.43,15.43-15.43,15.43,6.91,15.43,15.43Z"/>
    <path class="cls-2" d="m227.99,6.58c.31,1.98-1.29,3.87-3.58,4.23-2.28.35-4.37-.97-4.69-2.95-.31-1.98,1.3-3.87,3.58-4.23,2.27-.35,4.38.97,4.69,2.95"/>
    <rect class="cls-1" y="108.4" width="70.95" height="4.81"/>
    <rect class="cls-3" x="70.93" y="108.39" width="70.91" height="4.81"/>
    <rect class="cls-6" x="141.85" y="108.38" width="70.93" height="4.81"/>
    <rect class="cls-4" x="212.72" y="108.38" width="70.79" height="4.81"/>
</svg>