<svg xmlns="http://www.w3.org/2000/svg" viewBox="0 0 205.53 79.53">
    <defs>
        <style>
            .cls-1{fill:#fff;}.cls-2{fill:#f0b51d;}.cls-3{fill:#e33e2b;}.cls-4{fill:#2ba14a;}.cls-5{fill:#4d76ba;}
        </style>
    </defs>
    <path class="cls-1" d="m31.39,65.91h-8.19c.06-2.07,0-4.22-.18-6.48-.18-2.25-.62-4.53-1.32-6.85-.69-2.32-1.71-4.29-3.04-5.94l-5.68,26.85H0L9.65,27.8h12.98c.99,1.08,1.95,2.44,2.91,4.09.95,1.64,1.82,3.39,2.61,5.26.79,1.86,1.45,3.71,1.96,5.55.53,1.84.85,3.49.96,4.93h.24c.81-1.76,2.19-3.94,4.13-6.54,1.94-2.59,4.05-5.1,6.36-7.53,2.29-2.42,4.38-4.34,6.26-5.76h12.99l-9.65,45.68h-12.99l5.67-26.85c-5.26,4.5-9.5,10.92-12.7,19.27"/>
    <path class="cls-1" d="m56.98,50.64c1.06-5.04,3-9.37,5.8-12.97,2.8-3.61,6.19-6.33,10.18-8.16,3.99-1.84,8.24-2.75,12.77-2.75s8.32.92,11.53,2.75c3.21,1.83,5.47,4.55,6.78,8.15,1.31,3.6,1.42,7.93.35,12.98-1.07,5.06-3.02,9.39-5.85,12.99-2.82,3.6-6.23,6.32-10.22,8.16-3.99,1.83-8.22,2.75-12.69,2.75s-8.4-.92-11.61-2.75c-3.21-1.84-5.46-4.56-6.73-8.16-1.28-3.61-1.38-7.94-.31-12.99m13.37,0c-.54,2.52-.67,4.8-.4,6.84.27,2.05,1.05,3.68,2.34,4.89,1.3,1.22,3.13,1.83,5.53,1.83,3.48,0,6.33-1.28,8.58-3.84,2.25-2.56,3.79-5.8,4.62-9.72.83-3.92.67-7.16-.5-9.71-1.17-2.56-3.49-3.84-6.98-3.84-2.38,0-4.49.62-6.31,1.83-1.82,1.22-3.29,2.84-4.41,4.86-1.12,2.03-1.95,4.31-2.48,6.86"/>
    <path class="cls-1" d="m109.95,27.8h23.51c3.73,0,6.56.64,8.5,1.91,1.94,1.27,3.14,2.81,3.62,4.61.47,1.81.52,3.59.14,5.35-.46,2.21-1.48,4.08-3.04,5.63-1.56,1.55-3.34,2.73-5.35,3.55l-.03.12c5.21,2,7.2,5.93,5.95,11.82-.47,2.23-1.49,4.31-3.06,6.25-1.56,1.93-3.73,3.48-6.51,4.66-2.77,1.19-6.06,1.78-9.88,1.78h-23.5l9.65-45.68m9.78,26.59l2.01-9.54h4.74c3.94,0,6.18-1.3,6.73-3.88.33-1.55-.02-2.53-1.03-2.97-1.02-.43-2.49-.66-4.4-.66h-6.85l-5.62,26.6h7.14c2.6,0,4.48-.49,5.65-1.46,1.17-.97,1.87-2.04,2.12-3.22.43-2.05.03-3.37-1.2-3.97-1.23-.6-2.79-.9-4.67-.9h-4.62"/>
    <polygon class="cls-4" points="150.99 27.8 163.98 27.8 154.3 73.49 141.31 73.49 150.99 27.8"/>
    <path class="cls-1" d="m198.76,73.49h-13.61c-.21-2.94-.84-5.95-1.9-9.05-1.06-3.1-2.32-5.63-3.81-7.58-2.31,2-4.63,4.52-6.96,7.54-2.34,3.02-4.26,6.05-5.8,9.09h-13.6c1.2-2.28,2.53-4.54,4.01-6.76,1.47-2.22,3.1-4.43,4.87-6.61,1.78-2.18,3.62-4.21,5.51-6.08,1.9-1.87,3.9-3.62,6.03-5.23-3.06-4.39-5.11-8.35-6.15-11.87-1.04-3.52-1.62-6.56-1.73-9.13h14.03c.23,2.68.56,4.91.98,6.69.43,1.77,1.2,3.67,2.33,5.68,1.42-1.48,2.9-3.24,4.4-5.27,1.51-2.03,2.89-4.39,4.12-7.1h14.04c-1.1,2.38-2.51,4.77-4.21,7.19-1.7,2.42-3.62,4.81-5.76,7.17-2.14,2.35-4.38,4.57-6.73,6.64,1.42,1.58,2.7,3.37,3.85,5.36,1.14,1.98,2.12,4.05,2.93,6.17.82,2.13,1.49,4.33,2.02,6.6.53,2.27.91,4.46,1.11,6.55"/>
    <path class="cls-5" d="m142.69,9.9c0-3.26.83-6.33,2.31-8.99-3.34,2.29-5.54,6.15-5.54,10.51,0,5.87,3.96,10.8,9.35,12.29-3.76-3.41-6.12-8.33-6.12-13.81"/>
    <path class="cls-3" d="m134.16,11.76c0-3.04.78-5.89,2.15-8.38-3.11,2.14-5.16,5.73-5.16,9.79,0,5.46,3.68,10.05,8.7,11.43-3.5-3.17-5.69-7.76-5.69-12.85"/>
    <path class="cls-2" d="m126.22,13.53c0-2.83.73-5.48,2-7.79-2.9,1.99-4.81,5.32-4.81,9.1,0,5.08,3.43,9.35,8.1,10.64-3.26-2.96-5.29-7.22-5.29-11.96"/>
    <path class="cls-4" d="m171.18,10.82c0,5.98-4.84,10.82-10.82,10.82s-10.82-4.85-10.82-10.82,4.85-10.82,10.82-10.82,10.82,4.85,10.82,10.82Z"/>
    <path class="cls-1" d="m159.86,4.62c.22,1.39-.91,2.71-2.51,2.97-1.6.24-3.07-.68-3.29-2.07-.22-1.39.91-2.72,2.51-2.97,1.59-.25,3.07.68,3.29,2.07"/>
    <rect class="cls-2" x=".1" y="76.16" width="49.7" height="3.37"/>
    <rect class="cls-3" x="49.78" y="76.15" width="49.67" height="3.37"/>
    <rect class="cls-5" x="99.45" y="76.14" width="49.68" height="3.37"/>
    <rect class="cls-4" x="149.09" y="76.14" width="49.58" height="3.37"/>
</svg>