<svg xmlns="http://www.w3.org/2000/svg" width="143.979" height="88.273" viewBox="0 0 143.979 88.273">
  <g id="MOBIX-ZOHO-PREMIUM-PARTNER-LOGO" transform="translate(-48.77 -35)">
    <g id="Groupe_1668" data-name="Groupe 1668" transform="translate(49.502 36.76)">
      <path id="Tracé_4068" data-name="Tracé 4068" d="M686.332,324.25l-1.412,2.73" transform="translate(-578.367 -277.229)" fill="none" stroke="#427d54" stroke-width="2"/>
      <path id="Tracé_4069" data-name="Tracé 4069" d="M254.6,350.79q.115.073.083.172a.468.468,0,0,0-.029.157,5.044,5.044,0,0,1-.135,2.069" transform="translate(-220.553 -299.293)" fill="none" stroke="#e97924" stroke-width="2"/>
      <path id="Tracé_4070" data-name="Tracé 4070" d="M461.5,350.79a11.709,11.709,0,0,1,.042,2.39" transform="translate(-392.626 -299.293)" fill="none" stroke="#985a72" stroke-width="2"/>
      <path id="Tracé_4071" data-name="Tracé 4071" d="M668.292,350.79l-.042,2.39" transform="translate(-564.509 -299.293)" fill="none" stroke="#3c8b82" stroke-width="2"/>
      <path id="Tracé_4072" data-name="Tracé 4072" d="M167.347,414.94a4.139,4.139,0,0,0,.243,1.528" transform="translate(-148.08 -352.624)" fill="none" stroke="#94cec7" stroke-width="2"/>
      <path id="Tracé_4073" data-name="Tracé 4073" d="M168.79,424l.123.729" transform="translate(-149.281 -360.156)" fill="none" stroke="#59a9b0" stroke-width="2"/>
      <path id="Tracé_4074" data-name="Tracé 4074" d="M134.952,412.79l-7.012-3.15" transform="translate(-115.32 -348.218)" fill="none" stroke="#5db975" stroke-width="2"/>
      <path id="Tracé_4075" data-name="Tracé 4075" d="M123.841,398.009a9.049,9.049,0,0,0-.831-2.359" transform="translate(-111.222 -336.588)" fill="none" stroke="#80c886" stroke-width="2"/>
      <path id="Tracé_4076" data-name="Tracé 4076" d="M119.469,409.64l-1.719,3.933" transform="translate(-106.849 -348.218)" fill="none" stroke="#45b05b" stroke-width="2"/>
      <path id="Tracé_4077" data-name="Tracé 4077" d="M111.531,432.96l-1.262,2.676" transform="translate(-100.63 -367.605)" fill="none" stroke="#3da95f" stroke-width="2"/>
      <path id="Tracé_4078" data-name="Tracé 4078" d="M108.25,433.9l-.41-3.029" transform="translate(-98.61 -365.868)" fill="none" stroke="#6f6842" stroke-width="2"/>
      <path id="Tracé_4079" data-name="Tracé 4079" d="M166.693,428.32l-.573,1.565" transform="translate(-147.061 -363.748)" fill="none" stroke="#1f9185" stroke-width="2"/>
      <path id="Tracé_4080" data-name="Tracé 4080" d="M157.3,447.593q-.172.258-.248.083a.158.158,0,0,0-.1-.1l-.41-.071" transform="translate(-139.097 -379.693)" fill="none" stroke="#1a9a4e" stroke-width="2"/>
      <path id="Tracé_4081" data-name="Tracé 4081" d="M127.235,424.579a3.44,3.44,0,0,0,.025-2.857,2.889,2.889,0,0,0-1.72-1.619,3.047,3.047,0,0,0-2.177.057,3.542,3.542,0,0,0-2.073,2.226" transform="translate(-109.792 -356.772)" fill="none" stroke="#91d0a5" stroke-width="2"/>
      <path id="Tracé_4082" data-name="Tracé 4082" d="M118.347,433.22a.354.354,0,0,0-.27-.216.493.493,0,0,0-.155.04q-.094.037-.172-.084" transform="translate(-106.849 -367.605)" fill="none" stroke="#1a9a4e" stroke-width="2"/>
      <path id="Tracé_4083" data-name="Tracé 4083" d="M211.69,406.78l-.73,1.892" transform="translate(-184.339 -345.841)" fill="none" stroke="#55b2e3" stroke-width="2"/>
      <path id="Tracé_4084" data-name="Tracé 4084" d="M201.017,418l-2.017.3" transform="translate(-174.396 -355.168)" fill="none" stroke="#519ece" stroke-width="2"/>
      <path id="Tracé_4085" data-name="Tracé 4085" d="M173.885,419.79l-5.095.71" transform="translate(-149.281 -356.656)" fill="none" stroke="#56a6d7" stroke-width="2"/>
      <path id="Tracé_4086" data-name="Tracé 4086" d="M178.364,422.79a.654.654,0,0,0-.538.784q.143,1.012.265,2.025a.088.088,0,0,1-.071.1l-2.049.273a.078.078,0,0,1-.061-.019.091.091,0,0,1-.03-.06,12.711,12.711,0,0,0-.413-2.26.252.252,0,0,0-.088-.133.627.627,0,0,0-1.066.221.265.265,0,0,0-.032.158l.408,3.247" transform="translate(-153.844 -359.151)" fill="none" stroke="#8dc0df" stroke-width="2"/>
      <path id="Tracé_4087" data-name="Tracé 4087" d="M109.511,448.83a1.514,1.514,0,0,0-.153.669" transform="translate(-99.872 -380.799)" fill="none" stroke="#445234" stroke-width="2"/>
      <path id="Tracé_4088" data-name="Tracé 4088" d="M103.217,439.484,102.46,435" transform="translate(-94.137 -369.301)" fill="none" stroke="#9e1a26" stroke-width="2"/>
      <path id="Tracé_4089" data-name="Tracé 4089" d="M100.382,420.867,99.96,418" transform="translate(-92.059 -355.168)" fill="none" stroke="#a41a25" stroke-width="2"/>
      <path id="Tracé_4090" data-name="Tracé 4090" d="M126.321,436.692a3.51,3.51,0,0,1-1.194,1.568,3.229,3.229,0,0,1-1.778.606,2.783,2.783,0,0,1-2.565-1.229,3.127,3.127,0,0,1-.57-1.5,4.054,4.054,0,0,1,.162-1.641" transform="translate(-108.878 -368.886)" fill="none" stroke="#89c9a8" stroke-width="2"/>
      <path id="Tracé_4091" data-name="Tracé 4091" d="M219.25,460.29l.007.078" transform="translate(-191.231 -390.326)" fill="none" stroke="rgba(58,106,93,0.95)" stroke-width="2"/>
      <path id="Tracé_4092" data-name="Tracé 4092" d="M168.56,449.473a.883.883,0,0,0,.759-.331.6.6,0,0,1,.359-.265.166.166,0,0,0,.1-.091l.152-.287" transform="translate(-149.09 -380.525)" fill="none" stroke="#167ab7" stroke-width="2"/>
      <path id="Tracé_4093" data-name="Tracé 4093" d="M176.71,427.066q.186,1.179.337,2.363a.8.8,0,0,0,.251.514.674.674,0,0,0,.5.164q.707-.025.594-.889t-.266-1.891a.178.178,0,0,1,.153-.2l1.872-.26a.158.158,0,0,1,.179.128q.18,1.118.349,2.093a.559.559,0,0,0,.6.526.737.737,0,0,0,.506-.175.615.615,0,0,0,.2-.562q-.266-2.407-.838-5.56a.768.768,0,0,0-.213-.459.654.654,0,0,0-.551-.13" transform="translate(-155.865 -359.09)" fill="none" stroke="#88b9d7" stroke-width="2"/>
      <path id="Tracé_4094" data-name="Tracé 4094" d="M198.32,420.3a.486.486,0,0,1,.084-.506" transform="translate(-173.801 -356.656)" fill="none" stroke="#167ab7" stroke-width="2"/>
      <path id="Tracé_4095" data-name="Tracé 4095" d="M219.29,437l.113.548" transform="translate(-191.264 -370.964)" fill="none" stroke="rgba(63,128,114,0.95)" stroke-width="2"/>
      <path id="Tracé_4096" data-name="Tracé 4096" d="M219.96,440.25l.091.976" transform="translate(-191.821 -373.666)" fill="none" stroke="#8bbd74" stroke-width="2"/>
      <path id="Tracé_4097" data-name="Tracé 4097" d="M220.159,446.04a4.124,4.124,0,0,1-.069,2.142" transform="translate(-191.929 -378.479)" fill="none" stroke="#8bac7c" stroke-width="2"/>
      <path id="Tracé_4098" data-name="Tracé 4098" d="M219.392,458.74a.524.524,0,0,0-.142.261" transform="translate(-191.231 -389.038)" fill="none" stroke="rgba(63,128,114,0.95)" stroke-width="2"/>
      <path id="Tracé_4099" data-name="Tracé 4099" d="M212.358,425.132a.475.475,0,0,1-.248.253.061.061,0,0,1-.057-.006.075.075,0,0,1-.032-.053L210.96,418" transform="translate(-184.339 -355.168)" fill="none" stroke="#1586c3" stroke-width="2"/>
      <path id="Tracé_4100" data-name="Tracé 4100" d="M91.445,435a4.072,4.072,0,0,1-2.235.211" transform="translate(-83.122 -369.301)" fill="none" stroke="#cc2334" stroke-width="2"/>
      <path id="Tracé_4101" data-name="Tracé 4101" d="M68.666,425.513a2.854,2.854,0,0,0,.091-1.644.606.606,0,0,0-.784-.514l-.31.061q-1.383.184-2.744.5a.491.491,0,0,0-.42.516q-.015.751.759.659,1.022-.121,2.036-.322a.147.147,0,0,1,.172.17,1.794,1.794,0,0,1-.408.818,20.009,20.009,0,0,0-1.494,2.054" transform="translate(-62.578 -359.603)" fill="none" stroke="#e99199" stroke-width="2"/>
      <path id="Tracé_4102" data-name="Tracé 4102" d="M59.778,449.65a1.593,1.593,0,0,0-1.116.155.366.366,0,0,1-.159.037.743.743,0,0,0-.535.234.112.112,0,0,1-.126.02.219.219,0,0,0-.125-.018.074.074,0,0,1-.05-.007.053.053,0,0,1-.027-.036q-.03-.177-.1-.022" transform="translate(-56.793 -381.447)" fill="none" stroke="#cc2334" stroke-width="2"/>
      <path id="Tracé_4103" data-name="Tracé 4103" d="M100.525,401.68l-.565,2.752" transform="translate(-92.059 -341.601)" fill="none" stroke="#b32c2b" stroke-width="2"/>
      <path id="Tracé_4104" data-name="Tracé 4104" d="M61.011,418a70.253,70.253,0,0,1-7.9,1.143" transform="translate(-53.11 -355.168)" fill="none" stroke="#e13539" stroke-width="2"/>
      <path id="Tracé_4105" data-name="Tracé 4105" d="M220.11,459.037l-.02-.3" transform="translate(-191.929 -389.038)" fill="none" stroke="rgba(184,146,18,0.95)" stroke-width="2"/>
      <path id="Tracé_4106" data-name="Tracé 4106" d="M261.394,452.75q-.046.351-.361.353a.359.359,0,0,0-.158.037.468.468,0,0,1-.587-.064.07.07,0,0,0-.054-.018.073.073,0,0,0-.051.027.367.367,0,0,1-.223.13" transform="translate(-225.075 -384.058)" fill="none" stroke="#fdcf19" stroke-width="2"/>
      <path id="Tracé_4107" data-name="Tracé 4107" d="M249.6,431.15a3.5,3.5,0,0,0,.258-2.572,3.158,3.158,0,0,0-2.359-2.368" transform="translate(-214.717 -361.994)" fill="none" stroke="#fef088" stroke-width="2"/>
      <path id="Tracé_4108" data-name="Tracé 4108" d="M237.316,425.666a2.749,2.749,0,0,0-2.066.211" transform="translate(-204.533 -361.45)" fill="none" stroke="#fbea40" stroke-width="2"/>
      <path id="Tracé_4109" data-name="Tracé 4109" d="M226.105,427.46a3.386,3.386,0,0,0-1.855,2.923" transform="translate(-195.388 -363.033)" fill="none" stroke="#fef088" stroke-width="2"/>
      <path id="Tracé_4110" data-name="Tracé 4110" d="M221.132,444.79l-.047.67a.12.12,0,0,1-.073.111q-.341.106-.3-.324.03-.334-.211-.246" transform="translate(-192.27 -377.44)" fill="none" stroke="#fdcf19" stroke-width="2"/>
      <path id="Tracé_4111" data-name="Tracé 4111" d="M219.96,436.925a1.208,1.208,0,0,0,.014-.675" transform="translate(-191.821 -370.34)" fill="none" stroke="rgba(183,165,10,0.95)" stroke-width="2"/>
      <path id="Tracé_4112" data-name="Tracé 4112" d="M71.762,436.25a8.051,8.051,0,0,1-1.035,1.656,9.082,9.082,0,0,0-1.066,1.665q-.128.256.152.2,1.037-.219,2.2-.371.668-.088.842.417a.548.548,0,0,1-.064.525.767.767,0,0,1-.5.31q-1.577.322-3.171.55a.669.669,0,0,1-.872-.658,3.309,3.309,0,0,1,.417-2" transform="translate(-65.674 -370.34)" fill="none" stroke="#e2919a" stroke-width="2"/>
      <path id="Tracé_4113" data-name="Tracé 4113" d="M230.272,446.6a2.932,2.932,0,0,1-1.391,1.351,4.03,4.03,0,0,1-1.272.344,2.563,2.563,0,0,1-1.336-.219,3.283,3.283,0,0,1-2.024-3.282" transform="translate(-195.387 -377.44)" fill="none" stroke="#fede90" stroke-width="2"/>
      <path id="Tracé_4114" data-name="Tracé 4114" d="M268.14,455.813l.054-3.063" transform="translate(-231.876 -384.058)" fill="none" stroke="#f3a822" stroke-width="2"/>
      <path id="Tracé_4115" data-name="Tracé 4115" d="M268.252,424.9l-.042-5.65" transform="translate(-231.934 -356.208)" fill="none" stroke="#f2b91a" stroke-width="2"/>
      <path id="Tracé_4116" data-name="Tracé 4116" d="M237.316,426.109a5.564,5.564,0,0,0-2.066.211" transform="translate(-204.533 -361.893)" fill="none" stroke="#fdf9b7" stroke-width="2"/>
      <path id="Tracé_4117" data-name="Tracé 4117" d="M269.385,412.18a6.626,6.626,0,0,0-1.176,1.192" transform="translate(-231.934 -350.33)" fill="none" stroke="#f1c349" stroke-width="2"/>
      <path id="Tracé_4118" data-name="Tracé 4118" d="M228.239,419q-4.046.143-8.109-.051" transform="translate(-191.963 -355.958)" fill="none" stroke="#fbea40" stroke-width="2"/>
      <path id="Tracé_4119" data-name="Tracé 4119" d="M692.693,46.917A2.091,2.091,0,1,0,690.922,49a1.944,1.944,0,0,0,1.771-2.085" transform="translate(-581.414 -45.436)" fill="none" stroke="#95d0a5" stroke-width="2"/>
      <path id="Tracé_4120" data-name="Tracé 4120" d="M128.9,431.292a1.506,1.506,0,0,0,1.445.322,2.051,2.051,0,0,0,1.036-.843,3.464,3.464,0,0,0,.531-1.228,1.97,1.97,0,0,0-.005-.99,1.532,1.532,0,0,0-.6-.845,1.5,1.5,0,0,0-1.961.084,2.953,2.953,0,0,0-1.022,1.87,1.56,1.56,0,0,0,.58,1.629" transform="translate(-115.605 -362.969)" fill="none" stroke="#8ecda6" stroke-width="2"/>
      <path id="Tracé_4121" data-name="Tracé 4121" d="M234.679,437.257a2.165,2.165,0,1,0-1.729-2.135,1.962,1.962,0,0,0,1.729,2.135" transform="translate(-202.62 -367.647)" fill="none" stroke="#fee78c" stroke-width="2"/>
    </g>
    <path id="Tracé_4122" data-name="Tracé 4122" d="M685.088,42.594A7.594,7.594,0,1,1,677.494,35a7.594,7.594,0,0,1,7.594,7.594ZM677.16,38.24a2.091,2.091,0,1,0-1.771,2.085,1.945,1.945,0,0,0,1.771-2.085Z" transform="translate(-516.379 0)" fill="#2ba04a"/>
    <path id="Tracé_4123" data-name="Tracé 4123" d="M629.446,41.69a9.1,9.1,0,0,1,2.321-2.567q.283-.214.118.1a12.8,12.8,0,0,0-1.462,5.162,13.009,13.009,0,0,0,.2,3.358,12.756,12.756,0,0,0,3.968,7.135q.173.162-.052.088a8.846,8.846,0,0,1-5.516-4.658,9,9,0,0,1-.89-3.231A8.793,8.793,0,0,1,629.446,41.69Z" transform="translate(-481.629 -3.356)" fill="#4d76b9"/>
    <ellipse id="Ellipse_315" data-name="Ellipse 315" cx="2.069" cy="1.789" rx="2.069" ry="1.789" transform="translate(156.417 37.105) rotate(-8.8)" fill="#fff"/>
    <path id="Tracé_4124" data-name="Tracé 4124" d="M595.773,50.515a10.411,10.411,0,0,1,1.218-1.157q.4-.327.16.132a11.6,11.6,0,0,0-1.206,7.247,11.883,11.883,0,0,0,3.617,7.117q.334.32-.1.17a8.418,8.418,0,0,1-4.381-3.361,8.321,8.321,0,0,1,.7-10.147Z" transform="translate(-453.006 -11.824)" fill="#e23e2b"/>
    <path id="Tracé_4125" data-name="Tracé 4125" d="M563.361,60.262a6.4,6.4,0,0,1,1.366-1.243q.218-.147.093.084a10.827,10.827,0,0,0-1.256,6.609,11.088,11.088,0,0,0,3.451,6.908q.271.26-.084.138a7.76,7.76,0,0,1-4.358-3.452,7.839,7.839,0,0,1-1.051-3.177A7.6,7.6,0,0,1,563.361,60.262Z" transform="translate(-426.237 -19.921)" fill="#efb41d"/>
    <path id="Tracé_4126" data-name="Tracé 4126" d="M310.019,174.31q-.838.788-1.037.943a20.561,20.561,0,0,1-13.224,4.4,17.679,17.679,0,0,1-5.14-.772,10.774,10.774,0,0,1-8.014-9.515,16.845,16.845,0,0,1,.008-4.262,24.245,24.245,0,0,1,2.364-7.947,19.751,19.751,0,0,1,1.741-2.882,19.236,19.236,0,0,1,11.731-7.592,21.213,21.213,0,0,1,7.429-.341,14.945,14.945,0,0,1,4.705,1.418,10.367,10.367,0,0,1,5.193,5.51,12.521,12.521,0,0,1,.789,2.862,15.482,15.482,0,0,1,.133,2.948,23.779,23.779,0,0,1-2.025,8.7A19.854,19.854,0,0,1,310.019,174.31ZM293.771,171.1a3.918,3.918,0,0,0,1.734,1.009,7.765,7.765,0,0,0,5.953-.668,8.26,8.26,0,0,0,2.076-1.67,11.287,11.287,0,0,0,1.573-2.184,16.876,16.876,0,0,0,2.091-7.832,7.481,7.481,0,0,0-.953-4.08,4.237,4.237,0,0,0-2.41-1.948,7.579,7.579,0,0,0-2.941-.265,7.745,7.745,0,0,0-4.01,1.523,9.128,9.128,0,0,0-2.57,2.82,17.486,17.486,0,0,0-2.275,7.641,14.623,14.623,0,0,0,.051,1.939A5.548,5.548,0,0,0,293.771,171.1Z" transform="translate(-194.289 -92.416)" fill="#58595e"/>
    <path id="Tracé_4127" data-name="Tracé 4127" d="M78.337,165.225q-.4.4-1.138,1.251-.584.678-1.059,1.32a37.206,37.206,0,0,0-5.017,9.257.272.272,0,0,1-.255.177H65.451a.154.154,0,0,1-.11-.046.151.151,0,0,1-.044-.109,40.118,40.118,0,0,0-.336-5.874,21.4,21.4,0,0,0-.875-3.714,12.363,12.363,0,0,0-1.867-3.607q-.11-.147-.147.032L58.16,182.43a.105.105,0,0,1-.1.083H49.1a.067.067,0,0,1-.066-.083l6.722-31.8a.166.166,0,0,1,.162-.132H64.83a.187.187,0,0,1,.143.066,16.54,16.54,0,0,1,1.218,1.648,31.869,31.869,0,0,1,4.341,10.4,12.361,12.361,0,0,1,.248,1.585q.051.548.253.084a11.471,11.471,0,0,1,.852-1.594,52.225,52.225,0,0,1,10.67-12.1.409.409,0,0,1,.26-.093h8.913a.072.072,0,0,1,.071.086l-6.724,31.866a.116.116,0,0,1-.113.091h-8.9a.109.109,0,0,1-.085-.04.112.112,0,0,1-.023-.093l3.909-18.484q.035-.165-.089-.052Q79.064,164.516,78.337,165.225Z" transform="translate(-0.216 -96.021)" fill="#58595e"/>
    <path id="Tracé_4128" data-name="Tracé 4128" d="M491.674,165.038q-.209.093,0,.174a7.484,7.484,0,0,1,2.273,1.369,5.617,5.617,0,0,1,1.951,3.82,9.982,9.982,0,0,1-.938,5.176,10.339,10.339,0,0,1-5.279,5.167,17.216,17.216,0,0,1-7.36,1.612q-8.343-.015-16.61-.034a.111.111,0,0,1-.108-.135l6.705-31.778a.151.151,0,0,1,.147-.12q7.78,0,15.473-.042a24.272,24.272,0,0,1,3.71.253,8.5,8.5,0,0,1,2.778.938,6.1,6.1,0,0,1,2.074,1.784,5.62,5.62,0,0,1,.971,2.464,7.575,7.575,0,0,1-1.639,6.267,10.167,10.167,0,0,1-1.894,1.774A11.958,11.958,0,0,1,491.674,165.038Zm-5.839,4.636a6.472,6.472,0,0,0-3.088-.71q-1.644,0-3.407,0a.132.132,0,0,1-.128-.159l1.346-6.4a.224.224,0,0,1,.218-.179q1.724-.019,3.574-.014a6.018,6.018,0,0,0,2.116-.368,3.421,3.421,0,0,0,1.56-1.051,3.3,3.3,0,0,0,.666-1.867,1.7,1.7,0,0,0-.152-.865,1.216,1.216,0,0,0-.617-.541,5.545,5.545,0,0,0-2.224-.491q-2.783-.061-5.506-.042a.163.163,0,0,0-.158.13l-3.877,18.413a.067.067,0,0,0,.013.057.07.07,0,0,0,.054.026q4.3.046,6.144-.074a4.493,4.493,0,0,0,3.7-2.076,3.585,3.585,0,0,0,.5-2.639,1.872,1.872,0,0,0-.228-.656A1.319,1.319,0,0,0,485.835,169.675Z" transform="translate(-346.537 -95.812)" fill="#58595e"/>
    <path id="Tracé_4129" data-name="Tracé 4129" d="M645.491,179.8l-1.412,2.73-8.173.01a.111.111,0,0,1-.11-.135l6.744-31.822a.109.109,0,0,1,.106-.086h8.886a.136.136,0,0,1,.1.05.132.132,0,0,1,.027.112Z" transform="translate(-488.025 -96.021)" fill="#2ba04a"/>
    <path id="Tracé_4130" data-name="Tracé 4130" d="M684.92,182.533l1.412-2.73a.106.106,0,0,0,.108-.054,56.879,56.879,0,0,1,7.931-10.281,41.821,41.821,0,0,1,4.746-4.189.1.1,0,0,0,.019-.133,27.979,27.979,0,0,1-5.486-14.438.192.192,0,0,1,.049-.146.187.187,0,0,1,.14-.062H703.4a.126.126,0,0,1,.125.115q.123,1.43.344,2.913a16.085,16.085,0,0,0,1.9,5.545.072.072,0,0,0,.116.013,32.661,32.661,0,0,0,5.847-8.476.192.192,0,0,1,.174-.11h9.647a.061.061,0,0,1,.056.088,35.752,35.752,0,0,1-3.2,5.346,56.507,56.507,0,0,1-8.377,9.2.116.116,0,0,0-.012.16,28.1,28.1,0,0,1,5.009,8.844,37.776,37.776,0,0,1,1.847,8.314.077.077,0,0,1-.078.086h-9.309a.164.164,0,0,1-.164-.148,27.163,27.163,0,0,0-1.941-7.813,18.636,18.636,0,0,0-1.928-3.53.184.184,0,0,0-.277-.029,43.505,43.505,0,0,0-8.682,11.368.266.266,0,0,1-.234.142Z" transform="translate(-528.865 -96.021)" fill="#58595e"/>
    <path id="Tracé_4131" data-name="Tracé 4131" d="M83.55,350.72q.115.073.083.172a.47.47,0,0,0-.029.157,5.044,5.044,0,0,1-.135,2.069q-15.374,0-30.739-.022-1.686,0-3.653.072a.3.3,0,0,1-.218-.079.276.276,0,0,1-.089-.206l.024-2.056a.089.089,0,0,1,.088-.086q1.636-.052,3.27-.029l3.268.046Q69.485,350.778,83.55,350.72Z" transform="translate(0 -262.464)" fill="#efb41d"/>
    <path id="Tracé_4132" data-name="Tracé 4132" d="M254.6,350.79h34.826a11.709,11.709,0,0,1,.042,2.39l-34.949.008a5.044,5.044,0,0,0,.135-2.069.468.468,0,0,1,.029-.157Q254.716,350.863,254.6,350.79Z" transform="translate(-171.051 -262.533)" fill="#e23e2b"/>
    <path id="Tracé_4133" data-name="Tracé 4133" d="M461.5,350.79h34.91l-.042,2.39H461.542A11.709,11.709,0,0,0,461.5,350.79Z" transform="translate(-343.125 -262.533)" fill="#4d76b9"/>
    <path id="Tracé_4134" data-name="Tracé 4134" d="M668.292,350.757l34.617-.007a.167.167,0,0,1,.167.167v2.111a.135.135,0,0,1-.135.135l-34.691-.017Z" transform="translate(-515.007 -262.5)" fill="#2ba04a"/>
    <circle id="Ellipse_316" data-name="Ellipse 316" cx="1.597" cy="1.597" r="1.597" transform="translate(158.604 95.338)" fill="#116fb7"/>
    <rect id="Rectangle_2234" data-name="Rectangle 2234" width="0.55" height="14.483" rx="0.275" transform="translate(99.318 95.605)" fill="#0f6cba"/>
    <path id="Tracé_4135" data-name="Tracé 4135" d="M130.458,398.205a4.139,4.139,0,0,0,.243,1.528l.123.729-7.012-3.15a9.05,9.05,0,0,0-.831-2.359.1.1,0,0,1,.044-.128.182.182,0,0,1,.157.01Z" transform="translate(-61.69 -299.13)" fill="#97d1a0"/>
    <path id="Tracé_4136" data-name="Tracé 4136" d="M427.8,397.047a4.359,4.359,0,0,1,.548,3.714,4.037,4.037,0,0,1-2.73,3.022,9.852,9.852,0,0,1-2.6.292q-1.28.024-2.624.005a.15.15,0,0,0-.152.15v4.663a.164.164,0,0,1-.164.164h-2.619a.21.21,0,0,1-.211-.209l.01-13.635a.192.192,0,0,1,.2-.192q3.425.062,6.456.039a4.786,4.786,0,0,1,2.245.5A4.315,4.315,0,0,1,427.8,397.047Zm-3.078,1.079a2.02,2.02,0,0,0-1.369-.428l-.487.014q-1.243-.019-2.488-.029a.135.135,0,0,0-.135.135v3.464a.143.143,0,0,0,.143.143q1.29,0,2.639.02a3.48,3.48,0,0,0,1.181-.187,1.658,1.658,0,0,0,1.137-1.218A1.71,1.71,0,0,0,424.723,398.126Z" transform="translate(-306.337 -299.304)" fill="#116fb7"/>
    <path id="Tracé_4137" data-name="Tracé 4137" d="M110.4,395.65a9.05,9.05,0,0,1,.831,2.359l-1.718,3.933-1.261,2.676-.41-3.029Z" transform="translate(-49.108 -299.828)" fill="#68bf6c"/>
    <path id="Tracé_4138" data-name="Tracé 4138" d="M61.576,401.68l-.565,2.752a70.26,70.26,0,0,1-7.9,1.143l.551-2.58a.127.127,0,0,1,.1-.1Q57.645,402.193,61.576,401.68Z" transform="translate(-3.608 -304.841)" fill="#ef473e"/>
    <path id="Tracé_4139" data-name="Tracé 4139" d="M100.525,401.68l.764,4.923.41,3.029a1.514,1.514,0,0,0-.153.67l-.406,1.482-.757-4.484-.422-2.867Z" transform="translate(-42.557 -304.841)" fill="#761117"/>
    <path id="Tracé_4140" data-name="Tracé 4140" d="M175.432,406.78l-.73,1.892-2.017.3-5.095.71a4.139,4.139,0,0,1-.243-1.528q-.013-.275.363-.327Q172.953,407.092,175.432,406.78Z" transform="translate(-98.579 -309.08)" fill="#91caee"/>
    <path id="Tracé_4141" data-name="Tracé 4141" d="M211.69,406.78l.675,5.1.113.548.091.977a4.124,4.124,0,0,1-.069,2.142.524.524,0,0,0-.142.261.474.474,0,0,1-.248.253.06.06,0,0,1-.057-.006.076.076,0,0,1-.032-.053l-1.061-7.326Z" transform="translate(-134.837 -309.08)" fill="#199ad7"/>
    <path id="Tracé_4142" data-name="Tracé 4142" d="M119.469,409.64l7.012,3.15-.573,1.565-.855,1.762q-.172.258-.248.083a.158.158,0,0,0-.1-.1l-.41-.071a3.44,3.44,0,0,0,.025-2.857,2.888,2.888,0,0,0-1.72-1.619,3.047,3.047,0,0,0-2.177.057,3.542,3.542,0,0,0-2.073,2.226.354.354,0,0,0-.27-.216.491.491,0,0,0-.155.04q-.094.037-.172-.084Z" transform="translate(-57.347 -311.458)" fill="#22a14a"/>
    <path id="Tracé_4143" data-name="Tracé 4143" d="M221.418,410.52q3.945.1,7.883,0a.208.208,0,0,1,.113.28,6.631,6.631,0,0,0-1.175,1.192q-4.046.143-8.109-.051Z" transform="translate(-142.461 -312.19)" fill="#faf36e"/>
    <path id="Tracé_4144" data-name="Tracé 4144" d="M269.327,412.18l.012,8.613a.207.207,0,0,1-.059.147l-1.14,1.145.054-3.063-.042-5.65A6.63,6.63,0,0,1,269.327,412.18Z" transform="translate(-182.374 -313.57)" fill="#e89223"/>
    <path id="Tracé_4145" data-name="Tracé 4145" d="M494.17,417.788q-.009.241.162.069a4.775,4.775,0,0,1,2.891-1.413.158.158,0,0,1,.126.04.165.165,0,0,1,.055.122v2.3a.175.175,0,0,1-.058.129.168.168,0,0,1-.133.043,3.61,3.61,0,0,0-2.676.708.844.844,0,0,0-.358.771q.019.309.019.319-.017,2.853,0,5.823a.17.17,0,0,1-.17.172h-2.415a.113.113,0,0,1-.113-.113v-9.959a.1.1,0,0,1,.1-.1l2.423.013a.178.178,0,0,1,.127.054.174.174,0,0,1,.049.128Z" transform="translate(-368.065 -317.113)" fill="#116fb7"/>
    <path id="Tracé_4146" data-name="Tracé 4146" d="M532.107,422.771a2.4,2.4,0,0,0,2.107,1.934,3.953,3.953,0,0,0,3.282-.781.159.159,0,0,1,.12-.031.152.152,0,0,1,.1.065l1.029,1.511a.22.22,0,0,1-.057.3,6.413,6.413,0,0,1-2.73,1.16,7.409,7.409,0,0,1-2.887-.074,4.762,4.762,0,0,1-3.1-2.262,5.417,5.417,0,0,1-.669-3.614,4.947,4.947,0,0,1,2.768-4.049,5.284,5.284,0,0,1,5.688.6,4.843,4.843,0,0,1,1.58,2.56,7.773,7.773,0,0,1,.229,2.435.1.1,0,0,1-.1.1h-7.235a.121.121,0,0,0-.118.147Zm3.933-3.7a2.5,2.5,0,0,0-2.189-.388,2.355,2.355,0,0,0-1.8,1.941.081.081,0,0,0,.079.1h4.778a.077.077,0,0,0,.076-.094A2.572,2.572,0,0,0,536.04,419.072Z" transform="translate(-399.44 -317.045)" fill="#116fb7"/>
    <path id="Tracé_4147" data-name="Tracé 4147" d="M601.284,417.894q0,.2.143.056a4.213,4.213,0,0,1,3.982-1.282,2.612,2.612,0,0,1,1.165.494,2.529,2.529,0,0,1,.769,1.068.079.079,0,0,0,.135.022,4.321,4.321,0,0,1,3.336-1.676,3.391,3.391,0,0,1,1.857.42,2.458,2.458,0,0,1,1.118,1.727,6.255,6.255,0,0,1,.076,1.086q.019,3.457.019,7.019a.143.143,0,0,1-.039.1.129.129,0,0,1-.094.04l-2.491-.017a.09.09,0,0,1-.086-.091q-.018-1.245-.03-6.417a1.352,1.352,0,0,0-.626-1.253,1.694,1.694,0,0,0-1.231-.172,2.574,2.574,0,0,0-1.6,1.009.263.263,0,0,0-.054.153l-.025,6.554a.243.243,0,0,1-.24.245H605.01a.148.148,0,0,1-.148-.148v-5.839a6.106,6.106,0,0,0-.051-.845,1.317,1.317,0,0,0-.339-.744,1.481,1.481,0,0,0-1.562-.364,3.155,3.155,0,0,0-1.543,1.017.348.348,0,0,0-.089.233v6.577a.112.112,0,0,1-.111.113l-2.449-.008a.088.088,0,0,1-.088-.084q-.044-1.206-.032-2.413.015-1.806.01-2.41-.022-2.521.005-5.156a.092.092,0,0,1,.093-.091l2.444-.012a.141.141,0,0,1,.1.044.151.151,0,0,1,.041.106Z" transform="translate(-457.099 -317.223)" fill="#116fb7"/>
    <path id="Tracé_4148" data-name="Tracé 4148" d="M801.43,417.77q-.007.273.189.091a4.5,4.5,0,0,1,3.235-1.3,3.075,3.075,0,0,1,1.545.374,2.935,2.935,0,0,1,1.108,1.256.084.084,0,0,0,.14.017A4.229,4.229,0,0,1,811,416.549a3.287,3.287,0,0,1,1.825.442,2.5,2.5,0,0,1,1.1,1.7,5.931,5.931,0,0,1,.12,1.221q-.027,3.373-.027,6.911a.119.119,0,0,1-.116.121l-2.466-.019a.089.089,0,0,1-.086-.088q-.047-2.808-.035-5.614a4.312,4.312,0,0,0-.164-1.5,1.37,1.37,0,0,0-1.57-.745,2.189,2.189,0,0,0-1.643.933,1.153,1.153,0,0,0-.2.676q-.034,3.134.024,6.188a.179.179,0,0,1-.179.182H805.1a.113.113,0,0,1-.113-.113q0-3.2.005-6.3a1.374,1.374,0,0,0-.987-1.531,2.008,2.008,0,0,0-1.3.111,2.948,2.948,0,0,0-1.113.791.567.567,0,0,0-.143.378v6.547a.113.113,0,0,1-.113.113l-2.471-.01a.116.116,0,0,1-.115-.116v-9.955a.092.092,0,0,1,.093-.091l2.5.012a.113.113,0,0,1,.079.031.1.1,0,0,1,.031.075Z" transform="translate(-623.498 -317.202)" fill="#116fb7"/>
    <rect id="Rectangle_2235" data-name="Rectangle 2235" width="2.688" height="10.166" rx="0.54" transform="translate(158.861 99.587)" fill="#116fb7"/>
    <path id="Tracé_4149" data-name="Tracé 4149" d="M736.616,427.112q0-.185-.143-.064a5.056,5.056,0,0,1-3.936,1.293,2.764,2.764,0,0,1-2.54-1.7,9.3,9.3,0,0,1-.246-2.724v-5.806a.111.111,0,0,1,.111-.111h2.531a.1.1,0,0,1,.1.1v6.058a1.689,1.689,0,0,0,.771,1.609,2.164,2.164,0,0,0,1.553.177,3.236,3.236,0,0,0,1.649-.931.546.546,0,0,0,.159-.384v-6.483a.143.143,0,0,1,.143-.143h2.4a.154.154,0,0,1,.153.155V428a.164.164,0,0,1-.164.164h-2.418a.118.118,0,0,1-.116-.12Z" transform="translate(-566.135 -318.408)" fill="#116fb7"/>
    <path id="Tracé_4150" data-name="Tracé 4150" d="M61.011,418l.422,2.867a4.072,4.072,0,0,1-2.235.211,2.854,2.854,0,0,0,.091-1.644.606.606,0,0,0-.784-.514l-.31.061q-1.383.184-2.744.5a.491.491,0,0,0-.42.516q-.015.751.759.659,1.022-.121,2.036-.322a.147.147,0,0,1,.172.17,1.794,1.794,0,0,1-.408.818,20,20,0,0,0-1.494,2.054,1.593,1.593,0,0,0-1.116.155.365.365,0,0,1-.159.037.743.743,0,0,0-.535.234.112.112,0,0,1-.126.02.219.219,0,0,0-.125-.019.074.074,0,0,1-.05-.007.054.054,0,0,1-.027-.036q-.03-.177-.1-.022l-.747-4.591A70.253,70.253,0,0,0,61.011,418Z" transform="translate(-3.608 -318.408)" fill="#d22333"/>
    <path id="Tracé_4151" data-name="Tracé 4151" d="M175.711,418l1.061,7.326a.075.075,0,0,0,.032.053.061.061,0,0,0,.057.006.475.475,0,0,0,.248-.253l.007.078-.179.46a.243.243,0,0,1-.175.167l-7.7,1.095a.11.11,0,0,1-.123-.093l-.383-2.722a.883.883,0,0,0,.759-.331.6.6,0,0,1,.359-.265.166.166,0,0,0,.1-.091l.152-.287q.185,1.179.337,2.363a.8.8,0,0,0,.251.514.674.674,0,0,0,.5.164q.707-.025.594-.889t-.266-1.891a.178.178,0,0,1,.153-.2l1.872-.26a.158.158,0,0,1,.179.128q.18,1.118.349,2.093a.559.559,0,0,0,.6.526.737.737,0,0,0,.506-.175.615.615,0,0,0,.2-.562q-.266-2.407-.838-5.56a.768.768,0,0,0-.212-.459.655.655,0,0,0-.551-.13.486.486,0,0,1,.084-.506Z" transform="translate(-99.588 -318.408)" fill="#1072ae"/>
    <path id="Tracé_4152" data-name="Tracé 4152" d="M219.831,418.95q4.063.194,8.109.051l.042,5.65q-.046.351-.361.353a.357.357,0,0,0-.159.037.468.468,0,0,1-.587-.064.07.07,0,0,0-.054-.019.073.073,0,0,0-.051.027.368.368,0,0,1-.223.13,3.5,3.5,0,0,0,.258-2.572,3.158,3.158,0,0,0-2.359-2.368,2.749,2.749,0,0,0-2.066.211,3.386,3.386,0,0,0-1.855,2.923l-.047.669a.12.12,0,0,1-.073.111q-.341.106-.3-.324.03-.334-.211-.246l-.091-.976a1.208,1.208,0,0,0,.013-.675A20.087,20.087,0,0,1,219.831,418.95Z" transform="translate(-142.162 -319.198)" fill="#fce011"/>
    <path id="Tracé_4153" data-name="Tracé 4153" d="M126.321,424.579a3.51,3.51,0,0,1-1.194,1.568,3.229,3.229,0,0,1-1.778.605,2.783,2.783,0,0,1-2.565-1.229,3.127,3.127,0,0,1-.57-1.5,4.054,4.054,0,0,1,.162-1.641,3.542,3.542,0,0,1,2.073-2.226,3.047,3.047,0,0,1,2.177-.057,2.888,2.888,0,0,1,1.72,1.619A3.44,3.44,0,0,1,126.321,424.579Zm-4.149.516a1.506,1.506,0,0,0,1.445.322,2.051,2.051,0,0,0,1.036-.843,3.466,3.466,0,0,0,.531-1.228,1.97,1.97,0,0,0-.005-.99,1.533,1.533,0,0,0-.6-.845,1.5,1.5,0,0,0-1.961.084,2.953,2.953,0,0,0-1.022,1.87A1.56,1.56,0,0,0,122.172,425.095Z" transform="translate(-59.376 -320.012)" fill="#fff"/>
    <path id="Tracé_4154" data-name="Tracé 4154" d="M171.665,419.79a.486.486,0,0,0-.084.506.653.653,0,0,0-.538.784q.143,1.012.265,2.025a.088.088,0,0,1-.071.1l-2.049.273a.078.078,0,0,1-.061-.019.092.092,0,0,1-.03-.06,12.711,12.711,0,0,0-.413-2.26.252.252,0,0,0-.088-.133.628.628,0,0,0-1.066.221.265.265,0,0,0-.032.159l.408,3.246-.152.287a.166.166,0,0,1-.1.091.6.6,0,0,0-.359.265.883.883,0,0,1-.759.331l-.411-2.811.573-1.565-.123-.729Z" transform="translate(-97.559 -319.896)" fill="#1b81bf"/>
    <path id="Tracé_4155" data-name="Tracé 4155" d="M178.364,422.73a.654.654,0,0,1,.551.13.768.768,0,0,1,.212.459q.572,3.154.838,5.56a.615.615,0,0,1-.2.562.737.737,0,0,1-.506.175.559.559,0,0,1-.6-.526q-.169-.975-.349-2.093a.158.158,0,0,0-.179-.128l-1.872.26a.178.178,0,0,0-.153.2q.152,1.024.266,1.891t-.594.889a.674.674,0,0,1-.5-.164.8.8,0,0,1-.251-.514q-.152-1.184-.337-2.363l-.408-3.246a.265.265,0,0,1,.032-.159.628.628,0,0,1,1.066-.221.253.253,0,0,1,.088.133,12.713,12.713,0,0,1,.413,2.26.091.091,0,0,0,.03.06.078.078,0,0,0,.061.019l2.049-.273a.088.088,0,0,0,.071-.1q-.121-1.013-.265-2.025A.654.654,0,0,1,178.364,422.73Z" transform="translate(-104.343 -322.33)" fill="#fff"/>
    <path id="Tracé_4156" data-name="Tracé 4156" d="M68.666,425.513a8.052,8.052,0,0,1-1.035,1.656,9.083,9.083,0,0,0-1.066,1.665q-.128.256.152.2,1.037-.219,2.2-.371.668-.088.842.417a.548.548,0,0,1-.064.524.767.767,0,0,1-.5.31q-1.577.322-3.171.55a.669.669,0,0,1-.872-.658,3.309,3.309,0,0,1,.417-2,20.009,20.009,0,0,1,1.494-2.054,1.794,1.794,0,0,0,.408-.818.147.147,0,0,0-.172-.17q-1.014.2-2.036.322-.774.091-.759-.659a.491.491,0,0,1,.42-.516q1.361-.312,2.744-.5l.31-.061a.606.606,0,0,1,.784.514A2.854,2.854,0,0,1,68.666,425.513Z" transform="translate(-13.076 -322.843)" fill="#fff"/>
    <path id="Tracé_4157" data-name="Tracé 4157" d="M237.316,425.666a5.562,5.562,0,0,0-2.066.211A2.749,2.749,0,0,1,237.316,425.666Z" transform="translate(-155.031 -324.69)" fill="#faf36e"/>
    <path id="Tracé_4158" data-name="Tracé 4158" d="M228.17,426.109a3.158,3.158,0,0,1,2.359,2.368,3.5,3.5,0,0,1-.258,2.572,2.932,2.932,0,0,1-1.391,1.351,4.033,4.033,0,0,1-1.272.344,2.564,2.564,0,0,1-1.336-.219,3.283,3.283,0,0,1-2.024-3.282,3.386,3.386,0,0,1,1.855-2.923A5.564,5.564,0,0,1,228.17,426.109Zm-.725,5.393a2.165,2.165,0,1,0-1.729-2.135,1.962,1.962,0,0,0,1.729,2.135Z" transform="translate(-145.885 -325.133)" fill="#fff"/>
    <path id="Tracé_4159" data-name="Tracé 4159" d="M128.9,431.292a1.56,1.56,0,0,1-.58-1.629,2.953,2.953,0,0,1,1.022-1.87,1.5,1.5,0,0,1,1.961-.084,1.532,1.532,0,0,1,.6.845,1.97,1.97,0,0,1,.005.99,3.464,3.464,0,0,1-.531,1.228,2.051,2.051,0,0,1-1.035.843A1.506,1.506,0,0,1,128.9,431.292Z" transform="translate(-66.103 -326.209)" fill="#1d9b4d"/>
    <path id="Tracé_4160" data-name="Tracé 4160" d="M110.773,432.96q.078.121.172.084a.493.493,0,0,1,.155-.04.354.354,0,0,1,.27.216,4.054,4.054,0,0,0-.162,1.641,3.127,3.127,0,0,0,.57,1.5,2.783,2.783,0,0,0,2.565,1.229,3.23,3.23,0,0,0,1.778-.605,3.511,3.511,0,0,0,1.194-1.568l.41.071a.158.158,0,0,1,.1.1q.076.175.248-.083l-1.658,3.8a.17.17,0,0,1-.1.091.177.177,0,0,1-.134,0l-6.829-3.083a1.515,1.515,0,0,1,.153-.67Z" transform="translate(-50.37 -330.845)" fill="#129351"/>
    <ellipse id="Ellipse_317" data-name="Ellipse 317" cx="2.123" cy="1.744" rx="2.123" ry="1.744" transform="matrix(-0.007, 1, -1, -0.007, 83.334, 102.135)" fill="#fccf18"/>
    <path id="Tracé_4161" data-name="Tracé 4161" d="M65.116,435l.757,4.484q.132.332-.3.4-3.631.538-7.392,1.16a.131.131,0,0,1-.1-.021.125.125,0,0,1-.052-.083l-.494-3.069q.069-.155.1.022a.053.053,0,0,0,.027.036.074.074,0,0,0,.05.007.22.22,0,0,1,.125.019.112.112,0,0,0,.126-.02.743.743,0,0,1,.535-.234.365.365,0,0,0,.159-.037,1.593,1.593,0,0,1,1.116-.155,3.309,3.309,0,0,0-.417,2,.669.669,0,0,0,.872.658q1.594-.228,3.171-.55a.767.767,0,0,0,.5-.31.548.548,0,0,0,.064-.524q-.174-.5-.842-.417-1.16.152-2.2.371-.28.059-.152-.2a9.083,9.083,0,0,1,1.066-1.665,8.054,8.054,0,0,0,1.035-1.656A4.072,4.072,0,0,0,65.116,435Z" transform="translate(-7.291 -332.541)" fill="#c52335"/>
    <path id="Tracé_4162" data-name="Tracé 4162" d="M219.416,436.25a1.208,1.208,0,0,1-.013.675l-.113-.548Q219.44,436.409,219.416,436.25Z" transform="translate(-141.762 -333.58)" fill="rgba(106,98,2,0.89)"/>
    <path id="Tracé_4163" data-name="Tracé 4163" d="M220.541,444.79a3.283,3.283,0,0,0,2.024,3.282,2.563,2.563,0,0,0,1.336.219,4.03,4.03,0,0,0,1.272-.344,2.932,2.932,0,0,0,1.391-1.351.367.367,0,0,0,.223-.13.073.073,0,0,1,.051-.027.07.07,0,0,1,.054.019.468.468,0,0,0,.587.064.358.358,0,0,1,.159-.037q.315,0,.361-.352l-.054,3.063-7.969.015a.192.192,0,0,1-.134-.054.168.168,0,0,1-.051-.128l.071-1.589-.02-.3a4.124,4.124,0,0,0,.069-2.142q.241-.088.211.246-.039.43.3.324a.12.12,0,0,0,.073-.111Z" transform="translate(-142.177 -340.68)" fill="#fdbd21"/>
    <path id="Tracé_4164" data-name="Tracé 4164" d="M219.392,458.74l.02.3a.191.191,0,0,0-.155.042L219.25,459A.524.524,0,0,1,219.392,458.74Z" transform="translate(-141.729 -352.278)" fill="rgba(106,98,2,0.89)"/>
    <path id="Tracé_4165" data-name="Tracé 4165" d="M416.937,509.758l-1.067-.017a.121.121,0,0,1-.12-.118v-9.51a.113.113,0,0,1,.113-.113h3.073a6.252,6.252,0,0,1,2.032.241,2.6,2.6,0,0,1,1.756,2.252,3.138,3.138,0,0,1-.29,1.875,2.567,2.567,0,0,1-1.541,1.315,6.747,6.747,0,0,1-1.872.177h-1.894a.112.112,0,0,0-.111.113l-.01,3.72a.063.063,0,0,1-.02.046A.067.067,0,0,1,416.937,509.758Zm.154-4.984q1.162.01,2.327.005a1.808,1.808,0,0,0,1.958-1.285,1.881,1.881,0,0,0-.01-1.167,1.616,1.616,0,0,0-.794-.951,3.751,3.751,0,0,0-1.59-.236q-.928,0-1.879-.014a.087.087,0,0,0-.088.086V504.7A.076.076,0,0,0,417.091,504.774Z" transform="translate(-305.09 -386.579)" fill="#116fb7"/>
    <path id="Tracé_4166" data-name="Tracé 4166" d="M536.228,506.472l1.194.007a.147.147,0,0,1,.147.145v.715a.159.159,0,0,1-.159.157l-1.113.007a.206.206,0,0,0-.2.206q-.029,2,.025,3.867a1.558,1.558,0,0,0,.211.894q.353.435,1.152,0a.094.094,0,0,1,.082,0,.112.112,0,0,1,.061.063l.218.562a.247.247,0,0,1-.086.3,1.673,1.673,0,0,1-.708.27,6.238,6.238,0,0,1-.734.015,1.237,1.237,0,0,1-1.1-.587,2.3,2.3,0,0,1-.231-1.11q-.054-2.11-.025-4.329a.158.158,0,0,0-.039-.106.119.119,0,0,0-.094-.041l-.776.049a.234.234,0,0,1-.154-.042.148.148,0,0,1-.064-.12l.007-.793a.1.1,0,0,1,.1-.093l.816-.012a.233.233,0,0,0,.231-.234l-.02-1.548a.107.107,0,0,1,.029-.076.1.1,0,0,1,.072-.031l.982.02a.072.072,0,0,1,.055.03.1.1,0,0,1,.019.068,8.124,8.124,0,0,0,.02,1.67A.093.093,0,0,0,536.228,506.472Z" transform="translate(-403.256 -390.403)" fill="#116fb7"/>
    <path id="Tracé_4167" data-name="Tracé 4167" d="M467.181,521.505q.04-.3-.2-.078a2.554,2.554,0,0,1-1.29.669,4.765,4.765,0,0,1-1.408.03,2.1,2.1,0,0,1-1.9-1.688,2.132,2.132,0,0,1,.128-1.531,2.159,2.159,0,0,1,1.005-1.039,3.023,3.023,0,0,1,1.6-.287,3.111,3.111,0,0,1,1.843.691.19.19,0,0,0,.148.057q.106-.028.054-.228a1.117,1.117,0,0,1-.03-.395,1.614,1.614,0,0,0-.47-1.481,1.968,1.968,0,0,0-1.315-.417,2.9,2.9,0,0,0-2.059.879.114.114,0,0,1-.087.032.1.1,0,0,1-.076-.045l-.4-.612a.108.108,0,0,1,.022-.133,3.808,3.808,0,0,1,3.816-.968,2.073,2.073,0,0,1,1.7,2.2q.024,2.361.024,4.763a.154.154,0,0,1-.055.117.189.189,0,0,1-.131.045l-.84-.03a.128.128,0,0,1-.1-.05.149.149,0,0,1-.029-.112Zm-2.516-.223a2.207,2.207,0,0,0,2.388-.676.221.221,0,0,0,.067-.147l.008-1.015a.607.607,0,0,0-.221-.464,2.432,2.432,0,0,0-1.958-.6,1.622,1.622,0,0,0-.971.422,1.456,1.456,0,0,0-.467.88,1.294,1.294,0,0,0,.285,1.059A1.748,1.748,0,0,0,464.665,521.283Z" transform="translate(-343.792 -398.892)" fill="#116fb7"/>
    <path id="Tracé_4168" data-name="Tracé 4168" d="M511.932,515.881a3.629,3.629,0,0,1,2.128-1.13.121.121,0,0,1,.1.024.111.111,0,0,1,.042.086l0,.976a.073.073,0,0,1-.026.056.09.09,0,0,1-.063.022,2.636,2.636,0,0,0-1.9.68,1.019,1.019,0,0,0-.385.811q.012,1.214.015,2.427,0,.014.04,1.047a7.077,7.077,0,0,1-.04,1.068.092.092,0,0,1-.093.081l-.9-.029a.11.11,0,0,1-.108-.11v-6.9a.085.085,0,0,1,.088-.083l.845.01a.2.2,0,0,1,.142.06.179.179,0,0,1,.052.137l-.039.728Q511.829,516,511.932,515.881Z" transform="translate(-384.069 -398.841)" fill="#116fb7"/>
    <path id="Tracé_4169" data-name="Tracé 4169" d="M566.227,515.607a3.178,3.178,0,0,1,2.064-.87q2.375-.083,2.393,2.361.017,2.4,0,4.795a.1.1,0,0,1-.025.067.078.078,0,0,1-.06.027l-.929-.017a.094.094,0,0,1-.086-.1q-.088-3.225-.029-3.933a3.2,3.2,0,0,0-.137-1.381,1.141,1.141,0,0,0-1.007-.732,2.69,2.69,0,0,0-2.241.707.817.817,0,0,0-.283.634v4.714a.132.132,0,0,1-.047.1.162.162,0,0,1-.112.039l-.894-.032a.086.086,0,0,1-.086-.083l.01-6.9a.1.1,0,0,1,.025-.065.079.079,0,0,1,.059-.026l.848.012a.2.2,0,0,1,.162.086.254.254,0,0,1,.044.194q-.088.489.015.572Q565.981,515.828,566.227,515.607Z" transform="translate(-428.962 -398.828)" fill="#116fb7"/>
    <path id="Tracé_4170" data-name="Tracé 4170" d="M611.821,521.5a3.539,3.539,0,0,1-1.331-2.8,3.809,3.809,0,0,1,.447-2.01,3.355,3.355,0,0,1,6.3.788,4.25,4.25,0,0,1,.143,1.317.091.091,0,0,1-.091.086l-5.474.029a.131.131,0,0,0-.1.048.127.127,0,0,0-.026.107,2.434,2.434,0,0,0,2.3,2.2,2.9,2.9,0,0,0,1.219-.154,3.538,3.538,0,0,0,1.088-.639.144.144,0,0,1,.214.03l.342.536a.168.168,0,0,1-.035.221,4.041,4.041,0,0,1-1.5.806,3.313,3.313,0,0,1-.889.091q-.45,0-.9-.02A2.813,2.813,0,0,1,611.821,521.5Zm.735-3.457q1.7.067,3.6-.032a.111.111,0,0,0,.1-.137,2.378,2.378,0,0,0-1.744-2.019,2.206,2.206,0,0,0-1.816.319,2.383,2.383,0,0,0-1.017,1.766.088.088,0,0,0,.072.1,1.615,1.615,0,0,0,.361.02Q612.48,518.036,612.556,518.039Z" transform="translate(-466.986 -398.906)" fill="#116fb7"/>
    <path id="Tracé_4171" data-name="Tracé 4171" d="M662.86,515.886q-.01.266.164.062a3.034,3.034,0,0,1,2.047-1.091.09.09,0,0,1,.065.019.081.081,0,0,1,.031.057l.054.971a.071.071,0,0,1-.024.057.092.092,0,0,1-.064.024,2.543,2.543,0,0,0-2.143.949.513.513,0,0,0-.115.329q.022,2.113.013,3.983a3.7,3.7,0,0,1-.062.761.1.1,0,0,1-.1.083l-.863,0a.109.109,0,0,1-.108-.11V515.1a.088.088,0,0,1,.088-.088h.867a.181.181,0,0,1,.132.057.185.185,0,0,1,.05.135Z" transform="translate(-509.603 -398.931)" fill="#116fb7"/>
  </g>
</svg>
