<svg id="Calque_1" data-name="Calque 1" xmlns="http://www.w3.org/2000/svg" viewBox="0 0 373.66 149.16"><defs><style>.cls-1{fill:#fff}.cls-2{fill:#0984e3}</style></defs><path class="cls-1" d="M65 58a35.5 35.5 0 01-2.11 12.6 27.63 27.63 0 01-6 9.59 25.89 25.89 0 01-9.29 6.09 33.33 33.33 0 01-12.18 2.11 33.33 33.33 0 01-12.18-2.11 26.2 26.2 0 01-9.29-6 26.91 26.91 0 01-6-9.53A36.09 36.09 0 015.94 58a35.74 35.74 0 012.11-12.57 26 26 0 0115.38-15.55 33 33 0 0112.06-2.11 33 33 0 0112.06 2.11A26.32 26.32 0 0156.9 36a27.18 27.18 0 016 9.59A35.2 35.2 0 0165 58zM35.49 39.83a12.33 12.33 0 00-10.25 4.76Q21.51 49.36 21.5 58t3.68 13.51q3.67 4.7 10.31 4.7a12.29 12.29 0 0010.31-4.72q3.69-4.77 3.68-13.49t-3.74-13.41a12.33 12.33 0 00-10.25-4.76z" transform="translate(-5.91 -7.82)"/><path class="cls-2" d="M130.3 66.22q2.34 5.93 7.2 8.2A21.57 21.57 0 00149.07 76a28.08 28.08 0 009.13-2.5 35.38 35.38 0 006.55-3.92 7.84 7.84 0 013 2.33 6.65 6.65 0 011.47 3.49 6.32 6.32 0 01-1.16 4.43 13.26 13.26 0 01-4.06 3.6 27.47 27.47 0 01-6.44 2.76 44.82 44.82 0 01-8.19 1.62 41.2 41.2 0 01-13.1-.53 26.3 26.3 0 01-10.58-4.74 27 27 0 01-7.52-9 35.55 35.55 0 01-3.79-13.17 33.93 33.93 0 01.87-13.2 26.74 26.74 0 015.18-9.9 24.91 24.91 0 018.46-6.5 33.18 33.18 0 0110.71-3 30.7 30.7 0 0111 .69 25.15 25.15 0 018.95 4.25 23.73 23.73 0 016.31 7.33 25.31 25.31 0 013.06 9.79 6.74 6.74 0 01-1.19 5.23 8.75 8.75 0 01-4.62 2.68zm10.55-27a13.47 13.47 0 00-9.41 5q-3.54 4.32-3.24 11.57l26.19-6.84a13.51 13.51 0 00-4.31-7.36q-3.36-2.99-9.23-2.35z" transform="translate(-5.91 -7.82)"/><path class="cls-1" d="M191.59 74.66a11.17 11.17 0 006.58 1.69 18.78 18.78 0 004.16-.48 22.63 22.63 0 003.8-1.21 8.69 8.69 0 011.63 2.34 7.38 7.38 0 01.66 3.2 7.11 7.11 0 01-3.26 6q-3.25 2.35-10.49 2.35-9.53 0-15-4.28t-5.49-14.17V14.72c.65-.16 1.59-.37 2.84-.61a21.3 21.3 0 014-.36c2.81 0 4.88.53 6.21 1.57s2 2.9 2 5.55v10H207a11.31 11.31 0 011.09 2.53 11.51 11.51 0 01.48 3.38q0 3.14-1.45 4.58a5.23 5.23 0 01-3.86 1.45h-14v26.3c-.02 2.58.74 4.42 2.33 5.55zM227.3 74.66a11.17 11.17 0 006.58 1.69 18.78 18.78 0 004.16-.48 22.63 22.63 0 003.8-1.21 8.69 8.69 0 011.63 2.34 7.38 7.38 0 01.66 3.2 7.11 7.11 0 01-3.26 6q-3.26 2.35-10.49 2.35-9.52 0-15-4.28t-5.49-14.17V14.72c.65-.16 1.59-.37 2.84-.61a21.3 21.3 0 014-.36c2.81 0 4.88.53 6.21 1.57s2 2.9 2 5.55v10h17.73a11.31 11.31 0 011.09 2.53 11.51 11.51 0 01.48 3.38q0 3.14-1.45 4.58a5.23 5.23 0 01-3.86 1.45H225v26.3c0 2.58.74 4.42 2.3 5.55z" transform="translate(-5.91 -7.82)"/><path class="cls-2" d="M123.33 76.09a7.57 7.57 0 01-1.2 4.46 13.3 13.3 0 01-3.62 3.25 35.11 35.11 0 01-8 3.56A36.56 36.56 0 0199.09 89q-14.48 0-23-7.42t-8.48-22.74a36.76 36.76 0 012.3-13.69 26.2 26.2 0 016.21-9.47 24.78 24.78 0 019.22-5.55 35.47 35.47 0 0111.46-1.8 27.61 27.61 0 016.2.67 30.81 30.81 0 015.19 1.63V8.79a15.6 15.6 0 012.81-.67 25.63 25.63 0 014-.3q4.35 0 6.34 1.57c1.32 1 2 2.89 2 5.55zm-15.19-33.17a18.58 18.58 0 00-9.41-2.54 15.44 15.44 0 00-11.22 4.35Q83.06 49.07 83.05 59q0 9.29 4.28 13.57T99 76.81a17.63 17.63 0 005.37-.72 18.24 18.24 0 003.8-1.69z" transform="translate(-5.91 -7.82)"/><path class="cls-1" d="M258.84 67q2.34 5.92 7.19 8.2a21.58 21.58 0 0011.57 1.54 28 28 0 009.13-2.51 33.69 33.69 0 006.55-3.92 8 8 0 013.05 2.34 6.58 6.58 0 011.47 3.48 6.37 6.37 0 01-1.16 4.43 13.33 13.33 0 01-4.1 3.66 27.81 27.81 0 01-6.43 2.75 44.93 44.93 0 01-8.2 1.62 41.15 41.15 0 01-13.09-.59 26.33 26.33 0 01-10.59-4.73 27.21 27.21 0 01-7.52-9 36 36 0 01-3.79-13.18A34.13 34.13 0 01243.8 48a26.59 26.59 0 015.18-9.9 24.85 24.85 0 018.45-6.49 32.75 32.75 0 0110.72-3 30.2 30.2 0 0111 .69 24.89 24.89 0 018.95 4.24 23.76 23.76 0 016.32 7.33 25.31 25.31 0 013.06 9.8 6.72 6.72 0 01-1.2 5.22 8.65 8.65 0 01-4.62 2.68zm10.54-27a13.49 13.49 0 00-9.41 5q-3.54 4.32-3.24 11.57l26.2-6.84a13.47 13.47 0 00-4.32-7.36q-3.36-3.04-9.23-2.37zM8.06 153a5.75 5.75 0 01-2.15-1.18l.69-1.45a5.79 5.79 0 001.9 1.09 7.05 7.05 0 002.4.42 4.37 4.37 0 002.42-.55 1.72 1.72 0 00.8-1.47 1.42 1.42 0 00-.44-1.08 2.92 2.92 0 00-1.08-.65c-.43-.15-1-.31-1.81-.5a18.23 18.23 0 01-2.38-.71 3.81 3.81 0 01-1.54-1.09 2.9 2.9 0 01-.65-2 3.42 3.42 0 01.55-1.88 3.73 3.73 0 011.67-1.34 6.66 6.66 0 012.77-.5 9.12 9.12 0 012.27.29 6.05 6.05 0 011.92.86l-.61 1.49a6.72 6.72 0 00-1.75-.79 6.54 6.54 0 00-1.83-.27 4 4 0 00-2.37.58 1.75 1.75 0 00-.79 1.49 1.46 1.46 0 00.44 1.09 3.36 3.36 0 001.11.65 17.64 17.64 0 001.8.49 17.81 17.81 0 012.36.71 3.86 3.86 0 011.54 1.08 2.81 2.81 0 01.64 1.95 3.24 3.24 0 01-.56 1.87 3.61 3.61 0 01-1.69 1.34 7 7 0 01-2.79.5 8.76 8.76 0 01-2.84-.44zM20.26 152.72a4.66 4.66 0 01-1.83-1.8 5.43 5.43 0 010-5.19 4.63 4.63 0 011.83-1.79 5.41 5.41 0 012.65-.64 5.31 5.31 0 012.63.64 4.7 4.7 0 011.83 1.79 5.43 5.43 0 010 5.19 4.72 4.72 0 01-1.83 1.8 5.31 5.31 0 01-2.63.65 5.42 5.42 0 01-2.65-.65zm4.35-1.35a3 3 0 001.18-1.23 4 4 0 000-3.63 3 3 0 00-1.18-1.22 3.33 3.33 0 00-1.7-.43 3.37 3.37 0 00-1.71.43 3.1 3.1 0 00-1.2 1.22 4 4 0 000 3.63 3.13 3.13 0 001.19 1.23 3.37 3.37 0 001.71.44 3.34 3.34 0 001.71-.44zM30.78 139.44h1.79v13.82h-1.79zM45.45 143.39v9.87h-1.69v-1.49a3.57 3.57 0 01-1.42 1.23 4.46 4.46 0 01-1.93.42 4.29 4.29 0 01-3.11-1.09 4.23 4.23 0 01-1.14-3.21v-5.68H38v5.47a3.06 3.06 0 00.69 2.17 2.54 2.54 0 002 .74 3 3 0 002.24-.86 3.37 3.37 0 00.82-2.42v-5.1zM54.69 152.68a2.43 2.43 0 01-1 .51 3.94 3.94 0 01-1.19.18 3.19 3.19 0 01-2.31-.8 3.08 3.08 0 01-.82-2.29v-5.42h-1.64v-1.47h1.67v-2.16h1.79v2.16H54v1.47h-2.81v5.35a1.69 1.69 0 00.4 1.22 1.49 1.49 0 001.15.43 2.14 2.14 0 001.39-.46zM57.16 141.16a1.15 1.15 0 010-1.65 1.18 1.18 0 01.86-.35 1.21 1.21 0 01.87.33 1.07 1.07 0 01.34.81 1.16 1.16 0 01-.34.85 1.18 1.18 0 01-.87.34 1.2 1.2 0 01-.86-.33zm0 2.23h1.79v9.87h-1.82zM64.19 152.72a4.62 4.62 0 01-1.84-1.8 5.43 5.43 0 010-5.19 4.59 4.59 0 011.84-1.79 5.76 5.76 0 015.28 0 4.67 4.67 0 011.82 1.79 5.43 5.43 0 010 5.19 4.7 4.7 0 01-1.82 1.8 5.69 5.69 0 01-5.28 0zm4.34-1.35a3.06 3.06 0 001.19-1.23 4.13 4.13 0 000-3.63 3 3 0 00-1.19-1.22 3.58 3.58 0 00-3.4 0 3.13 3.13 0 00-1.2 1.22 4 4 0 000 3.63 3.16 3.16 0 001.2 1.23 3.5 3.5 0 003.4 0zM83 144.39a4.27 4.27 0 011.11 3.19v5.68h-1.83v-5.47a3.06 3.06 0 00-.68-2.16 2.58 2.58 0 00-2-.73 3.06 3.06 0 00-2.29.85 3.29 3.29 0 00-.84 2.43v5.08h-1.76v-9.87h1.71v1.49a3.46 3.46 0 011.46-1.17 5 5 0 012.1-.41 4 4 0 013.02 1.09zM88.17 153a5 5 0 01-1.75-.82l.74-1.42a5.46 5.46 0 001.59.75 6.69 6.69 0 001.88.28q2.34 0 2.34-1.35a.86.86 0 00-.31-.7 2 2 0 00-.8-.38 11.44 11.44 0 00-1.34-.27 14 14 0 01-2-.43 3.07 3.07 0 01-1.3-.82 2.29 2.29 0 01-.53-1.62 2.53 2.53 0 011.11-2.15 5 5 0 013-.81 8.23 8.23 0 012 .24 5.31 5.31 0 011.62.65l-.76 1.42a5.08 5.08 0 00-2.85-.79 3.26 3.26 0 00-1.73.38 1.11 1.11 0 00-.6 1 1 1 0 00.34.77 2.23 2.23 0 00.83.41c.33.08.79.18 1.38.29a16.41 16.41 0 011.93.44 3 3 0 011.26.79 2.22 2.22 0 01.52 1.57 2.46 2.46 0 01-1.15 2.13 5.36 5.36 0 01-3.11.79 8.15 8.15 0 01-2.31-.35zM104.14 152.72a4.66 4.66 0 01-1.83-1.8 5.43 5.43 0 010-5.19 4.63 4.63 0 011.83-1.79 5.44 5.44 0 012.65-.64 5.31 5.31 0 012.63.64 4.63 4.63 0 011.83 1.79 5.43 5.43 0 010 5.19 4.66 4.66 0 01-1.83 1.8 5.31 5.31 0 01-2.63.65 5.45 5.45 0 01-2.65-.65zm4.35-1.35a3 3 0 001.18-1.23 4 4 0 000-3.63 3 3 0 00-1.18-1.22 3.33 3.33 0 00-1.7-.43 3.39 3.39 0 00-1.71.43 3.1 3.1 0 00-1.19 1.22 4 4 0 000 3.63 3.13 3.13 0 001.19 1.23 3.4 3.4 0 001.71.44 3.34 3.34 0 001.7-.44zM117.76 143.74a5.06 5.06 0 012.21-.44v1.7h-.41a3 3 0 00-2.28.87 3.42 3.42 0 00-.83 2.46v4.92h-1.79v-9.87h1.72v1.66a3.07 3.07 0 011.38-1.3zM131.8 143.39v8.53a5.11 5.11 0 01-1.29 3.83 5.34 5.34 0 01-3.83 1.23 9 9 0 01-2.67-.38 5.34 5.34 0 01-2.05-1.09l.86-1.38a4.9 4.9 0 001.7.94 6.52 6.52 0 002.1.35 3.5 3.5 0 002.56-.82 3.39 3.39 0 00.83-2.5v-.78a4 4 0 01-1.56 1.15 5.24 5.24 0 01-2 .38 5.35 5.35 0 01-2.56-.61 4.51 4.51 0 01-1.8-1.69 5.08 5.08 0 010-5 4.51 4.51 0 011.8-1.69 5.58 5.58 0 012.56-.59 5.12 5.12 0 012.08.41 3.76 3.76 0 011.57 1.21v-1.53zm-3.4 7.49a3.11 3.11 0 001.21-1.15 3.2 3.2 0 00.44-1.67 3 3 0 00-1-2.31 3.82 3.82 0 00-4.9 0 3 3 0 00-1 2.31 3.11 3.11 0 00.44 1.67 3 3 0 001.21 1.15 3.94 3.94 0 003.5 0zM142.21 144.3a3.87 3.87 0 011.09 3v6h-1.69V152a2.84 2.84 0 01-1.28 1 4.9 4.9 0 01-2 .36 4.15 4.15 0 01-2.66-.8 2.56 2.56 0 01-1-2.1 2.61 2.61 0 01.95-2.1 4.65 4.65 0 013-.79h2.83v-.35a2.27 2.27 0 00-.67-1.77 2.8 2.8 0 00-2-.62 5.29 5.29 0 00-1.71.29 4.48 4.48 0 00-1.42.77l-.74-1.34a5.41 5.41 0 011.82-.94 7.91 7.91 0 012.26-.32 4.44 4.44 0 013.22 1.01zm-1.78 7.24a2.61 2.61 0 001.08-1.3v-1.38h-2.75c-1.52 0-2.27.51-2.27 1.53a1.4 1.4 0 00.57 1.18 2.7 2.7 0 001.61.42 3.31 3.31 0 001.76-.45zM155.15 144.39a4.27 4.27 0 011.11 3.19v5.68h-1.79v-5.47a3.06 3.06 0 00-.68-2.16 2.58 2.58 0 00-2-.73 3.06 3.06 0 00-2.29.85 3.29 3.29 0 00-.84 2.43v5.08h-1.76v-9.87h1.71v1.49a3.46 3.46 0 011.46-1.17 5 5 0 012.09-.41 4 4 0 012.99 1.09zM159.88 141.16a1.17 1.17 0 010-1.65 1.18 1.18 0 01.87-.35 1.22 1.22 0 01.87.33 1.11 1.11 0 01.34.81 1.24 1.24 0 01-2.08.86zm0 2.23h1.78v9.87h-1.78zM165.83 153a5.1 5.1 0 01-1.75-.82l.75-1.42a5.39 5.39 0 001.58.75 6.74 6.74 0 001.88.28c1.56 0 2.35-.45 2.35-1.35a.86.86 0 00-.32-.7 1.94 1.94 0 00-.79-.38 12.16 12.16 0 00-1.35-.27 14 14 0 01-2-.43 3 3 0 01-1.29-.82 2.3 2.3 0 01-.54-1.62 2.53 2.53 0 011.11-2.15 5 5 0 013-.81 8.38 8.38 0 012 .24 5.53 5.53 0 011.62.65l-.77 1.42a5 5 0 00-2.85-.79 3.29 3.29 0 00-1.73.38 1.1 1.1 0 00-.59 1 1 1 0 00.33.77 2.31 2.31 0 00.83.41c.33.08.79.18 1.39.29a16.66 16.66 0 011.92.44 2.91 2.91 0 011.26.79 2.22 2.22 0 01.52 1.57 2.47 2.47 0 01-1.14 2.13 5.42 5.42 0 01-3.12.79 8.2 8.2 0 01-2.3-.35zM181.67 144.3a3.91 3.91 0 011.09 3v6h-1.7V152a2.81 2.81 0 01-1.27 1 5 5 0 01-2 .36 4.12 4.12 0 01-2.65-.8 2.57 2.57 0 01-1-2.1 2.61 2.61 0 011-2.1 4.69 4.69 0 013-.79H181v-.35a2.27 2.27 0 00-.67-1.77 2.84 2.84 0 00-2-.62 5.31 5.31 0 00-1.72.29 4.32 4.32 0 00-1.41.77l-.75-1.34a5.46 5.46 0 011.83-.94 7.84 7.84 0 012.25-.32 4.47 4.47 0 013.14 1.01zm-1.78 7.24a2.61 2.61 0 001.08-1.3v-1.38h-2.76c-1.51 0-2.27.51-2.27 1.53a1.38 1.38 0 00.58 1.18 2.67 2.67 0 001.6.42 3.38 3.38 0 001.77-.45zM191.9 152.68a2.43 2.43 0 01-1 .51 3.94 3.94 0 01-1.19.18 3.19 3.19 0 01-2.31-.8 3 3 0 01-.82-2.29v-5.42h-1.67v-1.47h1.67v-2.16h1.79v2.16h2.83v1.47h-2.8v5.35a1.69 1.69 0 00.4 1.22 1.48 1.48 0 001.14.43 2.15 2.15 0 001.4-.46zM194.37 141.16a1.15 1.15 0 010-1.65 1.16 1.16 0 01.86-.35 1.21 1.21 0 01.87.33 1.07 1.07 0 01.34.81 1.16 1.16 0 01-.34.85 1.28 1.28 0 01-1.73 0zm0 2.23h1.79v9.87h-1.79zM201.39 152.72a4.66 4.66 0 01-1.83-1.8 5.43 5.43 0 010-5.19 4.63 4.63 0 011.83-1.79 5.44 5.44 0 012.65-.64 5.31 5.31 0 012.63.64 4.63 4.63 0 011.83 1.79 5.43 5.43 0 010 5.19 4.66 4.66 0 01-1.83 1.8 5.31 5.31 0 01-2.63.65 5.45 5.45 0 01-2.65-.65zm4.35-1.35a3 3 0 001.18-1.23 4 4 0 000-3.63 3 3 0 00-1.18-1.22 3.33 3.33 0 00-1.7-.43 3.39 3.39 0 00-1.71.43 3.1 3.1 0 00-1.19 1.22 4 4 0 000 3.63 3.13 3.13 0 001.19 1.23 3.4 3.4 0 001.71.44 3.34 3.34 0 001.7-.44zM220.17 144.39a4.27 4.27 0 011.11 3.19v5.68h-1.79v-5.47a3 3 0 00-.69-2.16 2.56 2.56 0 00-2-.73 3.06 3.06 0 00-2.29.85 3.29 3.29 0 00-.84 2.43v5.08h-1.79v-9.87h1.72v1.49a3.46 3.46 0 011.46-1.17 5 5 0 012.09-.41 4.06 4.06 0 013.02 1.09zM233.13 144.39a4.27 4.27 0 011.11 3.19v5.68h-1.79v-5.47a3 3 0 00-.69-2.16 2.56 2.56 0 00-2-.73 3.06 3.06 0 00-2.29.85 3.29 3.29 0 00-.84 2.43v5.08h-1.79v-9.87h1.72v1.49a3.46 3.46 0 011.46-1.17 5 5 0 012.09-.41 4.06 4.06 0 013.02 1.09zM246.77 148.92h-8a3.11 3.11 0 001.14 2.1 3.77 3.77 0 002.43.79 3.68 3.68 0 002.85-1.19l1 1.15a4.37 4.37 0 01-1.67 1.19 5.87 5.87 0 01-2.23.41 5.81 5.81 0 01-2.77-.64 4.57 4.57 0 01-1.87-1.8 5.51 5.51 0 010-5.19 4.64 4.64 0 011.77-1.8 5 5 0 012.54-.64 4.92 4.92 0 012.52.64 4.57 4.57 0 011.74 1.8 5.53 5.53 0 01.62 2.64 4 4 0 01-.07.54zm-7-3.33a3.08 3.08 0 00-1 2h6.33a3.16 3.16 0 00-1-2 3.05 3.05 0 00-2.15-.79 3.09 3.09 0 00-2.17.79zM249.56 139.44h1.79v13.82h-1.79zM255 139.44h1.79v13.82H255zM269.39 148.92h-8a3.11 3.11 0 001.14 2.1 3.77 3.77 0 002.43.79 3.68 3.68 0 002.85-1.19l1 1.15a4.29 4.29 0 01-1.67 1.19 6.29 6.29 0 01-5-.23 4.63 4.63 0 01-1.87-1.8 5.51 5.51 0 010-5.19 4.64 4.64 0 011.77-1.8 5 5 0 012.54-.64 4.93 4.93 0 012.53.64 4.61 4.61 0 011.73 1.8 5.53 5.53 0 01.62 2.64 4 4 0 01-.07.54zm-7-3.33a3.17 3.17 0 00-1 2h6.33a3.16 3.16 0 00-1-2 3 3 0 00-2.15-.79 3.11 3.11 0 00-2.17.79zM272.69 153a5 5 0 01-1.75-.82l.74-1.42a5.58 5.58 0 001.59.75 6.69 6.69 0 001.88.28q2.34 0 2.34-1.35a.86.86 0 00-.31-.7 1.94 1.94 0 00-.79-.38 12.16 12.16 0 00-1.35-.27 14 14 0 01-2-.43 3 3 0 01-1.29-.82 2.3 2.3 0 01-.54-1.62 2.53 2.53 0 011.11-2.15 5 5 0 013-.81 8.23 8.23 0 012 .24 5.31 5.31 0 011.62.65l-.76 1.42a5.08 5.08 0 00-2.85-.79 3.26 3.26 0 00-1.73.38 1.11 1.11 0 00-.6 1 1 1 0 00.34.77 2.23 2.23 0 00.83.41c.33.08.79.18 1.39.29a16.66 16.66 0 011.92.44 3 3 0 011.26.79 2.22 2.22 0 01.52 1.57 2.47 2.47 0 01-1.14 2.13 5.42 5.42 0 01-3.12.79 8.15 8.15 0 01-2.31-.35zM294.88 143.93a4.52 4.52 0 011.78 1.77 5.65 5.65 0 010 5.26 4.55 4.55 0 01-1.78 1.78 5.18 5.18 0 01-2.57.63 4.62 4.62 0 01-1.94-.41 4 4 0 01-1.5-1.19v5.1h-1.79v-13.48h1.72V145a3.82 3.82 0 011.5-1.23 4.76 4.76 0 012-.42 5.18 5.18 0 012.58.58zm-1 7.44a3.13 3.13 0 001.19-1.23 4 4 0 000-3.63 3.1 3.1 0 00-1.19-1.22 3.52 3.52 0 00-3.39 0 3.17 3.17 0 00-1.19 1.22 3.64 3.64 0 00-.44 1.8 3.71 3.71 0 00.43 1.82 3.06 3.06 0 001.19 1.23 3.5 3.5 0 003.4 0zM301.64 152.72a4.66 4.66 0 01-1.83-1.8 5.43 5.43 0 010-5.19 4.63 4.63 0 011.83-1.79 5.44 5.44 0 012.65-.64 5.31 5.31 0 012.63.64 4.63 4.63 0 011.83 1.79 5.43 5.43 0 010 5.19 4.66 4.66 0 01-1.83 1.8 5.31 5.31 0 01-2.63.65 5.45 5.45 0 01-2.65-.65zm4.35-1.35a3 3 0 001.18-1.23 4 4 0 000-3.63 3 3 0 00-1.18-1.22 3.33 3.33 0 00-1.7-.43 3.37 3.37 0 00-1.71.43 3.1 3.1 0 00-1.19 1.22 4 4 0 000 3.63 3.13 3.13 0 001.19 1.23 3.37 3.37 0 001.71.44 3.34 3.34 0 001.71-.44zM321.36 143.39v9.87h-1.69v-1.49a3.6 3.6 0 01-1.43 1.18 4.42 4.42 0 01-1.92.42 3.88 3.88 0 01-4.25-4.3v-5.68h1.79v5.47a3.06 3.06 0 00.69 2.17 2.54 2.54 0 002 .74 3 3 0 002.24-.86 3.37 3.37 0 00.82-2.42v-5.1zM328.14 143.74a5.14 5.14 0 012.22-.44v1.7h-.41a3 3 0 00-2.29.87 3.42 3.42 0 00-.82 2.46v4.92h-1.79v-9.87h1.71v1.66a3.07 3.07 0 011.38-1.3zM347.58 141.44a4.55 4.55 0 010 6.66 6 6 0 01-4 1.21h-3.23v3.95h-1.86v-13h5.09a6 6 0 014 1.18zm-1.34 5.5a3 3 0 000-4.34 4.22 4.22 0 00-2.7-.75h-3.17v5.84h3.17a4.22 4.22 0 002.7-.75zM364.13 153.26v-9.5l-4.71 7.92h-.85l-4.71-7.86v9.44h-1.79v-13h1.52l5.44 9.16 5.36-9.16h1.53v13zM379.57 151.64v1.62h-9.46v-13h9.2v1.62H372v4h6.54v1.58H372v4.21z" transform="translate(-5.91 -7.82)"/><path class="cls-2" d="M299.59 84.6a3.76 3.76 0 011-2.66 4 4 0 015.39 0 4.07 4.07 0 010 5.32 3.93 3.93 0 01-5.39 0 3.75 3.75 0 01-1-2.66z" transform="translate(-5.91 -7.82)"/><path class="cls-1" d="M316.69 88.25a7.74 7.74 0 01-5.15-1.52c-1.2-1-1.81-2.66-1.81-4.94V64.92c.28-.07.68-.16 1.2-.24a9.66 9.66 0 011.65-.14 4.44 4.44 0 012.7.65 2.87 2.87 0 01.84 2.39v2.06h5a6.69 6.69 0 01.43 1 4.36 4.36 0 01.21 1.39 2.67 2.67 0 01-.59 1.92 2.14 2.14 0 01-1.57.59h-3.46v6.76a1.57 1.57 0 00.62 1.4 3.17 3.17 0 001.77.42 8.12 8.12 0 001.18-.09 7.56 7.56 0 001.06-.25 4.45 4.45 0 01.59.93 2.88 2.88 0 01.25 1.24 2.92 2.92 0 01-1.09 2.35 6 6 0 01-3.83.95zM329.67 81a3.22 3.22 0 001.78 1.92 6.84 6.84 0 002.81.55 11.56 11.56 0 003-.39 9.2 9.2 0 002.32-.94 3.28 3.28 0 011 1.07 2.73 2.73 0 01.42 1.44 2.62 2.62 0 01-.53 1.64 4.16 4.16 0 01-1.5 1.14 8.69 8.69 0 01-2.3.66 18.81 18.81 0 01-2.92.21 13.3 13.3 0 01-4.17-.63 9.2 9.2 0 01-3.32-1.88 8.55 8.55 0 01-2.2-3.15 11.43 11.43 0 01-.8-4.44 10.31 10.31 0 01.82-4.32 8.32 8.32 0 012.16-3 8.71 8.71 0 013.06-1.71 11.23 11.23 0 013.5-.55 10.64 10.64 0 013.66.6 9 9 0 012.85 1.68 7.4 7.4 0 011.85 2.54 8.17 8.17 0 01.64 3.23 2.61 2.61 0 01-.72 2 3.62 3.62 0 01-2 .87zm3.22-7.63a3.46 3.46 0 00-2.41.87 3.84 3.84 0 00-1.16 2.47l6.46-1.06a2.22 2.22 0 00-.23-.78 2.51 2.51 0 00-1.41-1.29 3.34 3.34 0 00-1.25-.22zM354.33 73.74a5.46 5.46 0 00-1.81.3A4.23 4.23 0 00351 75a4.65 4.65 0 00-1 1.51 5.26 5.26 0 00-.38 2.06A4.37 4.37 0 00351 82a4.91 4.91 0 003.31 1.14 6.46 6.46 0 002-.28 13.14 13.14 0 001.52-.59 4 4 0 011.09 1.14 2.85 2.85 0 01.36 1.48 2.78 2.78 0 01-1.5 2.43 8.28 8.28 0 01-4.28.91 14.06 14.06 0 01-4.31-.62 8.78 8.78 0 01-3.27-1.87 8.06 8.06 0 01-2.07-3 11.26 11.26 0 01-.72-4.2 10.67 10.67 0 01.82-4.36 8.45 8.45 0 012.22-3.08 9.54 9.54 0 013.25-1.83 12.42 12.42 0 013.89-.6 7.57 7.57 0 014.22 1 3 3 0 011.47 2.51 2.76 2.76 0 01-.34 1.35 4.74 4.74 0 01-.8 1.08 14.49 14.49 0 00-1.56-.61 6.56 6.56 0 00-1.97-.26zM378.37 87.87a11.1 11.1 0 01-1.69.12 4.63 4.63 0 01-2.74-.63 2.89 2.89 0 01-.83-2.41v-8.44a2.65 2.65 0 00-.78-2.18 3 3 0 00-1.92-.63 4.56 4.56 0 00-1.38.19 6.13 6.13 0 00-1.17.49v13.27c-.28.07-.67.14-1.19.22A11.1 11.1 0 01365 88a4.63 4.63 0 01-2.74-.63 2.86 2.86 0 01-.86-2.37V63a10.79 10.79 0 011.2-.23 12.63 12.63 0 011.69-.11 4.63 4.63 0 012.74.63 2.88 2.88 0 01.83 2.41v3.76a10.47 10.47 0 011.71-.51 9.58 9.58 0 012.06-.21 8.35 8.35 0 015.84 1.88 7.13 7.13 0 012.1 5.6v11.43c-.28.07-.68.14-1.2.22z" transform="translate(-5.91 -7.82)"/><path class="cls-2" d="M71.33 102.2a4.09 4.09 0 011.41.24 3.25 3.25 0 011.15.74 3.66 3.66 0 01.76 1.22 4.93 4.93 0 01.27 1.7 4.51 4.51 0 01-.29 1.71 3.28 3.28 0 01-2.1 2 5.9 5.9 0 01-3.33 0 4.24 4.24 0 01-1.15-.55 1.36 1.36 0 01-.66-1.17v-8.28l.44-.09a3.89 3.89 0 01.62 0 1.68 1.68 0 011 .23 1.07 1.07 0 01.3.88v1.75a4 4 0 01.71-.23 3.49 3.49 0 01.87-.15zm-.44 1.8a1.81 1.81 0 00-.63.1 2.37 2.37 0 00-.53.26v3.52a1.51 1.51 0 00.46.2 2.46 2.46 0 00.64.07 1.55 1.55 0 001.23-.52 3 3 0 000-3.14 1.52 1.52 0 00-1.17-.49zM77.34 108q-.36-.77-.81-2a30.85 30.85 0 01-.94-3.2 1.43 1.43 0 01.51-.35 1.72 1.72 0 01.72-.15 1.42 1.42 0 01.8.21 1.36 1.36 0 01.47.76q.34 1.13.69 2.22c.23.72.46 1.46.7 2.2h.06c.12-.35.25-.73.38-1.15s.26-.85.39-1.29.23-.9.34-1.36.2-.89.29-1.33a2.07 2.07 0 011-.26 1.53 1.53 0 01.84.22.76.76 0 01.36.71 6.57 6.57 0 01-.2 1.4 18.1 18.1 0 01-.5 1.79c-.21.62-.45 1.23-.71 1.84a12.68 12.68 0 01-.81 1.61 11.62 11.62 0 01-1.55 2.13 2 2 0 01-1.4.72 1.33 1.33 0 01-.94-.35 1.47 1.47 0 01-.45-.88 13.74 13.74 0 001-1 8.45 8.45 0 00.9-1.16A1.33 1.33 0 0178 109a3.35 3.35 0 01-.66-1zM96.22 105.13a5.75 5.75 0 01-.37 2.16 4 4 0 01-1 1.53 4.34 4.34 0 01-1.61.93 6.92 6.92 0 01-2.1.3h-.59l-.68-.05-.7-.11a4.9 4.9 0 01-.64-.18 1 1 0 01-.8-1v-7.33a.64.64 0 01.16-.47 1.17 1.17 0 01.47-.28 6.24 6.24 0 011.34-.26q.7-.06 1.29-.06a7.61 7.61 0 012.15.29 4.51 4.51 0 011.66.9 4.21 4.21 0 011.04 1.5 5.67 5.67 0 01.38 2.13zm-2.49 0a3 3 0 00-.73-2.22 2.6 2.6 0 00-1.9-.73h-.52a3.86 3.86 0 00-.49.06V108a4.2 4.2 0 00.48.07h.55a2.5 2.5 0 001.9-.73 3.07 3.07 0 00.71-2.18zM97.61 100.3a1.25 1.25 0 01.36-.89 1.27 1.27 0 01.94-.37 1.3 1.3 0 011 .37 1.31 1.31 0 11-2.25.89zm2.47 9.51a2.38 2.38 0 01-.43.08 3.82 3.82 0 01-.61 0 1.7 1.7 0 01-1-.22 1 1 0 01-.3-.87v-6.32l.44-.09a3.67 3.67 0 01.61-.05 1.68 1.68 0 011 .23 1.07 1.07 0 01.3.88zM106.53 109.22a3.38 3.38 0 01-.7.23 4.52 4.52 0 01-.87.08 4.39 4.39 0 01-1.32-.19 2.91 2.91 0 01-1.08-.62 3 3 0 01-.74-1.13 4.43 4.43 0 01-.28-1.69 4.19 4.19 0 01.28-1.6 3.07 3.07 0 01.79-1.16 3.4 3.4 0 011.23-.71 5.31 5.31 0 011.59-.23 5.25 5.25 0 011.58.22 4.57 4.57 0 011.11.48 1.87 1.87 0 01.47.46 1.15 1.15 0 01.16.64v5.79a3 3 0 01-.29 1.39 2.58 2.58 0 01-.8 1 3.64 3.64 0 01-1.21.56 5.91 5.91 0 01-1.49.18 6.68 6.68 0 01-1.44-.13 3.17 3.17 0 01-1-.36 1.14 1.14 0 01-.53-1 1.28 1.28 0 01.14-.59 1.35 1.35 0 01.31-.4 5 5 0 001 .43 4.23 4.23 0 001.19.17 2.61 2.61 0 001.36-.3 1.06 1.06 0 00.51-1zm-1.16-1.46a2 2 0 00.64-.09 1.57 1.57 0 00.48-.25v-3.15l-.4-.15a1.79 1.79 0 00-.56-.08 1.6 1.6 0 00-1.2.46 1.94 1.94 0 00-.45 1.42 2.68 2.68 0 00.12.87 1.41 1.41 0 00.31.57 1 1 0 00.47.31 1.87 1.87 0 00.59.09zM110.43 100.3a1.25 1.25 0 01.36-.89 1.3 1.3 0 01.95-.37 1.27 1.27 0 01.94.37 1.28 1.28 0 010 1.8 1.24 1.24 0 01-.94.37 1.26 1.26 0 01-.95-.37 1.24 1.24 0 01-.36-.91zm2.48 9.51a2.78 2.78 0 01-.43.08 4 4 0 01-.62 0 1.69 1.69 0 01-1-.22 1 1 0 01-.3-.87v-6.32l.43-.09a3.8 3.8 0 01.62-.05 1.68 1.68 0 011 .23 1.07 1.07 0 01.3.88zM117.34 108a1.3 1.3 0 00.76.19 2.23 2.23 0 00.5 0 2.94 2.94 0 00.4-.19 1.41 1.41 0 01.23.35 1.15 1.15 0 01.1.46 1.11 1.11 0 01-.43.89 2.37 2.37 0 01-1.47.34 3 3 0 01-2-.59 2.36 2.36 0 01-.72-1.93v-6.9a4.32 4.32 0 01.44-.1 2.91 2.91 0 01.6-.06 1.58 1.58 0 011 .24 1.06 1.06 0 01.3.87v1h2.12a2.68 2.68 0 01.15.39 1.42 1.42 0 01.08.5.94.94 0 01-.22.71.82.82 0 01-.58.22h-1.55v3a.69.69 0 00.29.61zM123.73 102.2a6 6 0 011.46.16 3.14 3.14 0 011.11.5 2.23 2.23 0 01.72.86 2.93 2.93 0 01.25 1.23v3.47a.93.93 0 01-.21.64 1.83 1.83 0 01-.5.41 4.2 4.2 0 01-1.17.45 7.41 7.41 0 01-1.57.15 4.56 4.56 0 01-2.52-.61 2.06 2.06 0 01-.94-1.85A2 2 0 01121 106a3.56 3.56 0 011.93-.69l2-.21v-.17a.78.78 0 00-.4-.72 2.28 2.28 0 00-1.16-.24 4.81 4.81 0 00-1.14.14 7 7 0 00-1 .33 1 1 0 01-.31-.38 1.14 1.14 0 01-.13-.55 1 1 0 01.7-1 5.47 5.47 0 011-.25 7.72 7.72 0 011.24-.06zm.09 6.13a3 3 0 00.67-.07 1.44 1.44 0 00.5-.17v-1.42l-1.26.11a1.85 1.85 0 00-.79.22.58.58 0 00-.3.53.7.7 0 00.28.59 1.49 1.49 0 00.9.21zM130.36 109.93a1.69 1.69 0 01-1-.22 1 1 0 01-.3-.87v-9l.44-.09a3.89 3.89 0 01.62 0 1.66 1.66 0 011 .23 1 1 0 01.31.88v9a3 3 0 01-.44.08 4 4 0 01-.63-.01zM67.92 128a1.26 1.26 0 01-.35-.93v-6.8a1.28 1.28 0 01.35-.93 1.25 1.25 0 01.93-.34h5.09a2 2 0 01.17.38 1.74 1.74 0 01.08.53 1.08 1.08 0 01-.23.75.8.8 0 01-.62.25h-3.41v1.72h3.56a1.49 1.49 0 01.17.38 1.74 1.74 0 01.08.53 1.06 1.06 0 01-.22.74.76.76 0 01-.61.24h-3v1.92H74a1.93 1.93 0 01.25.94 1 1 0 01-.23.74.8.8 0 01-.6.23h-4.57a1.26 1.26 0 01-.93-.35zM78 121.42h2.61c.05.1.1.23.16.38a1.44 1.44 0 01.09.51 1 1 0 01-.23.71.8.8 0 01-.57.21h-2v5l-.43.09a5.66 5.66 0 01-.61 0 1.72 1.72 0 01-1-.22 1 1 0 01-.31-.87v-6.53a3.13 3.13 0 01.25-1.31 2.43 2.43 0 01.7-.9 3 3 0 011-.51 4.47 4.47 0 011.29-.17 3.54 3.54 0 011.62.28 1 1 0 01.53.93 1.05 1.05 0 01-.38.86 5.62 5.62 0 00-.62-.15 4.22 4.22 0 00-.75-.06 1.92 1.92 0 00-1.08.25 1 1 0 00-.36.85zm6.28 0h2.62c0 .1.1.23.16.38a1.44 1.44 0 01.09.51 1 1 0 01-.23.71.8.8 0 01-.57.21h-2v5l-.43.09a5.66 5.66 0 01-.61 0 1.72 1.72 0 01-1-.22 1 1 0 01-.31-.87v-6.53a3.13 3.13 0 01.25-1.31 2.43 2.43 0 01.7-.9 3 3 0 011-.51 4.47 4.47 0 011.29-.17 3.54 3.54 0 011.62.28 1 1 0 01.53.93 1.05 1.05 0 01-.38.86 5.62 5.62 0 00-.62-.15 4.22 4.22 0 00-.75-.06 1.92 1.92 0 00-1.08.25 1 1 0 00-.37.85zM90.55 125.56a1.47 1.47 0 00.75.91 2.77 2.77 0 001.25.27 4 4 0 001.21-.18 4.13 4.13 0 00.93-.39 1.32 1.32 0 01.38.4 1 1 0 01.15.54.94.94 0 01-.21.61 1.69 1.69 0 01-.59.44 3.18 3.18 0 01-.9.26 6.55 6.55 0 01-1.13.09 5.27 5.27 0 01-1.67-.26 3.5 3.5 0 01-1.32-.75 3.43 3.43 0 01-.87-1.25 4.55 4.55 0 01-.32-1.77 4.24 4.24 0 01.32-1.71 3.3 3.3 0 012.06-1.9 4.41 4.41 0 011.4-.22 4.1 4.1 0 011.44.24 3.22 3.22 0 011.12.67 2.81 2.81 0 01.73 1 3.12 3.12 0 01.27 1.3 1 1 0 01-.27.74 1.38 1.38 0 01-.73.33zm1.45-3.17a1.52 1.52 0 00-1.1.41 1.82 1.82 0 00-.52 1.17l2.94-.47a1.29 1.29 0 00-.35-.76 1.28 1.28 0 00-.97-.35zM99.25 128.26l-.43.09a5.66 5.66 0 01-.61 0 1.72 1.72 0 01-1-.22 1 1 0 01-.31-.87v-4.66a1.24 1.24 0 01.22-.74 1.91 1.91 0 01.59-.53 4.33 4.33 0 011.23-.49 6 6 0 011.5-.17c1.06 0 1.6.35 1.6 1.07a1.42 1.42 0 01-.08.48 2.14 2.14 0 01-.17.37 4.19 4.19 0 00-.86-.08 3.8 3.8 0 00-.89.11 3.33 3.33 0 00-.79.29zM109.2 120.73a1.48 1.48 0 01.81.21.82.82 0 01.33.73 3.59 3.59 0 01-.11.69c-.08.3-.18.65-.3 1s-.27.81-.43 1.26-.32.88-.49 1.3-.34.83-.5 1.19a10.32 10.32 0 01-.45.93 1.76 1.76 0 01-.56.24 3.56 3.56 0 01-.83.1 2.84 2.84 0 01-.93-.14 1 1 0 01-.55-.45q-.14-.26-.33-.72c-.13-.31-.27-.65-.42-1s-.3-.79-.45-1.23l-.45-1.31c-.14-.43-.27-.85-.4-1.24s-.22-.75-.29-1.07a1.63 1.63 0 01.52-.35 1.87 1.87 0 01.71-.14 1.46 1.46 0 01.8.2 1.29 1.29 0 01.46.77l.68 2.43c.12.43.25.85.37 1.26s.21.75.28 1h.07c.24-.8.47-1.67.71-2.61s.46-1.87.66-2.77a2.17 2.17 0 011.09-.28zM113.51 125.56a1.47 1.47 0 00.75.91 2.77 2.77 0 001.25.27 4 4 0 001.21-.18 3.84 3.84 0 00.92-.39 1.24 1.24 0 01.39.4 1 1 0 01.15.54.94.94 0 01-.21.61 1.69 1.69 0 01-.59.44 3.18 3.18 0 01-.9.26 6.55 6.55 0 01-1.13.09 5.27 5.27 0 01-1.67-.26 3.62 3.62 0 01-1.33-.75 3.53 3.53 0 01-.86-1.25 4.55 4.55 0 01-.32-1.77 4.24 4.24 0 01.32-1.71 3.3 3.3 0 012.06-1.9 4.41 4.41 0 011.4-.22 4.1 4.1 0 011.44.24 3.22 3.22 0 011.12.67 2.81 2.81 0 01.73 1 3.12 3.12 0 01.27 1.3 1 1 0 01-.27.74 1.38 1.38 0 01-.73.33zm1.46-3.17a1.52 1.52 0 00-1.1.41 1.82 1.82 0 00-.52 1.17l2.94-.47a1.29 1.29 0 00-.35-.76 1.28 1.28 0 00-.94-.35zM125.93 126.11a2.12 2.12 0 01-.84 1.78 4.16 4.16 0 01-2.49.63 7.08 7.08 0 01-1.18-.09 3.14 3.14 0 01-.91-.28 1.5 1.5 0 01-.6-.46 1 1 0 01-.22-.64 1.16 1.16 0 01.14-.58 1.2 1.2 0 01.35-.39 6 6 0 001 .46 4.07 4.07 0 001.32.2c.73 0 1.09-.21 1.09-.62a.47.47 0 00-.19-.4 2 2 0 00-.65-.24l-.62-.14a4 4 0 01-1.88-.81 1.92 1.92 0 01-.61-1.53 2 2 0 01.88-1.73 4 4 0 012.38-.64 5.87 5.87 0 011 .09 3.48 3.48 0 01.84.25 1.67 1.67 0 01.56.43.87.87 0 01.21.59 1.19 1.19 0 01-.12.54 1.16 1.16 0 01-.33.4 1.52 1.52 0 00-.36-.17c-.16-.06-.33-.12-.51-.17l-.59-.13a3.82 3.82 0 00-.57 0 2.07 2.07 0 00-.83.14.48.48 0 00-.3.44.37.37 0 00.17.34 1.8 1.8 0 00.61.23l.59.14a4.15 4.15 0 012 .89 2 2 0 01.66 1.47zM131.42 122.51a2 2 0 00-1.42.49 2 2 0 00-.59 1.56 2 2 0 00.57 1.54 2 2 0 001.42.51 2.84 2.84 0 00.87-.13 5.89 5.89 0 00.64-.27 1.57 1.57 0 01.4.42 1 1 0 01.15.55 1 1 0 01-.62.93 3.38 3.38 0 01-1.7.36 5.31 5.31 0 01-1.69-.25 3.48 3.48 0 01-1.3-.74 3.23 3.23 0 01-.83-1.22 4.65 4.65 0 01-.29-1.7 4.46 4.46 0 01.32-1.74 3.58 3.58 0 01.88-1.23 3.73 3.73 0 011.29-.73 4.72 4.72 0 011.56-.25 3.14 3.14 0 011.66.38 1.12 1.12 0 01.61 1 1 1 0 01-.13.51 1.78 1.78 0 01-.31.4 5.24 5.24 0 00-.66-.28 2.75 2.75 0 00-.83-.11zM136.65 125.56a1.52 1.52 0 00.76.91 2.73 2.73 0 001.24.27 4.4 4.4 0 002.14-.57 1.32 1.32 0 01.38.4.93.93 0 01.16.54.9.9 0 01-.22.61 1.6 1.6 0 01-.59.44 3.11 3.11 0 01-.89.26 6.55 6.55 0 01-1.13.09 5.28 5.28 0 01-1.68-.26 3.58 3.58 0 01-1.32-.75 3.43 3.43 0 01-.87-1.25 4.55 4.55 0 01-.31-1.77 4.25 4.25 0 01.31-1.71 3.39 3.39 0 01.85-1.2 3.49 3.49 0 011.21-.7 4.52 4.52 0 011.41-.22 4.18 4.18 0 011.44.24 3.31 3.31 0 011.12.67 2.93 2.93 0 01.73 1 3.28 3.28 0 01.26 1.3 1 1 0 01-.26.74 1.38 1.38 0 01-.74.33zm1.46-3.17a1.53 1.53 0 00-1.1.41 1.77 1.77 0 00-.51 1.17l2.94-.47a1.23 1.23 0 00-1.33-1.11zM147.46 122.76a1.28 1.28 0 00-.86-.26 2.36 2.36 0 00-.67.09 3 3 0 00-.57.23v5.44l-.43.09a5.85 5.85 0 01-.62 0 1.74 1.74 0 01-1-.22 1 1 0 01-.31-.87v-4.75a1.1 1.1 0 01.17-.64 2.15 2.15 0 01.48-.47 4 4 0 011.27-.56 6.16 6.16 0 011.71-.22 4.07 4.07 0 012.6.74 2.57 2.57 0 01.91 2.11v4.76l-.45.09a5.66 5.66 0 01-.61 0 1.69 1.69 0 01-1-.22 1 1 0 01-.3-.87v-3.73a1 1 0 00-.32-.74zM155.92 122.51a2 2 0 00-1.41.53 2 2 0 00-.59 1.56 2 2 0 00.56 1.54 2.05 2.05 0 001.43.51 2.94 2.94 0 00.87-.13 4.94 4.94 0 00.63-.27 1.62 1.62 0 01.41.42 1 1 0 01.15.55 1 1 0 01-.62.93 3.38 3.38 0 01-1.7.36 5.31 5.31 0 01-1.69-.25 3.4 3.4 0 01-1.3-.74 3.23 3.23 0 01-.83-1.22 4.65 4.65 0 01-.29-1.7 4.46 4.46 0 01.32-1.74 3.58 3.58 0 01.88-1.23 3.73 3.73 0 011.29-.73 4.71 4.71 0 011.55-.25 3.15 3.15 0 011.67.38 1.12 1.12 0 01.61 1 1 1 0 01-.13.51 1.57 1.57 0 01-.32.4 4.52 4.52 0 00-.65-.28 2.75 2.75 0 00-.84-.15zM161.15 125.56a1.5 1.5 0 00.75.91 2.77 2.77 0 001.25.27 4 4 0 001.22-.18 4.23 4.23 0 00.92-.39 1.32 1.32 0 01.38.4 1 1 0 01.16.54 1 1 0 01-.22.61 1.6 1.6 0 01-.59.44 3.11 3.11 0 01-.89.26 6.64 6.64 0 01-1.13.09 5.28 5.28 0 01-1.68-.26 3.58 3.58 0 01-1.32-.75 3.43 3.43 0 01-.87-1.25 4.55 4.55 0 01-.32-1.77 4.24 4.24 0 01.32-1.71 3.3 3.3 0 012.06-1.9 4.47 4.47 0 011.41-.22 4.09 4.09 0 011.43.24 3.36 3.36 0 011.13.67 3.06 3.06 0 01.73 1 3.28 3.28 0 01.26 1.3 1 1 0 01-.26.74 1.41 1.41 0 01-.74.33zm1.46-3.17a1.52 1.52 0 00-1.1.41 1.77 1.77 0 00-.51 1.2l2.93-.47a1.24 1.24 0 00-.35-.76 1.28 1.28 0 00-.97-.38z" transform="translate(-5.91 -7.82)"/></svg>