<svg xmlns="http://www.w3.org/2000/svg" width="45" height="39.016" viewBox="0 0 45 39.016">
  <g transform="translate(-53.297 -63.214)">
    <path d="M72.2,83.306a.364.364,0,0,1,.328.37q-.108,6.518-.077,13.147,0,.039.1,2.49a18.089,18.089,0,0,1-.092,2.69.15.15,0,0,1-.146.139l-18.547.073a.386.386,0,0,1-.385-.382q-.131-7.47-.042-14.939.066-5.666.069-5.782a29.17,29.17,0,0,1,.671-5.758,22.256,22.256,0,0,1,2.713-6.444,9.717,9.717,0,0,1,3.107-3.13,16.652,16.652,0,0,1,11.852-2.216.719.719,0,0,1,.605.728,51.837,51.837,0,0,1-.624,6.7.782.782,0,0,1-.644.648q-1.014.166-1.958.258a8.31,8.31,0,0,0-1.923.366,5.972,5.972,0,0,0-3.827,4.2,17.438,17.438,0,0,0-.594,6.213.254.254,0,0,0,.2.235,8.444,8.444,0,0,0,1.954.15A49.966,49.966,0,0,1,72.2,83.306Z" transform="translate(0 -0.058)" fill="#519f53"/>
    <path d="M136.523,83q1.156.042,2.309.139a.218.218,0,0,1,.2.208q.335,9.3.046,18.593a.2.2,0,0,1-.2.2q-9.382.247-18.682-.17a.285.285,0,0,1-.274-.289q.054-9.3-.046-18.408a41.339,41.339,0,0,1,.528-7.227,17.169,17.169,0,0,1,1.919-5.435,13.465,13.465,0,0,1,8.861-6.949,16.806,16.806,0,0,1,3.527-.432,30.119,30.119,0,0,1,3.561.1.488.488,0,0,1,.443.5A47.476,47.476,0,0,1,138.061,71a.846.846,0,0,1-.74.7q-1.11.131-2.174.166a4.8,4.8,0,0,0-2.8.983,7.235,7.235,0,0,0-2.96,5.173,24.384,24.384,0,0,0-.2,4.294.674.674,0,0,0,.806.736Q133.243,82.881,136.523,83Z" transform="translate(-40.915 0)" fill="#519f53"/>
  </g>
</svg>
