<svg xmlns="http://www.w3.org/2000/svg" viewBox="0 0 512 512">
    <g fill-rule="evenodd" clip-rule="evenodd" >
        <polygon points="206.12 323.19 339.12 256.69 206.12 190.19 206.12 323.19"/>
        <path d="m449.45,0H62.55C28.03,0,0,28.03,0,62.55v386.89c0,34.52,28.03,62.55,62.55,62.55h386.89c34.52,0,62.55-28.03,62.55-62.55V62.55c0-34.52-28.03-62.55-62.55-62.55Zm-67.1,402.99c-59.85,3.33-192.85,3.33-252.7,0-64.84-4.99-73.15-43.06-73.15-146.3s8.31-141.31,73.15-146.3c59.85-5.15,192.85-5.15,252.7,0,64.84,4.99,73.15,43.22,73.15,146.3s-8.31,141.31-73.15,146.3Z"/>
    </g>
</svg>