<svg data-name="Calque 1" xmlns="http://www.w3.org/2000/svg" viewBox="0 0 287.83 164.76"><path d="M82.08 144.54c-3.35-.84-6.47-1.17-9.18-2.4-4.85-2.2-7.38-6.32-7.69-11.68-.07-1.2-.3-1.85-1.66-2.28-9.62-3-13.14-12.77-7.81-21.38 1.49-2.41 3-4.77 4.81-7.51-2.2-2.15-4.46-4.32-6.67-6.54s-4.32-4.38-6.68-6.8c-1.88 3-3.58 5.7-5.31 8.41-2.2 3.44-4.27 4-7.74 2q-15.53-8.84-31-17.72c-3-1.74-3.92-4.31-2.43-6.82s4.09-2.9 7-1.27l24.07 13.74c4 2.31 4 2.31 6.58-1.71q24.93-39.53 49.9-79a8.65 8.65 0 013.5-3.27 3.92 3.92 0 014.89 1.45 4.56 4.56 0 01.18 5.58c-3.09 4.9-6.16 9.76-9.46 14.96 5.44 2.06 9.85 6.46 16.23 5.55a6.76 6.76 0 011.74 0c4.12.45 7.46-.32 10.59-3.68 3.6-3.86 8.68-5.47 14.06-5.49 10.17 0 20.34-.07 30.5 0a26.16 26.16 0 016.38 1c7.38 2 14.85 3.79 22.05 6.34 4.86 1.73 8.7.73 12.71-2.25l-2.07-3.29q-3.93-6.24-7.85-12.48c-1.89-3-1.59-5.62.82-7.23s5.15-.64 7.08 2.38c1.3 2 2.58 4.08 3.87 6.12l47.48 75.27c.4.63.83 1.23 1.39 2.05.84-.45 1.63-.84 2.4-1.28q12.92-7.36 25.8-14.76c1.81-1 3.85-1.49 5.35-.06a6.79 6.79 0 011.92 4.46 5.05 5.05 0 01-2.39 3.44c-10.63 6.15-21.34 12.28-32.06 18.36-2.78 1.57-5.07.9-6.84-1.87-2.92-4.55-5.78-9.15-8.84-14-1.26 1.51-2.41 2.86-3.52 4.25-3.23 4-6.42 8.09-9.7 12.08-.9 1.1-1.13 1.82-.2 3.19a16.65 16.65 0 01-12.17 25.92 4.76 4.76 0 00-3 1.68c-2.95 4.09-5.93 8.07-10.92 9.91-.53.19-.9.91-1.29 1.43-1.78 2.4-3.44 4.92-5.35 7.21a17.71 17.71 0 01-14.95 6.67 4.45 4.45 0 00-4.69 2.63c-3.28 5.86-8.31 9-15.07 8.91a17.8 17.8 0 01-5.82-1.21c-8.11-3-16.18-6.1-24.24-9.25-1.46-.57-2.26-.49-3.25.93a14 14 0 01-23.53-.54 3 3 0 00-2.18-1.32c-8.69.35-12.11-1.59-15.74-8.83zm103.64-5.77c-5.11-3.15-10.22-6.26-15.3-9.42s-10.2-6.3-15.2-9.62a4.07 4.07 0 01-1.73-3 7.65 7.65 0 011.93-4.51c1.49-1.37 3.53-1 5.34.11q12.27 7.69 24.59 15.33c6.47 4 11.88 2.44 15.4-4.56-.76-.47-1.52-1-2.29-1.42l-32.08-19.29a15.9 15.9 0 01-2.29-1.51 4.6 4.6 0 015-7.65 23.3 23.3 0 012.18 1.22q17.67 10.6 35.34 21.21c4 2.41 8 1.45 10.37-2.37 2.1-3.41 1.16-7.23-2.54-9.7q-34.9-23.33-69.88-46.56a11.56 11.56 0 00-4.19-1.25c-5.55-1-9.55 1-11.83 6.24a7.45 7.45 0 01-.55.83 14.31 14.31 0 01-12.82 6.88h-21c-2.13 0-4-.42-5.1-2.44s-.47-4 .78-5.8c4.93-7.32 9.8-14.69 14.69-22 .43-.64.81-1.3 1.41-2.28-1.59 0-2.67-.05-3.75 0a16.08 16.08 0 01-9.57-2c-3.19-1.9-6.63-3.37-10.09-5.1L52.62 77.4l13.76 13.95c7-4.87 12.51-4.42 20.16 1.88 5.21-5.25 11.28-6.71 17.86-3 6.29 3.57 8.09 9.34 6.56 16.38 7.12 2 10.56 6.87 10.92 14 5.74 1.2 9.78 4.17 11.59 9.7s-.16 10.44-3.57 15.17c8.82 3.34 17.3 6.69 25.92 9.67 1.53.53 3.89-.11 5.37-1s2.63-2.9 4.07-4.58c-1-.6-1.68-1-2.38-1.45-5.34-3.07-10.71-6.1-16-9.21-2.8-1.64-3.55-4-2.16-6.49s4-3.09 6.83-1.48c6.87 3.93 13.7 7.92 20.6 11.77a9.55 9.55 0 0013.57-3.9zm-83.56-78.49h7.56c9.85-.11 7.84 1.2 13.37-7 1.91-2.84 4.26-5.32 7.68-6 6.86-1.41 13.57-1.76 19.87 2.57 12.15 8.34 24.48 16.4 36.74 24.58l28.37 18.91 16.63-20.86-25.58-40.55c-1.78.88-3.31 1.54-4.74 2.37a16 16 0 01-13.46 1.24c-5.87-1.84-11.8-3.5-17.73-5.1-3.68-1-7.41-2.35-11.15-2.49-9.48-.35-19-.16-28.48-.1-4.86 0-9 1.86-11.77 6-5.67 8.33-11.21 16.74-16.8 25.12a9.9 9.9 0 00-.51 1.35zm.27 42.2a5.32 5.32 0 00-3.91-4.84c-2.23-.74-3.87.21-5.08 2.08-4.55 7.05-9.06 14.12-13.64 21.16-1.5 2.29-3.28 4.41-4.7 6.75s-.68 4.7 1.72 6.18 4.73 1.05 6.29-1.29q9.08-13.58 18-27.22a17.43 17.43 0 001.32-2.76zm10.06 18.45c0-3-1.25-4.41-3.29-5.11a3.82 3.82 0 00-4.8 1.58c-4.37 6.66-8.78 13.3-13.09 20a4.12 4.12 0 001.07 5.98c2.45 1.75 5.18 1 7-1.75 3.9-6 7.87-11.91 11.76-17.89a20.31 20.31 0 001.35-2.77zm12.5 14c-.17-2.79-1.37-4.2-3.53-4.84a3.6 3.6 0 00-4.48 1.69q-4.34 6.7-8.75 13.37a4.05 4.05 0 00.34 5.28c2.12 2.55 5.52 2.25 7.56-.79 2.7-4 5.27-8.09 7.82-12.19a13.67 13.67 0 001.04-2.44zm-45-32.6c-.16-2.67-1.34-4-3.29-4.79A3.79 3.79 0 0071.87 99c-1.82 2.58-3.49 5.26-5.21 7.91-1.26 2-2.62 3.86-3.7 5.91a4.44 4.44 0 001.87 6c2 1.2 4.3.62 5.75-1.55 2.77-4.15 5.52-8.3 8.23-12.49a16.39 16.39 0 001.23-2.37z"/><path d="M264.74 65.15a4.643 4.643 0 11-9.28-.36 4.643 4.643 0 019.28.36zM32.66 65.06a4.63 4.63 0 11-4.54-4.7 4.7 4.7 0 014.54 4.7z"/></svg>