<svg id="Calque_1" data-name="Calque 1" xmlns="http://www.w3.org/2000/svg" viewBox="0 0 292 291.36"><defs><style>.cls-1{stroke:#000;stroke-miterlimit:10;stroke-width:4px}</style></defs><path class="cls-1" d="M250.9 150A101.62 101.62 0 11149.3 48.58 101.47 101.47 0 01250.9 150zm-86.15-3.22c33.37 10.13 51.51 32.37 54.38 67 23.33-24.3 33.08-64 17.62-100.59a95 95 0 00-180.33 17.12A92.87 92.87 0 0057.75 175c4 14.76 11.33 27.64 22 39.42.45-16.62 5.43-30.91 15.53-43.27s23.07-20.34 38.85-24.18c-18.07-10.19-21.65-27.55-17.63-40.82a34.31 34.31 0 0165.44-.23c4.06 12.48.84 30.98-17.19 40.85zm-77.87 64.3h124.87c-1.26-31-27.72-59.51-63.34-58.94-36.97.58-60.98 31.06-61.53 58.93zm-2.71 7.1q31.74 30.12 75.2 26.14c19.86-1.85 50.95-16.91 54.89-26.14zm65.13-74.58a27.44 27.44 0 10-27.52-27.38 27.45 27.45 0 0027.52 27.38z" transform="translate(-3.18 -4.32)"/><path class="cls-1" d="M119.1 17c-2.1-1.37-4.1-2.64-6.1-3.89-2.35-1.48-3-3.41-1.79-5.36 1.08-1.74 2.9-1.9 5.24-.43q6.87 4.32 13.72 8.67c3 1.92 3.34 3.36 1.46 6.36q-4.5 7.18-9.06 14.34c-1.3 2-3.16 2.62-4.83 1.6s-2.11-3.14-.82-5.25c1.38-2.28 2.85-4.49 4.26-6.75.43-.68.8-1.4 1.54-2.72-3.67.93-6.73 1.57-9.7 2.49-38.24 11.81-65.59 36-82.22 72.32a100.3 100.3 0 00-8.1 26.36c-.4 2.52-1.91 3.9-3.93 3.6S15.59 126 16 123.53a117.75 117.75 0 0110.53-32.1c15.7-31.89 40.12-54.53 73-68 6.22-2.5 12.74-4.21 19.57-6.43zM281.92 119.3c1.7-2.65 3.2-5 4.75-7.37 1.39-2.12 3.33-2.7 5.06-1.58s2 3 .7 5.08q-4.59 7.44-9.32 14.78c-1.24 1.93-2.94 2.32-4.94 1.08-5.1-3.15-10.22-6.26-15.28-9.47-2.06-1.3-2.57-3.21-1.57-4.89s2.84-2.11 5-.88c2.72 1.55 5.36 3.24 8 4.86l.6-.39c-1.49-4.79-2.73-9.67-4.49-14.36C257.1 70.69 233 45.31 198 30.56c-7.54-3.17-15.67-4.95-23.56-7.27-3-.87-4.21-2.08-3.76-4.28s2.23-2.93 5.19-2.33a134.18 134.18 0 0164.25 32.51c20.29 18.3 33.53 40.87 40.56 67.17.17.64.37 1.27.59 1.9a9.24 9.24 0 00.65 1.04zM177.81 275.48c6.05-2 12.22-3.68 18.14-6a128.32 128.32 0 0061.31-49.59 125.29 125.29 0 0018.41-44.14 26.64 26.64 0 01.65-2.67 3.12 3.12 0 013.63-2.35 3 3 0 012.69 3.35 39.31 39.31 0 01-1.11 6.37q-15.82 61.68-72.65 90.63a125.35 125.35 0 01-28.55 10.35 15.92 15.92 0 00-1.85.76c1 .62 1.56 1.07 2.22 1.44 2.25 1.25 4.57 2.39 6.77 3.74a3.3 3.3 0 011.33 4.73c-.84 1.64-2.8 2.07-4.77 1-5.34-2.9-10.64-5.86-15.95-8.81-1.83-1-2.45-2.66-1.51-4.44q4.43-8.38 9.16-16.59c.9-1.54 2.56-1.82 4.19-1a3 3 0 011.52 4c-.73 1.84-1.79 3.55-2.7 5.32l-1.55 3zM17.1 180.55c-1.73 2.73-3.1 4.89-4.48 7-.4.63-.78 1.28-1.23 1.88a3.16 3.16 0 01-4.61.85 2.89 2.89 0 01-1-4.32q4.86-8 9.93-15.86a2.89 2.89 0 014.16-1q8.24 4.95 16.33 10.14c1.83 1.17 2 3.12.85 4.85s-3 1.65-4.64.66c-2.55-1.5-5.06-3.1-8.23-5.05.31 1.51.43 2.36.65 3.17q12 43.38 48.06 70.35a124 124 0 0049.67 22.3c.9.19 1.79.4 2.67.67 2.26.7 3.3 2.19 2.83 4a3.88 3.88 0 01-4.55 2.52 139.82 139.82 0 01-29.88-9.55 135.83 135.83 0 01-56.7-47.84 128.51 128.51 0 01-18.83-41.59c-.22-.87-.53-1.73-1-3.18z" transform="translate(-3.18 -4.32)"/></svg>