<svg data-name="Calque 1" xmlns="http://www.w3.org/2000/svg" viewBox="0 0 269.16 277.79"><path d="M139.3 268.81c-.44 3.82 1.09 9-4.7 9s-4.28-5.14-4.74-9h-8.48c-4.66 0-9.33.05-14 0-6-.08-9.84-3.93-9.88-9.88s-.12-12.14 0-18.21a4.87 4.87 0 00-2.53-4.8 69.73 69.73 0 01-31.81-66c1.81-18.32 9.28-34 22.72-46.74 11.75-11.11 26-16.76 41.93-18.52.65-.07 1.29-.18 2.14-.3 0-2.25-.05-4.4 0-6.55.08-3 1.91-5 4.44-5.07s4.61 2 4.7 5c.07 2.15 0 4.3 0 6.27 5.21 1.06 10.23 1.78 15.09 3.11 20.19 5.55 34.9 17.92 44.19 36.54 9.21 18.46 10.47 37.67 3.71 57.14-5.14 14.77-14.72 26.32-27.8 34.89a5.25 5.25 0 00-2.74 5.2c.19 6 .09 12 0 18s-3.85 9.83-9.86 9.89c-7.28.08-14.67.03-22.38.03zm31.06-41.86a2.72 2.72 0 00.8-.18 52.25 52.25 0 0014.85-14.93c13-20.75 14.78-42.38 4-64.54-3.61-7.46-8.33-14.34-16.13-18.35-.73-.38-1.19-1.31-1.77-2a8.06 8.06 0 00-1.36-1.67c-17.79-12.13-37-14.84-57.29-7.83-6.59 2.28-13.28 4.8-17.69 10.91-.77 1.07-2.71 1.22-3.77 2.17a54.61 54.61 0 00-12.61 16.29c-9.83 19.53-9.86 39.15.14 58.65a61.19 61.19 0 0019 21.7c2.71-4.34 6.85-4.93 11.38-4.83 5.74.14 11.49 0 17.24 0 .88 0 1.75-.07 2.74-.12 0-7.52 0-14.75-.09-22 0-.68-1.08-1.7-1.87-2-12.46-4.18-18.56-15-15.71-27.82a22.5 22.5 0 0119.31-17.31 22.87 22.87 0 0122.68 10.93c7.39 12.89 1.81 30.13-13.08 34-1.71.45-2.15 1.33-2.1 3 .12 4.24 0 8.48 0 12.73v8.56h21.8c3.96.04 7.18 1.11 9.53 4.64zm-63.51 4.94v27.32h55.47v-27.32zm14-55.79a13.69 13.69 0 1013.74-13.81 13.8 13.8 0 00-13.69 13.81zM61.1 82.51c1.29 1.43 2.65 2.88 3.94 4.4 2 2.38 1.94 5-.13 6.88s-4.58 1.6-6.69-.52c-1.29-1.29-2.45-2.71-3.77-4.2-6.67 3.57-13.57 4.82-20.84 2a22.87 22.87 0 01-11.94-10.12 23.12 23.12 0 015.34-29.32c7.93-6.81 20.66-7 28.93-.58 7.63 5.87 13.07 18.29 5.16 31.46zm-19.23.64a13.7 13.7 0 10-13.93-13.63 13.79 13.79 0 0013.93 13.63zM134.47 0a22.3 22.3 0 0122.63 18.88c1.91 12.16-4.09 22.59-15.23 26.12-2.16.68-2.81 1.61-2.73 3.81.17 4.59-1.55 6.89-4.68 6.78s-4.51-2.25-4.45-6.78c0-1.76-.08-3-2.25-3.63-11.3-3.41-17.81-13.78-16-25.15C113.66 7.92 122.54.09 134.47 0zm-13.59 22.87a14 14 0 0013.48 14.17c7.35.22 13.8-6.13 13.93-13.71a13.71 13.71 0 10-27.41-.46zM214.66 89.17c-1.15 1.27-2.33 2.66-3.61 4-2.14 2.2-4.78 2.4-6.9.6-2-1.68-2.42-4.24-.13-6.35 3.59-3.32 3.26-6.2 1.64-10.58-4.61-12.41 3.17-26.32 15.83-29.59 13.19-3.41 25.75 4.19 28.3 17.51 1.8 9.38-.7 17.74-8.63 23.46-7.78 5.6-16.33 6.09-25 1.56-.37-.19-.74-.37-1.12-.54a1.53 1.53 0 00-.38-.07zm26.45-19.63a13.74 13.74 0 10-27.47.1c.06 7.28 6.49 13.78 13.69 13.84s13.81-6.53 13.78-13.94zM25.67 198.97c-12.53.12-21.28-5.87-24.4-15.24-3.21-9.65-.22-20.16 7.46-25.78 12.64-9.26 31.72-5.12 36.6 11.52.47 1.61 1.16 2.17 2.76 2a14.63 14.63 0 013.24 0 4.61 4.61 0 014.24 4.46c0 2.45-1.77 4.81-4.28 4.54-4.31-.46-5.66 1.63-7.19 5.27-3.72 8.89-11.09 12.89-18.43 13.23zM9.52 176.11a13.87 13.87 0 0013.79 13.81 13.82 13.82 0 00-.07-27.63 13.72 13.72 0 00-13.72 13.82zM248.26 199.02c-13.32-.18-21.42-6.18-24.46-16.31-.5-1.63-1.2-2.13-2.77-2a17.63 17.63 0 01-3.48-.12 4.4 4.4 0 01-4-4.35c-.05-2.43 1.3-3.82 3.5-4.54a.59.59 0 01.24-.07c5.18 1.14 6.53-2.25 8.29-6.17 3.8-8.43 13-13.22 22.56-12.44 8.93.73 17.16 7.4 19.95 16.18a23 23 0 01-7 24.41c-4.47 3.7-9.77 5.44-12.83 5.41zm11.39-23a13.73 13.73 0 00-13.83-13.72 13.82 13.82 0 1013.83 13.72zM79.71 115.71a10.22 10.22 0 01-2.7-1.59 89.33 89.33 0 01-6.3-7 4.43 4.43 0 01.52-6.28 4.27 4.27 0 016.08.09 67.06 67.06 0 016.9 7.8c2.08 2.9-.2 6.9-4.5 6.98zM199.87 103.7c-.49 1.39-.58 2.32-1.08 2.9-2.36 2.76-4.7 5.57-7.31 8.09a4.12 4.12 0 01-5.85-.27 4.26 4.26 0 01-.57-5.86 99.7 99.7 0 016.76-7.62 3.76 3.76 0 015-.77c1.29.91 2.19 2.46 3.05 3.53zM139.17 74.33c0 1.58.08 3.16 0 4.73a4.58 4.58 0 01-4.57 4.37 4.52 4.52 0 01-4.59-4.36c-.11-3.32-.11-6.65 0-10a4.42 4.42 0 014.67-4.2 4.56 4.56 0 014.46 4.2v5.26z"/></svg>