<svg data-name="Calque 1" xmlns="http://www.w3.org/2000/svg" viewBox="0 0 265.21 254.47"><path d="M88.41 66.9v-5.67c0-11.8.27-23.6-.07-35.39-.4-13.9 10.59-23.49 21.27-25.3a36.48 36.48 0 015.81-.52h123.56c12.51 0 22.28 7 25.44 18.28a23.73 23.73 0 01.76 6.23q.06 53 0 106a24.88 24.88 0 01-24.17 24.7c-3 .08-6 0-9.25 0-.58 3.91-1.15 7.68-1.7 11.45-.66 4.53-1.28 9.07-2 13.6-.52 3.46-1.92 5-4.9 5.62-2.78.54-4.51-.38-6.39-3.43-5.25-8.5-10.52-17-15.72-25.52a3 3 0 00-3-1.72c-7 .1-14 0-21.26 0v2.54c0 13.38-.29 26.76.08 40.13.35 12.75-9.23 22.32-21.41 24a47.36 47.36 0 01-6.52.39H68.22a3.51 3.51 0 00-3.52 2c-5.28 8.92-10.66 17.78-16.06 26.63-2.35 3.86-6.12 4.66-9 1.8a7 7 0 01-1.78-3.73c-1.25-8.21-2.35-16.47-3.53-24.76-.08-.58-.22-1.15-.33-1.73-4.15-.19-8.22-.12-12.22-.62a25 25 0 01-18.17-10.8 19 19 0 01-3.53-11c0-36.07-.11-72.15 0-108.22.05-12.45 11.87-25.09 26.71-25 19.54.12 39.08 0 58.62 0zM46.73 231.63h.55c3.21-5.25 6.57-10.4 9.57-15.77 1.82-3.27 4.31-4.36 7.9-4.35 28.11.08 56.22 0 84.33 0 1.27 0 2.56 0 3.83-.11 6.4-.54 13.78-5.16 13.22-14.43-.38-6.29-.07-12.62-.07-18.93V93.93c0-4.14-1.32-7.52-4.52-10.07-3.44-2.75-7.47-3.6-11.82-3.6q-61.11.06-122.21 0c-1.06 0-2.11 0-3.16.1-8.6.78-13.6 6.23-13.6 14.77q0 51.3-.05 102.6a12.23 12.23 0 006 11.08 17.42 17.42 0 009.63 2.66h11.73c4.08 0 6 1.8 6.59 5.84.71 4.86 1.41 9.59 2.08 14.32zm172.24-67.57c.72-4.82 1.39-9.1 2-13.38.65-4.66 2-6 6.69-6 3.68-.06 7.36-.1 11 0a15.44 15.44 0 0015.91-16c-.46-21.11-.14-42.23-.14-63.35 0-13.45.07-26.9-.07-40.35a14.57 14.57 0 00-1.63-6.63c-3.16-5.71-8.48-7.64-14.78-7.63H116.43a35 35 0 00-3.82.23c-6.63.74-13.78 6.79-13.55 14.86.36 12.85.09 25.7.09 38.55v2.56h3c16 0 32 .14 48 0 15.16-.17 27 13.09 26.72 26.81-.33 16-.07 32-.07 48v2.92h2.85c7.59 0 15.18.05 22.77 0 3 0 5.11.95 6.63 3.68 2 3.61 4.35 7 6.55 10.52 1.01 1.57 2.08 3.19 3.37 5.21z"/></svg>