<svg data-name="Calque 1" xmlns="http://www.w3.org/2000/svg" viewBox="0 0 219.91 267.41"><path d="M29.69 113.05c0-5.52-.08-10.59 0-15.66.18-8.74-.14-17.55.86-26.2 2.8-24.14 14.57-43.37 34.4-57.03C84.37.79 106.08-3.27 129.06 2.64c28.95 7.41 47.7 26.13 57.33 54.11 2.89 8.39 3.79 17.22 3.82 26.1s0 17.83 0 26.75v3.45h7.56c3.77 0 7.45.38 10.88 2.24 7.45 4 11.17 10.36 11.19 18.69q.12 56.25 0 112.49c0 12.19-8.92 20.89-21.11 20.91q-69 .07-138 0c-4.17 0-7.34-1.47-9-5.35-1.57-3.57-1-7 1.84-9.62 1.43-1.3 3.54-2 5.45-2.62a11.12 11.12 0 013.47-.11h134.46c4.72 0 5.08-.36 5.08-5.11v-109c0-4.53-.27-4.8-4.82-4.8H22.72c-4.58 0-4.85.26-4.85 4.77v109.51c0 4.08.54 4.62 4.56 4.64 2.75 0 5.5-.07 8.25.06a8.78 8.78 0 010 17.53c-4.82.07-9.77.43-14.45-.46C6.56 265.05.08 256.65.06 246.45q-.12-56.25 0-112.5c0-12.38 8.74-20.71 21.31-20.93 2.65-.04 5.3.03 8.32.03zm18-.18h124.67c0-2.39.05-4.62 0-6.85-.27-11.48.23-23-1-34.42-2-18.4-11.55-32.89-26.86-43.13a61.66 61.66 0 00-73.41 3.28c-14.3 11.39-22.14 26.49-23.14 44.76-.6 11.55-.31 23.14-.42 34.72.02.49.11.97.17 1.61z"/><path d="M101.03 215.45c0-2.33-.09-4.67 0-7 .09-1.57-.49-2.28-1.94-2.92a26.61 26.61 0 1136-15.38 26 26 0 01-14.14 15.31 3 3 0 00-2.07 3.35c.1 4.74.12 9.5 0 14.24-.12 3.93-2 6.92-5.76 8.28-3.46 1.26-7 .82-9.34-2.14a15.16 15.16 0 01-2.6-6.51c-.48-2.34-.14-4.81-.15-7.23zm8.92-25.29a8.89 8.89 0 10-8.87-8.83 8.84 8.84 0 008.87 8.83z"/></svg>