<?xml version="1.0" standalone="no"?>
<!DOCTYPE svg PUBLIC "-//W3C//DTD SVG 20010904//EN"
 "http://www.w3.org/TR/2001/REC-SVG-20010904/DTD/svg10.dtd">
<svg version="1.0" xmlns="http://www.w3.org/2000/svg"
 width="256.000000pt" height="256.000000pt" viewBox="0 0 256.000000 256.000000"
 preserveAspectRatio="xMidYMid meet">
<metadata>
Created by potrace 1.14, written by Peter Selinger 2001-2017
</metadata>
<g transform="translate(0.000000,256.000000) scale(0.100000,-0.100000)"
fill="#000000" stroke="none">
<path d="M1918 1925 c-1 -1 -26 -5 -53 -9 -219 -26 -401 -189 -459 -412 -13
-48 -15 -201 -4 -244 67 -254 263 -417 514 -425 124 -4 212 19 309 80 239 152
322 446 199 703 -77 161 -247 281 -422 298 -31 3 -62 7 -69 9 -6 2 -13 2 -15
0z"/>
<path d="M1109 1833 c-61 -54 -88 -86 -132 -157 -143 -233 -114 -553 70 -755
30 -34 81 -79 112 -100 56 -38 162 -91 182 -91 6 0 -13 26 -42 58 -109 119
-185 263 -228 435 -15 61 -19 105 -16 210 1 73 5 146 9 162 14 65 49 171 72
218 13 28 22 52 20 55 -2 2 -24 -14 -47 -35z"/>
<path d="M695 1727 c-86 -63 -162 -174 -205 -297 -17 -49 -23 -250 -9 -308 18
-72 72 -181 118 -239 50 -62 144 -135 218 -168 81 -37 91 -31 38 23 -90 90
-155 208 -202 362 -23 74 -26 103 -26 225 0 156 18 246 73 363 16 34 28 62 27
62 -1 0 -15 -11 -32 -23z"/>
<path d="M255 1579 c-71 -67 -114 -135 -147 -234 -25 -71 -27 -91 -24 -185 2
-58 11 -128 20 -155 32 -104 121 -223 214 -287 45 -31 152 -82 158 -75 2 2 -9
17 -24 33 -113 118 -198 288 -220 439 -12 83 -5 245 13 315 9 36 30 95 45 133
16 37 27 67 24 67 -3 0 -30 -23 -59 -51z"/>
</g>
</svg>
