<svg id="Calque_1" data-name="Calque 1" xmlns="http://www.w3.org/2000/svg" width="373.66" height="149.16" viewBox="0 0 373.66 149.16"><defs><style>.cls-1{fill:#1a2237;}.cls-2{fill:#0984e3;}</style></defs><path class="cls-1" d="M65,58a35.5,35.5,0,0,1-2.11,12.6,27.63,27.63,0,0,1-6,9.59,25.89,25.89,0,0,1-9.29,6.09,33.33,33.33,0,0,1-12.18,2.11,33.33,33.33,0,0,1-12.18-2.11,26.2,26.2,0,0,1-9.29-6,26.91,26.91,0,0,1-6-9.53A36.09,36.09,0,0,1,5.94,58,35.74,35.74,0,0,1,8.05,45.43,26,26,0,0,1,23.43,29.88a33,33,0,0,1,12.06-2.11,33,33,0,0,1,12.06,2.11A26.32,26.32,0,0,1,56.9,36a27.18,27.18,0,0,1,6,9.59A35.2,35.2,0,0,1,65,58ZM35.49,39.83a12.33,12.33,0,0,0-10.25,4.76Q21.51,49.36,21.5,58t3.68,13.51q3.67,4.7,10.31,4.7A12.29,12.29,0,0,0,45.8,71.49Q49.49,66.72,49.48,58T45.74,44.59A12.33,12.33,0,0,0,35.49,39.83Z" transform="translate(-5.91 -7.82)"/><path class="cls-2" d="M130.3,66.22q2.34,5.93,7.2,8.2A21.57,21.57,0,0,0,149.07,76a28.08,28.08,0,0,0,9.13-2.5,35.38,35.38,0,0,0,6.55-3.92,7.84,7.84,0,0,1,3,2.33,6.65,6.65,0,0,1,1.47,3.49,6.32,6.32,0,0,1-1.16,4.43A13.26,13.26,0,0,1,164,83.43a27.47,27.47,0,0,1-6.44,2.76,44.82,44.82,0,0,1-8.19,1.62,41.2,41.2,0,0,1-13.1-.53,26.3,26.3,0,0,1-10.58-4.74,27,27,0,0,1-7.52-9,35.55,35.55,0,0,1-3.79-13.17,33.93,33.93,0,0,1,.87-13.2,26.74,26.74,0,0,1,5.18-9.9,24.91,24.91,0,0,1,8.46-6.5,33.18,33.18,0,0,1,10.71-3,30.7,30.7,0,0,1,11,.69,25.15,25.15,0,0,1,8.95,4.25,23.73,23.73,0,0,1,6.31,7.33,25.31,25.31,0,0,1,3.06,9.79,6.74,6.74,0,0,1-1.19,5.23,8.75,8.75,0,0,1-4.62,2.68Zm10.55-27a13.47,13.47,0,0,0-9.41,5q-3.54,4.32-3.24,11.57l26.19-6.84a13.51,13.51,0,0,0-4.31-7.36Q146.72,38.6,140.85,39.24Z" transform="translate(-5.91 -7.82)"/><path class="cls-1" d="M191.59,74.66a11.17,11.17,0,0,0,6.58,1.69,18.78,18.78,0,0,0,4.16-.48,22.63,22.63,0,0,0,3.8-1.21A8.69,8.69,0,0,1,207.76,77a7.38,7.38,0,0,1,.66,3.2,7.11,7.11,0,0,1-3.26,6q-3.25,2.35-10.49,2.35-9.53,0-15-4.28t-5.49-14.17V14.72c.65-.16,1.59-.37,2.84-.61a21.3,21.3,0,0,1,4-.36c2.81,0,4.88.53,6.21,1.57s2,2.9,2,5.55v10H207a11.31,11.31,0,0,1,1.09,2.53,11.51,11.51,0,0,1,.48,3.38q0,3.14-1.45,4.58a5.23,5.23,0,0,1-3.86,1.45h-14V69.11C189.24,71.69,190,73.53,191.59,74.66Z" transform="translate(-5.91 -7.82)"/><path class="cls-1" d="M227.3,74.66a11.17,11.17,0,0,0,6.58,1.69,18.78,18.78,0,0,0,4.16-.48,22.63,22.63,0,0,0,3.8-1.21A8.69,8.69,0,0,1,243.47,77a7.38,7.38,0,0,1,.66,3.2,7.11,7.11,0,0,1-3.26,6q-3.26,2.35-10.49,2.35-9.52,0-15-4.28t-5.49-14.17V14.72c.65-.16,1.59-.37,2.84-.61a21.3,21.3,0,0,1,4-.36c2.81,0,4.88.53,6.21,1.57s2,2.9,2,5.55v10h17.73a11.31,11.31,0,0,1,1.09,2.53,11.51,11.51,0,0,1,.48,3.38q0,3.14-1.45,4.58a5.23,5.23,0,0,1-3.86,1.45H225V69.11C225,71.69,225.74,73.53,227.3,74.66Z" transform="translate(-5.91 -7.82)"/><path class="cls-2" d="M123.33,76.09a7.57,7.57,0,0,1-1.2,4.46,13.3,13.3,0,0,1-3.62,3.25,35.11,35.11,0,0,1-8,3.56A36.56,36.56,0,0,1,99.09,89q-14.48,0-23-7.42T67.61,58.84a36.76,36.76,0,0,1,2.3-13.69,26.2,26.2,0,0,1,6.21-9.47,24.78,24.78,0,0,1,9.22-5.55,35.47,35.47,0,0,1,11.46-1.8A27.61,27.61,0,0,1,103,29a30.81,30.81,0,0,1,5.19,1.63V8.79A15.6,15.6,0,0,1,111,8.12a25.63,25.63,0,0,1,4-.3q4.35,0,6.34,1.57c1.32,1,2,2.89,2,5.55ZM108.14,42.92a18.58,18.58,0,0,0-9.41-2.54,15.44,15.44,0,0,0-11.22,4.35Q83.06,49.07,83.05,59q0,9.29,4.28,13.57T99,76.81a17.63,17.63,0,0,0,5.37-.72,18.24,18.24,0,0,0,3.8-1.69Z" transform="translate(-5.91 -7.82)"/><path class="cls-1" d="M258.84,67q2.34,5.92,7.19,8.2a21.58,21.58,0,0,0,11.57,1.54,28,28,0,0,0,9.13-2.51,33.69,33.69,0,0,0,6.55-3.92,8,8,0,0,1,3.05,2.34,6.58,6.58,0,0,1,1.47,3.48,6.37,6.37,0,0,1-1.16,4.43,13.33,13.33,0,0,1-4.1,3.66,27.81,27.81,0,0,1-6.43,2.75,44.93,44.93,0,0,1-8.2,1.62A41.15,41.15,0,0,1,264.82,88a26.33,26.33,0,0,1-10.59-4.73,27.21,27.21,0,0,1-7.52-9,36,36,0,0,1-3.79-13.18A34.13,34.13,0,0,1,243.8,48a26.59,26.59,0,0,1,5.18-9.9,24.85,24.85,0,0,1,8.45-6.49,32.75,32.75,0,0,1,10.72-3,30.2,30.2,0,0,1,11,.69,24.89,24.89,0,0,1,8.95,4.24,23.76,23.76,0,0,1,6.32,7.33,25.31,25.31,0,0,1,3.06,9.8,6.72,6.72,0,0,1-1.2,5.22,8.65,8.65,0,0,1-4.62,2.68Zm10.54-27a13.49,13.49,0,0,0-9.41,5q-3.54,4.32-3.24,11.57l26.2-6.84a13.47,13.47,0,0,0-4.32-7.36Q275.25,39.33,269.38,40Z" transform="translate(-5.91 -7.82)"/><path class="cls-1" d="M8.06,153a5.75,5.75,0,0,1-2.15-1.18l.69-1.45a5.79,5.79,0,0,0,1.9,1.09,7.05,7.05,0,0,0,2.4.42,4.37,4.37,0,0,0,2.42-.55,1.72,1.72,0,0,0,.8-1.47,1.42,1.42,0,0,0-.44-1.08,2.92,2.92,0,0,0-1.08-.65c-.43-.15-1-.31-1.81-.5a18.23,18.23,0,0,1-2.38-.71,3.81,3.81,0,0,1-1.54-1.09,2.9,2.9,0,0,1-.65-2,3.42,3.42,0,0,1,.55-1.88,3.73,3.73,0,0,1,1.67-1.34,6.66,6.66,0,0,1,2.77-.5,9.12,9.12,0,0,1,2.27.29,6.05,6.05,0,0,1,1.92.86l-.61,1.49a6.72,6.72,0,0,0-1.75-.79,6.54,6.54,0,0,0-1.83-.27,4,4,0,0,0-2.37.58,1.75,1.75,0,0,0-.79,1.49,1.46,1.46,0,0,0,.44,1.09,3.36,3.36,0,0,0,1.11.65,17.64,17.64,0,0,0,1.8.49,17.81,17.81,0,0,1,2.36.71,3.86,3.86,0,0,1,1.54,1.08,2.81,2.81,0,0,1,.64,1.95,3.24,3.24,0,0,1-.56,1.87,3.61,3.61,0,0,1-1.69,1.34,7,7,0,0,1-2.79.5A8.76,8.76,0,0,1,8.06,153Z" transform="translate(-5.91 -7.82)"/><path class="cls-1" d="M20.26,152.72a4.66,4.66,0,0,1-1.83-1.8,5.43,5.43,0,0,1,0-5.19,4.63,4.63,0,0,1,1.83-1.79,5.41,5.41,0,0,1,2.65-.64,5.31,5.31,0,0,1,2.63.64,4.7,4.7,0,0,1,1.83,1.79,5.43,5.43,0,0,1,0,5.19,4.72,4.72,0,0,1-1.83,1.8,5.31,5.31,0,0,1-2.63.65A5.42,5.42,0,0,1,20.26,152.72Zm4.35-1.35a3,3,0,0,0,1.18-1.23,4,4,0,0,0,0-3.63,3,3,0,0,0-1.18-1.22,3.33,3.33,0,0,0-1.7-.43,3.37,3.37,0,0,0-1.71.43A3.1,3.1,0,0,0,20,146.51a4,4,0,0,0,0,3.63,3.13,3.13,0,0,0,1.19,1.23,3.37,3.37,0,0,0,1.71.44A3.34,3.34,0,0,0,24.61,151.37Z" transform="translate(-5.91 -7.82)"/><path class="cls-1" d="M30.78,139.44h1.79v13.82H30.78Z" transform="translate(-5.91 -7.82)"/><path class="cls-1" d="M45.45,143.39v9.87H43.76v-1.49A3.57,3.57,0,0,1,42.34,153a4.46,4.46,0,0,1-1.93.42,4.29,4.29,0,0,1-3.11-1.09,4.23,4.23,0,0,1-1.14-3.21v-5.68H38v5.47a3.06,3.06,0,0,0,.69,2.17,2.54,2.54,0,0,0,2,.74,3,3,0,0,0,2.24-.86,3.37,3.37,0,0,0,.82-2.42v-5.1Z" transform="translate(-5.91 -7.82)"/><path class="cls-1" d="M54.69,152.68a2.43,2.43,0,0,1-1,.51,3.94,3.94,0,0,1-1.19.18,3.19,3.19,0,0,1-2.31-.8,3.08,3.08,0,0,1-.82-2.29v-5.42H47.73v-1.47H49.4v-2.16h1.79v2.16H54v1.47H51.19v5.35a1.69,1.69,0,0,0,.4,1.22,1.49,1.49,0,0,0,1.15.43,2.14,2.14,0,0,0,1.39-.46Z" transform="translate(-5.91 -7.82)"/><path class="cls-1" d="M57.16,141.16a1.15,1.15,0,0,1,0-1.65,1.18,1.18,0,0,1,.86-.35,1.21,1.21,0,0,1,.87.33,1.07,1.07,0,0,1,.34.81,1.16,1.16,0,0,1-.34.85,1.18,1.18,0,0,1-.87.34A1.2,1.2,0,0,1,57.16,141.16Zm0,2.23h1.79v9.87H57.13Z" transform="translate(-5.91 -7.82)"/><path class="cls-1" d="M64.19,152.72a4.62,4.62,0,0,1-1.84-1.8,5.43,5.43,0,0,1,0-5.19,4.59,4.59,0,0,1,1.84-1.79,5.76,5.76,0,0,1,5.28,0,4.67,4.67,0,0,1,1.82,1.79,5.43,5.43,0,0,1,0,5.19,4.7,4.7,0,0,1-1.82,1.8,5.69,5.69,0,0,1-5.28,0Zm4.34-1.35a3.06,3.06,0,0,0,1.19-1.23,4.13,4.13,0,0,0,0-3.63,3,3,0,0,0-1.19-1.22,3.58,3.58,0,0,0-3.4,0,3.13,3.13,0,0,0-1.2,1.22,4,4,0,0,0,0,3.63,3.16,3.16,0,0,0,1.2,1.23,3.5,3.5,0,0,0,3.4,0Z" transform="translate(-5.91 -7.82)"/><path class="cls-1" d="M83,144.39a4.27,4.27,0,0,1,1.11,3.19v5.68H82.28v-5.47a3.06,3.06,0,0,0-.68-2.16,2.58,2.58,0,0,0-2-.73,3.06,3.06,0,0,0-2.29.85,3.29,3.29,0,0,0-.84,2.43v5.08H74.71v-9.87h1.71v1.49a3.46,3.46,0,0,1,1.46-1.17,5,5,0,0,1,2.1-.41A4,4,0,0,1,83,144.39Z" transform="translate(-5.91 -7.82)"/><path class="cls-1" d="M88.17,153a5,5,0,0,1-1.75-.82l.74-1.42a5.46,5.46,0,0,0,1.59.75,6.69,6.69,0,0,0,1.88.28q2.34,0,2.34-1.35a.86.86,0,0,0-.31-.7,2,2,0,0,0-.8-.38,11.44,11.44,0,0,0-1.34-.27,14,14,0,0,1-2-.43,3.07,3.07,0,0,1-1.3-.82,2.29,2.29,0,0,1-.53-1.62,2.53,2.53,0,0,1,1.11-2.15,5,5,0,0,1,3-.81,8.23,8.23,0,0,1,2,.24,5.31,5.31,0,0,1,1.62.65l-.76,1.42a5.08,5.08,0,0,0-2.85-.79,3.26,3.26,0,0,0-1.73.38,1.11,1.11,0,0,0-.6,1,1,1,0,0,0,.34.77,2.23,2.23,0,0,0,.83.41c.33.08.79.18,1.38.29a16.41,16.41,0,0,1,1.93.44,3,3,0,0,1,1.26.79,2.22,2.22,0,0,1,.52,1.57,2.46,2.46,0,0,1-1.15,2.13,5.36,5.36,0,0,1-3.11.79A8.15,8.15,0,0,1,88.17,153Z" transform="translate(-5.91 -7.82)"/><path class="cls-1" d="M104.14,152.72a4.66,4.66,0,0,1-1.83-1.8,5.43,5.43,0,0,1,0-5.19,4.63,4.63,0,0,1,1.83-1.79,5.44,5.44,0,0,1,2.65-.64,5.31,5.31,0,0,1,2.63.64,4.63,4.63,0,0,1,1.83,1.79,5.43,5.43,0,0,1,0,5.19,4.66,4.66,0,0,1-1.83,1.8,5.31,5.31,0,0,1-2.63.65A5.45,5.45,0,0,1,104.14,152.72Zm4.35-1.35a3,3,0,0,0,1.18-1.23,4,4,0,0,0,0-3.63,3,3,0,0,0-1.18-1.22,3.33,3.33,0,0,0-1.7-.43,3.39,3.39,0,0,0-1.71.43,3.1,3.1,0,0,0-1.19,1.22,4,4,0,0,0,0,3.63,3.13,3.13,0,0,0,1.19,1.23,3.4,3.4,0,0,0,1.71.44A3.34,3.34,0,0,0,108.49,151.37Z" transform="translate(-5.91 -7.82)"/><path class="cls-1" d="M117.76,143.74a5.06,5.06,0,0,1,2.21-.44V145l-.41,0a3,3,0,0,0-2.28.87,3.42,3.42,0,0,0-.83,2.46v4.92h-1.79v-9.87h1.72v1.66A3.07,3.07,0,0,1,117.76,143.74Z" transform="translate(-5.91 -7.82)"/><path class="cls-1" d="M131.8,143.39v8.53a5.11,5.11,0,0,1-1.29,3.83,5.34,5.34,0,0,1-3.83,1.23,9,9,0,0,1-2.67-.38,5.34,5.34,0,0,1-2.05-1.09l.86-1.38a4.9,4.9,0,0,0,1.7.94,6.52,6.52,0,0,0,2.1.35,3.5,3.5,0,0,0,2.56-.82,3.39,3.39,0,0,0,.83-2.5v-.78a4,4,0,0,1-1.56,1.15,5.24,5.24,0,0,1-2,.38,5.35,5.35,0,0,1-2.56-.61,4.51,4.51,0,0,1-1.8-1.69,5.08,5.08,0,0,1,0-5,4.51,4.51,0,0,1,1.8-1.69,5.58,5.58,0,0,1,2.56-.59,5.12,5.12,0,0,1,2.08.41,3.76,3.76,0,0,1,1.57,1.21v-1.53Zm-3.4,7.49a3.11,3.11,0,0,0,1.21-1.15,3.2,3.2,0,0,0,.44-1.67,3,3,0,0,0-1-2.31,3.82,3.82,0,0,0-4.9,0,3,3,0,0,0-1,2.31,3.11,3.11,0,0,0,.44,1.67,3,3,0,0,0,1.21,1.15,3.94,3.94,0,0,0,3.5,0Z" transform="translate(-5.91 -7.82)"/><path class="cls-1" d="M142.21,144.3a3.87,3.87,0,0,1,1.09,3v6h-1.69V152a2.84,2.84,0,0,1-1.28,1,4.9,4.9,0,0,1-2,.36,4.15,4.15,0,0,1-2.66-.8,2.56,2.56,0,0,1-1-2.1,2.61,2.61,0,0,1,.95-2.1,4.65,4.65,0,0,1,3-.79h2.83v-.35a2.27,2.27,0,0,0-.67-1.77,2.8,2.8,0,0,0-2-.62,5.29,5.29,0,0,0-1.71.29,4.48,4.48,0,0,0-1.42.77l-.74-1.34a5.41,5.41,0,0,1,1.82-.94,7.91,7.91,0,0,1,2.26-.32A4.44,4.44,0,0,1,142.21,144.3Zm-1.78,7.24a2.61,2.61,0,0,0,1.08-1.3v-1.38h-2.75c-1.52,0-2.27.51-2.27,1.53a1.4,1.4,0,0,0,.57,1.18,2.7,2.7,0,0,0,1.61.42A3.31,3.31,0,0,0,140.43,151.54Z" transform="translate(-5.91 -7.82)"/><path class="cls-1" d="M155.15,144.39a4.27,4.27,0,0,1,1.11,3.19v5.68h-1.79v-5.47a3.06,3.06,0,0,0-.68-2.16,2.58,2.58,0,0,0-2-.73,3.06,3.06,0,0,0-2.29.85,3.29,3.29,0,0,0-.84,2.43v5.08H146.9v-9.87h1.71v1.49a3.46,3.46,0,0,1,1.46-1.17,5,5,0,0,1,2.09-.41A4,4,0,0,1,155.15,144.39Z" transform="translate(-5.91 -7.82)"/><path class="cls-1" d="M159.88,141.16a1.17,1.17,0,0,1,0-1.65,1.18,1.18,0,0,1,.87-.35,1.22,1.22,0,0,1,.87.33,1.11,1.11,0,0,1,.34.81,1.24,1.24,0,0,1-2.08.86Zm0,2.23h1.78v9.87h-1.78Z" transform="translate(-5.91 -7.82)"/><path class="cls-1" d="M165.83,153a5.1,5.1,0,0,1-1.75-.82l.75-1.42a5.39,5.39,0,0,0,1.58.75,6.74,6.74,0,0,0,1.88.28c1.56,0,2.35-.45,2.35-1.35a.86.86,0,0,0-.32-.7,1.94,1.94,0,0,0-.79-.38,12.16,12.16,0,0,0-1.35-.27,14,14,0,0,1-2-.43,3,3,0,0,1-1.29-.82,2.3,2.3,0,0,1-.54-1.62,2.53,2.53,0,0,1,1.11-2.15,5,5,0,0,1,3-.81,8.38,8.38,0,0,1,2,.24,5.53,5.53,0,0,1,1.62.65l-.77,1.42a5,5,0,0,0-2.85-.79,3.29,3.29,0,0,0-1.73.38,1.1,1.1,0,0,0-.59,1,1,1,0,0,0,.33.77,2.31,2.31,0,0,0,.83.41c.33.08.79.18,1.39.29a16.66,16.66,0,0,1,1.92.44,2.91,2.91,0,0,1,1.26.79,2.22,2.22,0,0,1,.52,1.57,2.47,2.47,0,0,1-1.14,2.13,5.42,5.42,0,0,1-3.12.79A8.2,8.2,0,0,1,165.83,153Z" transform="translate(-5.91 -7.82)"/><path class="cls-1" d="M181.67,144.3a3.91,3.91,0,0,1,1.09,3v6h-1.7V152a2.81,2.81,0,0,1-1.27,1,5,5,0,0,1-2,.36,4.12,4.12,0,0,1-2.65-.8,2.57,2.57,0,0,1-1-2.1,2.61,2.61,0,0,1,1-2.1,4.69,4.69,0,0,1,3-.79H181v-.35a2.27,2.27,0,0,0-.67-1.77,2.84,2.84,0,0,0-2-.62,5.31,5.31,0,0,0-1.72.29,4.32,4.32,0,0,0-1.41.77l-.75-1.34a5.46,5.46,0,0,1,1.83-.94,7.84,7.84,0,0,1,2.25-.32A4.47,4.47,0,0,1,181.67,144.3Zm-1.78,7.24a2.61,2.61,0,0,0,1.08-1.3v-1.38h-2.76c-1.51,0-2.27.51-2.27,1.53a1.38,1.38,0,0,0,.58,1.18,2.67,2.67,0,0,0,1.6.42A3.38,3.38,0,0,0,179.89,151.54Z" transform="translate(-5.91 -7.82)"/><path class="cls-1" d="M191.9,152.68a2.43,2.43,0,0,1-1,.51,3.94,3.94,0,0,1-1.19.18,3.19,3.19,0,0,1-2.31-.8,3,3,0,0,1-.82-2.29v-5.42h-1.67v-1.47h1.67v-2.16h1.79v2.16h2.83v1.47H188.4v5.35a1.69,1.69,0,0,0,.4,1.22,1.48,1.48,0,0,0,1.14.43,2.15,2.15,0,0,0,1.4-.46Z" transform="translate(-5.91 -7.82)"/><path class="cls-1" d="M194.37,141.16a1.15,1.15,0,0,1,0-1.65,1.16,1.16,0,0,1,.86-.35,1.21,1.21,0,0,1,.87.33,1.07,1.07,0,0,1,.34.81,1.16,1.16,0,0,1-.34.85,1.28,1.28,0,0,1-1.73,0Zm0,2.23h1.79v9.87h-1.79Z" transform="translate(-5.91 -7.82)"/><path class="cls-1" d="M201.39,152.72a4.66,4.66,0,0,1-1.83-1.8,5.43,5.43,0,0,1,0-5.19,4.63,4.63,0,0,1,1.83-1.79,5.44,5.44,0,0,1,2.65-.64,5.31,5.31,0,0,1,2.63.64,4.63,4.63,0,0,1,1.83,1.79,5.43,5.43,0,0,1,0,5.19,4.66,4.66,0,0,1-1.83,1.8,5.31,5.31,0,0,1-2.63.65A5.45,5.45,0,0,1,201.39,152.72Zm4.35-1.35a3,3,0,0,0,1.18-1.23,4,4,0,0,0,0-3.63,3,3,0,0,0-1.18-1.22,3.33,3.33,0,0,0-1.7-.43,3.39,3.39,0,0,0-1.71.43,3.1,3.1,0,0,0-1.19,1.22,4,4,0,0,0,0,3.63,3.13,3.13,0,0,0,1.19,1.23,3.4,3.4,0,0,0,1.71.44A3.34,3.34,0,0,0,205.74,151.37Z" transform="translate(-5.91 -7.82)"/><path class="cls-1" d="M220.17,144.39a4.27,4.27,0,0,1,1.11,3.19v5.68h-1.79v-5.47a3,3,0,0,0-.69-2.16,2.56,2.56,0,0,0-2-.73,3.06,3.06,0,0,0-2.29.85,3.29,3.29,0,0,0-.84,2.43v5.08h-1.79v-9.87h1.72v1.49a3.46,3.46,0,0,1,1.46-1.17,5,5,0,0,1,2.09-.41A4.06,4.06,0,0,1,220.17,144.39Z" transform="translate(-5.91 -7.82)"/><path class="cls-1" d="M233.13,144.39a4.27,4.27,0,0,1,1.11,3.19v5.68h-1.79v-5.47a3,3,0,0,0-.69-2.16,2.56,2.56,0,0,0-2-.73,3.06,3.06,0,0,0-2.29.85,3.29,3.29,0,0,0-.84,2.43v5.08h-1.79v-9.87h1.72v1.49a3.46,3.46,0,0,1,1.46-1.17,5,5,0,0,1,2.09-.41A4.06,4.06,0,0,1,233.13,144.39Z" transform="translate(-5.91 -7.82)"/><path class="cls-1" d="M246.77,148.92h-8a3.11,3.11,0,0,0,1.14,2.1,3.77,3.77,0,0,0,2.43.79,3.68,3.68,0,0,0,2.85-1.19l1,1.15a4.37,4.37,0,0,1-1.67,1.19,5.87,5.87,0,0,1-2.23.41,5.81,5.81,0,0,1-2.77-.64,4.57,4.57,0,0,1-1.87-1.8,5.51,5.51,0,0,1,0-5.19,4.64,4.64,0,0,1,1.77-1.8,5,5,0,0,1,2.54-.64,4.92,4.92,0,0,1,2.52.64,4.57,4.57,0,0,1,1.74,1.8,5.53,5.53,0,0,1,.62,2.64A4,4,0,0,1,246.77,148.92Zm-7-3.33a3.08,3.08,0,0,0-1,2h6.33a3.16,3.16,0,0,0-1-2,3.05,3.05,0,0,0-2.15-.79A3.09,3.09,0,0,0,239.78,145.59Z" transform="translate(-5.91 -7.82)"/><path class="cls-1" d="M249.56,139.44h1.79v13.82h-1.79Z" transform="translate(-5.91 -7.82)"/><path class="cls-1" d="M255,139.44h1.79v13.82H255Z" transform="translate(-5.91 -7.82)"/><path class="cls-1" d="M269.39,148.92h-8a3.11,3.11,0,0,0,1.14,2.1,3.77,3.77,0,0,0,2.43.79,3.68,3.68,0,0,0,2.85-1.19l1,1.15a4.29,4.29,0,0,1-1.67,1.19,6.29,6.29,0,0,1-5-.23,4.63,4.63,0,0,1-1.87-1.8,5.51,5.51,0,0,1,0-5.19,4.64,4.64,0,0,1,1.77-1.8,5,5,0,0,1,2.54-.64,4.93,4.93,0,0,1,2.53.64,4.61,4.61,0,0,1,1.73,1.8,5.53,5.53,0,0,1,.62,2.64A4,4,0,0,1,269.39,148.92Zm-7-3.33a3.17,3.17,0,0,0-1,2h6.33a3.16,3.16,0,0,0-1-2,3,3,0,0,0-2.15-.79A3.11,3.11,0,0,0,262.4,145.59Z" transform="translate(-5.91 -7.82)"/><path class="cls-1" d="M272.69,153a5,5,0,0,1-1.75-.82l.74-1.42a5.58,5.58,0,0,0,1.59.75,6.69,6.69,0,0,0,1.88.28q2.34,0,2.34-1.35a.86.86,0,0,0-.31-.7,1.94,1.94,0,0,0-.79-.38,12.16,12.16,0,0,0-1.35-.27,14,14,0,0,1-2-.43,3,3,0,0,1-1.29-.82,2.3,2.3,0,0,1-.54-1.62,2.53,2.53,0,0,1,1.11-2.15,5,5,0,0,1,3-.81,8.23,8.23,0,0,1,2,.24,5.31,5.31,0,0,1,1.62.65l-.76,1.42a5.08,5.08,0,0,0-2.85-.79,3.26,3.26,0,0,0-1.73.38,1.11,1.11,0,0,0-.6,1,1,1,0,0,0,.34.77,2.23,2.23,0,0,0,.83.41c.33.08.79.18,1.39.29a16.66,16.66,0,0,1,1.92.44,3,3,0,0,1,1.26.79,2.22,2.22,0,0,1,.52,1.57,2.47,2.47,0,0,1-1.14,2.13,5.42,5.42,0,0,1-3.12.79A8.15,8.15,0,0,1,272.69,153Z" transform="translate(-5.91 -7.82)"/><path class="cls-1" d="M294.88,143.93a4.52,4.52,0,0,1,1.78,1.77,5.65,5.65,0,0,1,0,5.26,4.55,4.55,0,0,1-1.78,1.78,5.18,5.18,0,0,1-2.57.63,4.62,4.62,0,0,1-1.94-.41,4,4,0,0,1-1.5-1.19v5.1h-1.79V143.39h1.72V145a3.82,3.82,0,0,1,1.5-1.23,4.76,4.76,0,0,1,2-.42A5.18,5.18,0,0,1,294.88,143.93Zm-1,7.44a3.13,3.13,0,0,0,1.19-1.23,4,4,0,0,0,0-3.63,3.1,3.1,0,0,0-1.19-1.22,3.52,3.52,0,0,0-3.39,0,3.17,3.17,0,0,0-1.19,1.22,3.64,3.64,0,0,0-.44,1.8,3.71,3.71,0,0,0,.43,1.82,3.06,3.06,0,0,0,1.19,1.23,3.5,3.5,0,0,0,3.4,0Z" transform="translate(-5.91 -7.82)"/><path class="cls-1" d="M301.64,152.72a4.66,4.66,0,0,1-1.83-1.8,5.43,5.43,0,0,1,0-5.19,4.63,4.63,0,0,1,1.83-1.79,5.44,5.44,0,0,1,2.65-.64,5.31,5.31,0,0,1,2.63.64,4.63,4.63,0,0,1,1.83,1.79,5.43,5.43,0,0,1,0,5.19,4.66,4.66,0,0,1-1.83,1.8,5.31,5.31,0,0,1-2.63.65A5.45,5.45,0,0,1,301.64,152.72Zm4.35-1.35a3,3,0,0,0,1.18-1.23,4,4,0,0,0,0-3.63,3,3,0,0,0-1.18-1.22,3.33,3.33,0,0,0-1.7-.43,3.37,3.37,0,0,0-1.71.43,3.1,3.1,0,0,0-1.19,1.22,4,4,0,0,0,0,3.63,3.13,3.13,0,0,0,1.19,1.23,3.37,3.37,0,0,0,1.71.44A3.34,3.34,0,0,0,306,151.37Z" transform="translate(-5.91 -7.82)"/><path class="cls-1" d="M321.36,143.39v9.87h-1.69v-1.49a3.6,3.6,0,0,1-1.43,1.18,4.42,4.42,0,0,1-1.92.42,3.88,3.88,0,0,1-4.25-4.3v-5.68h1.79v5.47a3.06,3.06,0,0,0,.69,2.17,2.54,2.54,0,0,0,2,.74,3,3,0,0,0,2.24-.86,3.37,3.37,0,0,0,.82-2.42v-5.1Z" transform="translate(-5.91 -7.82)"/><path class="cls-1" d="M328.14,143.74a5.14,5.14,0,0,1,2.22-.44V145l-.41,0a3,3,0,0,0-2.29.87,3.42,3.42,0,0,0-.82,2.46v4.92h-1.79v-9.87h1.71v1.66A3.07,3.07,0,0,1,328.14,143.74Z" transform="translate(-5.91 -7.82)"/><path class="cls-1" d="M347.58,141.44a4.55,4.55,0,0,1,0,6.66,6,6,0,0,1-4,1.21h-3.23v3.95h-1.86v-13h5.09A6,6,0,0,1,347.58,141.44Zm-1.34,5.5a3,3,0,0,0,0-4.34,4.22,4.22,0,0,0-2.7-.75h-3.17v5.84h3.17A4.22,4.22,0,0,0,346.24,146.94Z" transform="translate(-5.91 -7.82)"/><path class="cls-1" d="M364.13,153.26l0-9.5-4.71,7.92h-.85l-4.71-7.86v9.44h-1.79v-13h1.52l5.44,9.16,5.36-9.16h1.53l0,13Z" transform="translate(-5.91 -7.82)"/><path class="cls-1" d="M379.57,151.64v1.62h-9.46v-13h9.2v1.62H372v4h6.54v1.58H372v4.21Z" transform="translate(-5.91 -7.82)"/><path class="cls-2" d="M299.59,84.6a3.76,3.76,0,0,1,1-2.66,4,4,0,0,1,5.39,0,4.07,4.07,0,0,1,0,5.32,3.93,3.93,0,0,1-5.39,0A3.75,3.75,0,0,1,299.59,84.6Z" transform="translate(-5.91 -7.82)"/><path class="cls-1" d="M316.69,88.25a7.74,7.74,0,0,1-5.15-1.52c-1.2-1-1.81-2.66-1.81-4.94V64.92c.28-.07.68-.16,1.2-.24a9.66,9.66,0,0,1,1.65-.14,4.44,4.44,0,0,1,2.7.65,2.87,2.87,0,0,1,.84,2.39v2.06h5a6.69,6.69,0,0,1,.43,1,4.36,4.36,0,0,1,.21,1.39,2.67,2.67,0,0,1-.59,1.92,2.14,2.14,0,0,1-1.57.59h-3.46v6.76a1.57,1.57,0,0,0,.62,1.4,3.17,3.17,0,0,0,1.77.42,8.12,8.12,0,0,0,1.18-.09,7.56,7.56,0,0,0,1.06-.25,4.45,4.45,0,0,1,.59.93,2.88,2.88,0,0,1,.25,1.24,2.92,2.92,0,0,1-1.09,2.35A6,6,0,0,1,316.69,88.25Z" transform="translate(-5.91 -7.82)"/><path class="cls-1" d="M329.67,81a3.22,3.22,0,0,0,1.78,1.92,6.84,6.84,0,0,0,2.81.55,11.56,11.56,0,0,0,3-.39,9.2,9.2,0,0,0,2.32-.94,3.28,3.28,0,0,1,1,1.07,2.73,2.73,0,0,1,.42,1.44,2.62,2.62,0,0,1-.53,1.64,4.16,4.16,0,0,1-1.5,1.14,8.69,8.69,0,0,1-2.3.66,18.81,18.81,0,0,1-2.92.21,13.3,13.3,0,0,1-4.17-.63,9.2,9.2,0,0,1-3.32-1.88,8.55,8.55,0,0,1-2.2-3.15,11.43,11.43,0,0,1-.8-4.44,10.31,10.31,0,0,1,.82-4.32,8.32,8.32,0,0,1,2.16-3,8.71,8.71,0,0,1,3.06-1.71,11.23,11.23,0,0,1,3.5-.55,10.64,10.64,0,0,1,3.66.6,9,9,0,0,1,2.85,1.68,7.4,7.4,0,0,1,1.85,2.54,8.17,8.17,0,0,1,.64,3.23,2.61,2.61,0,0,1-.72,2,3.62,3.62,0,0,1-2,.87Zm3.22-7.63a3.46,3.46,0,0,0-2.41.87,3.84,3.84,0,0,0-1.16,2.47l6.46-1.06a2.22,2.22,0,0,0-.23-.78,2.51,2.51,0,0,0-1.41-1.29A3.34,3.34,0,0,0,332.89,73.36Z" transform="translate(-5.91 -7.82)"/><path class="cls-1" d="M354.33,73.74a5.46,5.46,0,0,0-1.81.3A4.23,4.23,0,0,0,351,75a4.65,4.65,0,0,0-1,1.51,5.26,5.26,0,0,0-.38,2.06A4.37,4.37,0,0,0,351,82a4.91,4.91,0,0,0,3.31,1.14,6.46,6.46,0,0,0,2-.28,13.14,13.14,0,0,0,1.52-.59,4,4,0,0,1,1.09,1.14,2.85,2.85,0,0,1,.36,1.48,2.78,2.78,0,0,1-1.5,2.43,8.28,8.28,0,0,1-4.28.91,14.06,14.06,0,0,1-4.31-.62,8.78,8.78,0,0,1-3.27-1.87,8.06,8.06,0,0,1-2.07-3,11.26,11.26,0,0,1-.72-4.2,10.67,10.67,0,0,1,.82-4.36,8.45,8.45,0,0,1,2.22-3.08,9.54,9.54,0,0,1,3.25-1.83,12.42,12.42,0,0,1,3.89-.6,7.57,7.57,0,0,1,4.22,1A3,3,0,0,1,359,72.18a2.76,2.76,0,0,1-.34,1.35,4.74,4.74,0,0,1-.8,1.08A14.49,14.49,0,0,0,356.3,74,6.56,6.56,0,0,0,354.33,73.74Z" transform="translate(-5.91 -7.82)"/><path class="cls-1" d="M378.37,87.87a11.1,11.1,0,0,1-1.69.12,4.63,4.63,0,0,1-2.74-.63,2.89,2.89,0,0,1-.83-2.41V76.51a2.65,2.65,0,0,0-.78-2.18,3,3,0,0,0-1.92-.63,4.56,4.56,0,0,0-1.38.19,6.13,6.13,0,0,0-1.17.49V87.65c-.28.07-.67.14-1.19.22A11.1,11.1,0,0,1,365,88a4.63,4.63,0,0,1-2.74-.63A2.86,2.86,0,0,1,361.4,85v-22a10.79,10.79,0,0,1,1.2-.23,12.63,12.63,0,0,1,1.69-.11,4.63,4.63,0,0,1,2.74.63,2.88,2.88,0,0,1,.83,2.41v3.76a10.47,10.47,0,0,1,1.71-.51,9.58,9.58,0,0,1,2.06-.21,8.35,8.35,0,0,1,5.84,1.88,7.13,7.13,0,0,1,2.1,5.6V87.65C379.29,87.72,378.89,87.79,378.37,87.87Z" transform="translate(-5.91 -7.82)"/><path class="cls-2" d="M71.33,102.2a4.09,4.09,0,0,1,1.41.24,3.25,3.25,0,0,1,1.15.74,3.66,3.66,0,0,1,.76,1.22,4.93,4.93,0,0,1,.27,1.7,4.51,4.51,0,0,1-.29,1.71,3.28,3.28,0,0,1-2.1,2,5.9,5.9,0,0,1-3.33,0,4.24,4.24,0,0,1-1.15-.55,1.36,1.36,0,0,1-.66-1.17V99.81l.44-.09a3.89,3.89,0,0,1,.62,0,1.68,1.68,0,0,1,1,.23,1.07,1.07,0,0,1,.3.88v1.75a4,4,0,0,1,.71-.23A3.49,3.49,0,0,1,71.33,102.2ZM70.89,104a1.81,1.81,0,0,0-.63.1,2.37,2.37,0,0,0-.53.26v3.52a1.51,1.51,0,0,0,.46.2,2.46,2.46,0,0,0,.64.07,1.55,1.55,0,0,0,1.23-.52,3,3,0,0,0,0-3.14A1.52,1.52,0,0,0,70.89,104Z" transform="translate(-5.91 -7.82)"/><path class="cls-2" d="M77.34,108q-.36-.77-.81-2a30.85,30.85,0,0,1-.94-3.2,1.43,1.43,0,0,1,.51-.35,1.72,1.72,0,0,1,.72-.15,1.42,1.42,0,0,1,.8.21,1.36,1.36,0,0,1,.47.76q.34,1.13.69,2.22c.23.72.46,1.46.7,2.2h.06c.12-.35.25-.73.38-1.15s.26-.85.39-1.29.23-.9.34-1.36.2-.89.29-1.33a2.07,2.07,0,0,1,1-.26,1.53,1.53,0,0,1,.84.22.76.76,0,0,1,.36.71,6.57,6.57,0,0,1-.2,1.4,18.1,18.1,0,0,1-.5,1.79c-.21.62-.45,1.23-.71,1.84a12.68,12.68,0,0,1-.81,1.61A11.62,11.62,0,0,1,79.37,112a2,2,0,0,1-1.4.72,1.33,1.33,0,0,1-.94-.35,1.47,1.47,0,0,1-.45-.88,13.74,13.74,0,0,0,1-1,8.45,8.45,0,0,0,.9-1.16A1.33,1.33,0,0,1,78,109,3.35,3.35,0,0,1,77.34,108Z" transform="translate(-5.91 -7.82)"/><path class="cls-2" d="M96.22,105.13a5.75,5.75,0,0,1-.37,2.16,4,4,0,0,1-1,1.53,4.34,4.34,0,0,1-1.61.93,6.92,6.92,0,0,1-2.1.3h-.59l-.68-.05-.7-.11a4.9,4.9,0,0,1-.64-.18,1,1,0,0,1-.8-1v-7.33a.64.64,0,0,1,.16-.47,1.17,1.17,0,0,1,.47-.28,6.24,6.24,0,0,1,1.34-.26q.7-.06,1.29-.06a7.61,7.61,0,0,1,2.15.29,4.51,4.51,0,0,1,1.66.9A4.21,4.21,0,0,1,95.84,103,5.67,5.67,0,0,1,96.22,105.13Zm-2.49,0a3,3,0,0,0-.73-2.22,2.6,2.6,0,0,0-1.9-.73l-.52,0a3.86,3.86,0,0,0-.49.06V108a4.2,4.2,0,0,0,.48.07l.55,0a2.5,2.5,0,0,0,1.9-.73A3.07,3.07,0,0,0,93.73,105.16Z" transform="translate(-5.91 -7.82)"/><path class="cls-2" d="M97.61,100.3a1.25,1.25,0,0,1,.36-.89,1.27,1.27,0,0,1,.94-.37,1.3,1.3,0,0,1,1,.37,1.31,1.31,0,1,1-2.25.89Zm2.47,9.51a2.38,2.38,0,0,1-.43.08,3.82,3.82,0,0,1-.61,0,1.7,1.7,0,0,1-1-.22,1,1,0,0,1-.3-.87v-6.32l.44-.09a3.67,3.67,0,0,1,.61-.05,1.68,1.68,0,0,1,1,.23,1.07,1.07,0,0,1,.3.88Z" transform="translate(-5.91 -7.82)"/><path class="cls-2" d="M106.53,109.22a3.38,3.38,0,0,1-.7.23,4.52,4.52,0,0,1-.87.08,4.39,4.39,0,0,1-1.32-.19,2.91,2.91,0,0,1-1.08-.62,3,3,0,0,1-.74-1.13,4.43,4.43,0,0,1-.28-1.69,4.19,4.19,0,0,1,.28-1.6,3.07,3.07,0,0,1,.79-1.16,3.4,3.4,0,0,1,1.23-.71,5.31,5.31,0,0,1,1.59-.23,5.25,5.25,0,0,1,1.58.22,4.57,4.57,0,0,1,1.11.48,1.87,1.87,0,0,1,.47.46,1.15,1.15,0,0,1,.16.64v5.79a3,3,0,0,1-.29,1.39,2.58,2.58,0,0,1-.8,1,3.64,3.64,0,0,1-1.21.56,5.91,5.91,0,0,1-1.49.18,6.68,6.68,0,0,1-1.44-.13,3.17,3.17,0,0,1-1-.36,1.14,1.14,0,0,1-.53-1,1.28,1.28,0,0,1,.14-.59,1.35,1.35,0,0,1,.31-.4,5,5,0,0,0,1,.43,4.23,4.23,0,0,0,1.19.17,2.61,2.61,0,0,0,1.36-.3,1.06,1.06,0,0,0,.51-1Zm-1.16-1.46a2,2,0,0,0,.64-.09,1.57,1.57,0,0,0,.48-.25v-3.15l-.4-.15a1.79,1.79,0,0,0-.56-.08,1.6,1.6,0,0,0-1.2.46,1.94,1.94,0,0,0-.45,1.42,2.68,2.68,0,0,0,.12.87,1.41,1.41,0,0,0,.31.57,1,1,0,0,0,.47.31A1.87,1.87,0,0,0,105.37,107.76Z" transform="translate(-5.91 -7.82)"/><path class="cls-2" d="M110.43,100.3a1.25,1.25,0,0,1,.36-.89,1.3,1.3,0,0,1,.95-.37,1.27,1.27,0,0,1,.94.37,1.28,1.28,0,0,1,0,1.8,1.24,1.24,0,0,1-.94.37,1.26,1.26,0,0,1-.95-.37A1.24,1.24,0,0,1,110.43,100.3Zm2.48,9.51a2.78,2.78,0,0,1-.43.08,4,4,0,0,1-.62,0,1.69,1.69,0,0,1-1-.22,1,1,0,0,1-.3-.87v-6.32l.43-.09a3.8,3.8,0,0,1,.62-.05,1.68,1.68,0,0,1,1,.23,1.07,1.07,0,0,1,.3.88Z" transform="translate(-5.91 -7.82)"/><path class="cls-2" d="M117.34,108a1.3,1.3,0,0,0,.76.19,2.23,2.23,0,0,0,.5,0A2.94,2.94,0,0,0,119,108a1.41,1.41,0,0,1,.23.35,1.15,1.15,0,0,1,.1.46,1.11,1.11,0,0,1-.43.89,2.37,2.37,0,0,1-1.47.34,3,3,0,0,1-2-.59,2.36,2.36,0,0,1-.72-1.93v-6.9a4.32,4.32,0,0,1,.44-.1,2.91,2.91,0,0,1,.6-.06,1.58,1.58,0,0,1,1,.24,1.06,1.06,0,0,1,.3.87v1h2.12a2.68,2.68,0,0,1,.15.39,1.42,1.42,0,0,1,.08.5.94.94,0,0,1-.22.71.82.82,0,0,1-.58.22h-1.55v3A.69.69,0,0,0,117.34,108Z" transform="translate(-5.91 -7.82)"/><path class="cls-2" d="M123.73,102.2a6,6,0,0,1,1.46.16,3.14,3.14,0,0,1,1.11.5,2.23,2.23,0,0,1,.72.86,2.93,2.93,0,0,1,.25,1.23v3.47a.93.93,0,0,1-.21.64,1.83,1.83,0,0,1-.5.41,4.2,4.2,0,0,1-1.17.45,7.41,7.41,0,0,1-1.57.15,4.56,4.56,0,0,1-2.52-.61,2.06,2.06,0,0,1-.94-1.85A2,2,0,0,1,121,106a3.56,3.56,0,0,1,1.93-.69l2-.21v-.17a.78.78,0,0,0-.4-.72,2.28,2.28,0,0,0-1.16-.24,4.81,4.81,0,0,0-1.14.14,7,7,0,0,0-1,.33,1,1,0,0,1-.31-.38,1.14,1.14,0,0,1-.13-.55,1,1,0,0,1,.7-1,5.47,5.47,0,0,1,1-.25A7.72,7.72,0,0,1,123.73,102.2Zm.09,6.13a3,3,0,0,0,.67-.07,1.44,1.44,0,0,0,.5-.17v-1.42l-1.26.11a1.85,1.85,0,0,0-.79.22.58.58,0,0,0-.3.53.7.7,0,0,0,.28.59A1.49,1.49,0,0,0,123.82,108.33Z" transform="translate(-5.91 -7.82)"/><path class="cls-2" d="M130.36,109.93a1.69,1.69,0,0,1-1-.22,1,1,0,0,1-.3-.87v-9l.44-.09a3.89,3.89,0,0,1,.62,0,1.66,1.66,0,0,1,1,.23,1,1,0,0,1,.31.88v9a3,3,0,0,1-.44.08A4,4,0,0,1,130.36,109.93Z" transform="translate(-5.91 -7.82)"/><path class="cls-2" d="M67.92,128a1.26,1.26,0,0,1-.35-.93v-6.8a1.28,1.28,0,0,1,.35-.93,1.25,1.25,0,0,1,.93-.34h5.09a2,2,0,0,1,.17.38,1.74,1.74,0,0,1,.08.53,1.08,1.08,0,0,1-.23.75.8.8,0,0,1-.62.25H69.93v1.72h3.56a1.49,1.49,0,0,1,.17.38,1.74,1.74,0,0,1,.08.53,1.06,1.06,0,0,1-.22.74.76.76,0,0,1-.61.24h-3v1.92H74a1.93,1.93,0,0,1,.25.94,1,1,0,0,1-.23.74.8.8,0,0,1-.6.23H68.85A1.26,1.26,0,0,1,67.92,128Z" transform="translate(-5.91 -7.82)"/><path class="cls-2" d="M78,121.42h2.61c.05.1.1.23.16.38a1.44,1.44,0,0,1,.09.51,1,1,0,0,1-.23.71.8.8,0,0,1-.57.21h-2v5l-.43.09a5.66,5.66,0,0,1-.61,0,1.72,1.72,0,0,1-1-.22,1,1,0,0,1-.31-.87v-6.53a3.13,3.13,0,0,1,.25-1.31,2.43,2.43,0,0,1,.7-.9,3,3,0,0,1,1-.51,4.47,4.47,0,0,1,1.29-.17,3.54,3.54,0,0,1,1.62.28,1,1,0,0,1,.53.93,1.05,1.05,0,0,1-.38.86,5.62,5.62,0,0,0-.62-.15,4.22,4.22,0,0,0-.75-.06,1.92,1.92,0,0,0-1.08.25,1,1,0,0,0-.36.85Zm6.28,0h2.62c0,.1.1.23.16.38a1.44,1.44,0,0,1,.09.51,1,1,0,0,1-.23.71.8.8,0,0,1-.57.21h-2v5l-.43.09a5.66,5.66,0,0,1-.61,0,1.72,1.72,0,0,1-1-.22,1,1,0,0,1-.31-.87v-6.53a3.13,3.13,0,0,1,.25-1.31,2.43,2.43,0,0,1,.7-.9,3,3,0,0,1,1-.51,4.47,4.47,0,0,1,1.29-.17,3.54,3.54,0,0,1,1.62.28,1,1,0,0,1,.53.93,1.05,1.05,0,0,1-.38.86,5.62,5.62,0,0,0-.62-.15,4.22,4.22,0,0,0-.75-.06,1.92,1.92,0,0,0-1.08.25,1,1,0,0,0-.37.85Z" transform="translate(-5.91 -7.82)"/><path class="cls-2" d="M90.55,125.56a1.47,1.47,0,0,0,.75.91,2.77,2.77,0,0,0,1.25.27,4,4,0,0,0,1.21-.18,4.13,4.13,0,0,0,.93-.39,1.32,1.32,0,0,1,.38.4,1,1,0,0,1,.15.54.94.94,0,0,1-.21.61,1.69,1.69,0,0,1-.59.44,3.18,3.18,0,0,1-.9.26,6.55,6.55,0,0,1-1.13.09,5.27,5.27,0,0,1-1.67-.26,3.5,3.5,0,0,1-1.32-.75,3.43,3.43,0,0,1-.87-1.25,4.55,4.55,0,0,1-.32-1.77,4.24,4.24,0,0,1,.32-1.71,3.3,3.3,0,0,1,2.06-1.9,4.41,4.41,0,0,1,1.4-.22,4.1,4.1,0,0,1,1.44.24,3.22,3.22,0,0,1,1.12.67,2.81,2.81,0,0,1,.73,1,3.12,3.12,0,0,1,.27,1.3,1,1,0,0,1-.27.74,1.38,1.38,0,0,1-.73.33ZM92,122.39a1.52,1.52,0,0,0-1.1.41,1.82,1.82,0,0,0-.52,1.17l2.94-.47a1.29,1.29,0,0,0-.35-.76A1.28,1.28,0,0,0,92,122.39Z" transform="translate(-5.91 -7.82)"/><path class="cls-2" d="M99.25,128.26l-.43.09a5.66,5.66,0,0,1-.61,0,1.72,1.72,0,0,1-1-.22,1,1,0,0,1-.31-.87V122.6a1.24,1.24,0,0,1,.22-.74,1.91,1.91,0,0,1,.59-.53,4.33,4.33,0,0,1,1.23-.49,6,6,0,0,1,1.5-.17c1.06,0,1.6.35,1.6,1.07a1.42,1.42,0,0,1-.08.48,2.14,2.14,0,0,1-.17.37,4.19,4.19,0,0,0-.86-.08,3.8,3.8,0,0,0-.89.11,3.33,3.33,0,0,0-.79.29Z" transform="translate(-5.91 -7.82)"/><path class="cls-2" d="M109.2,120.73a1.48,1.48,0,0,1,.81.21.82.82,0,0,1,.33.73,3.59,3.59,0,0,1-.11.69c-.08.3-.18.65-.3,1s-.27.81-.43,1.26-.32.88-.49,1.3-.34.83-.5,1.19a10.32,10.32,0,0,1-.45.93,1.76,1.76,0,0,1-.56.24,3.56,3.56,0,0,1-.83.1,2.84,2.84,0,0,1-.93-.14,1,1,0,0,1-.55-.45q-.14-.26-.33-.72c-.13-.31-.27-.65-.42-1s-.3-.79-.45-1.23l-.45-1.31c-.14-.43-.27-.85-.4-1.24s-.22-.75-.29-1.07a1.63,1.63,0,0,1,.52-.35,1.87,1.87,0,0,1,.71-.14,1.46,1.46,0,0,1,.8.2,1.29,1.29,0,0,1,.46.77l.68,2.43c.12.43.25.85.37,1.26s.21.75.28,1h.07c.24-.8.47-1.67.71-2.61s.46-1.87.66-2.77A2.17,2.17,0,0,1,109.2,120.73Z" transform="translate(-5.91 -7.82)"/><path class="cls-2" d="M113.51,125.56a1.47,1.47,0,0,0,.75.91,2.77,2.77,0,0,0,1.25.27,4,4,0,0,0,1.21-.18,3.84,3.84,0,0,0,.92-.39,1.24,1.24,0,0,1,.39.4,1,1,0,0,1,.15.54.94.94,0,0,1-.21.61,1.69,1.69,0,0,1-.59.44,3.18,3.18,0,0,1-.9.26,6.55,6.55,0,0,1-1.13.09,5.27,5.27,0,0,1-1.67-.26,3.62,3.62,0,0,1-1.33-.75,3.53,3.53,0,0,1-.86-1.25,4.55,4.55,0,0,1-.32-1.77,4.24,4.24,0,0,1,.32-1.71,3.3,3.3,0,0,1,2.06-1.9,4.41,4.41,0,0,1,1.4-.22,4.1,4.1,0,0,1,1.44.24,3.22,3.22,0,0,1,1.12.67,2.81,2.81,0,0,1,.73,1,3.12,3.12,0,0,1,.27,1.3,1,1,0,0,1-.27.74,1.38,1.38,0,0,1-.73.33Zm1.46-3.17a1.52,1.52,0,0,0-1.1.41,1.82,1.82,0,0,0-.52,1.17l2.94-.47a1.29,1.29,0,0,0-.35-.76A1.28,1.28,0,0,0,115,122.39Z" transform="translate(-5.91 -7.82)"/><path class="cls-2" d="M125.93,126.11a2.12,2.12,0,0,1-.84,1.78,4.16,4.16,0,0,1-2.49.63,7.08,7.08,0,0,1-1.18-.09,3.14,3.14,0,0,1-.91-.28,1.5,1.5,0,0,1-.6-.46,1,1,0,0,1-.22-.64,1.16,1.16,0,0,1,.14-.58,1.2,1.2,0,0,1,.35-.39,6,6,0,0,0,1,.46,4.07,4.07,0,0,0,1.32.2c.73,0,1.09-.21,1.09-.62a.47.47,0,0,0-.19-.4,2,2,0,0,0-.65-.24l-.62-.14a4,4,0,0,1-1.88-.81,1.92,1.92,0,0,1-.61-1.53,2,2,0,0,1,.88-1.73,4,4,0,0,1,2.38-.64,5.87,5.87,0,0,1,1,.09,3.48,3.48,0,0,1,.84.25,1.67,1.67,0,0,1,.56.43.87.87,0,0,1,.21.59,1.19,1.19,0,0,1-.12.54,1.16,1.16,0,0,1-.33.4,1.52,1.52,0,0,0-.36-.17c-.16-.06-.33-.12-.51-.17l-.59-.13a3.82,3.82,0,0,0-.57,0,2.07,2.07,0,0,0-.83.14.48.48,0,0,0-.3.44.37.37,0,0,0,.17.34,1.8,1.8,0,0,0,.61.23l.59.14a4.15,4.15,0,0,1,2,.89A2,2,0,0,1,125.93,126.11Z" transform="translate(-5.91 -7.82)"/><path class="cls-2" d="M131.42,122.51A2,2,0,0,0,130,123a2,2,0,0,0-.59,1.56,2,2,0,0,0,.57,1.54,2,2,0,0,0,1.42.51,2.84,2.84,0,0,0,.87-.13,5.89,5.89,0,0,0,.64-.27,1.57,1.57,0,0,1,.4.42,1,1,0,0,1,.15.55,1,1,0,0,1-.62.93,3.38,3.38,0,0,1-1.7.36,5.31,5.31,0,0,1-1.69-.25,3.48,3.48,0,0,1-1.3-.74,3.23,3.23,0,0,1-.83-1.22,4.65,4.65,0,0,1-.29-1.7,4.46,4.46,0,0,1,.32-1.74,3.58,3.58,0,0,1,.88-1.23,3.73,3.73,0,0,1,1.29-.73,4.72,4.72,0,0,1,1.56-.25,3.14,3.14,0,0,1,1.66.38,1.12,1.12,0,0,1,.61,1,1,1,0,0,1-.13.51,1.78,1.78,0,0,1-.31.4,5.24,5.24,0,0,0-.66-.28A2.75,2.75,0,0,0,131.42,122.51Z" transform="translate(-5.91 -7.82)"/><path class="cls-2" d="M136.65,125.56a1.52,1.52,0,0,0,.76.91,2.73,2.73,0,0,0,1.24.27,4.4,4.4,0,0,0,2.14-.57,1.32,1.32,0,0,1,.38.4.93.93,0,0,1,.16.54.9.9,0,0,1-.22.61,1.6,1.6,0,0,1-.59.44,3.11,3.11,0,0,1-.89.26,6.55,6.55,0,0,1-1.13.09,5.28,5.28,0,0,1-1.68-.26,3.58,3.58,0,0,1-1.32-.75,3.43,3.43,0,0,1-.87-1.25,4.55,4.55,0,0,1-.31-1.77,4.25,4.25,0,0,1,.31-1.71,3.39,3.39,0,0,1,.85-1.2,3.49,3.49,0,0,1,1.21-.7,4.52,4.52,0,0,1,1.41-.22,4.18,4.18,0,0,1,1.44.24,3.31,3.31,0,0,1,1.12.67,2.93,2.93,0,0,1,.73,1,3.28,3.28,0,0,1,.26,1.3,1,1,0,0,1-.26.74,1.38,1.38,0,0,1-.74.33Zm1.46-3.17a1.53,1.53,0,0,0-1.1.41,1.77,1.77,0,0,0-.51,1.17l2.94-.47a1.23,1.23,0,0,0-1.33-1.11Z" transform="translate(-5.91 -7.82)"/><path class="cls-2" d="M147.46,122.76a1.28,1.28,0,0,0-.86-.26,2.36,2.36,0,0,0-.67.09,3,3,0,0,0-.57.23v5.44l-.43.09a5.85,5.85,0,0,1-.62,0,1.74,1.74,0,0,1-1-.22,1,1,0,0,1-.31-.87v-4.75a1.1,1.1,0,0,1,.17-.64,2.15,2.15,0,0,1,.48-.47,4,4,0,0,1,1.27-.56,6.16,6.16,0,0,1,1.71-.22,4.07,4.07,0,0,1,2.6.74,2.57,2.57,0,0,1,.91,2.11v4.76l-.45.09a5.66,5.66,0,0,1-.61,0,1.69,1.69,0,0,1-1-.22,1,1,0,0,1-.3-.87v-3.73A1,1,0,0,0,147.46,122.76Z" transform="translate(-5.91 -7.82)"/><path class="cls-2" d="M155.92,122.51a2,2,0,0,0-1.41.53,2,2,0,0,0-.59,1.56,2,2,0,0,0,.56,1.54,2.05,2.05,0,0,0,1.43.51,2.94,2.94,0,0,0,.87-.13,4.94,4.94,0,0,0,.63-.27,1.62,1.62,0,0,1,.41.42,1,1,0,0,1,.15.55,1,1,0,0,1-.62.93,3.38,3.38,0,0,1-1.7.36,5.31,5.31,0,0,1-1.69-.25,3.4,3.4,0,0,1-1.3-.74,3.23,3.23,0,0,1-.83-1.22,4.65,4.65,0,0,1-.29-1.7,4.46,4.46,0,0,1,.32-1.74,3.58,3.58,0,0,1,.88-1.23,3.73,3.73,0,0,1,1.29-.73,4.71,4.71,0,0,1,1.55-.25,3.15,3.15,0,0,1,1.67.38,1.12,1.12,0,0,1,.61,1,1,1,0,0,1-.13.51,1.57,1.57,0,0,1-.32.4,4.52,4.52,0,0,0-.65-.28A2.75,2.75,0,0,0,155.92,122.51Z" transform="translate(-5.91 -7.82)"/><path class="cls-2" d="M161.15,125.56a1.5,1.5,0,0,0,.75.91,2.77,2.77,0,0,0,1.25.27,4,4,0,0,0,1.22-.18,4.23,4.23,0,0,0,.92-.39,1.32,1.32,0,0,1,.38.4,1,1,0,0,1,.16.54,1,1,0,0,1-.22.61,1.6,1.6,0,0,1-.59.44,3.11,3.11,0,0,1-.89.26,6.64,6.64,0,0,1-1.13.09,5.28,5.28,0,0,1-1.68-.26,3.58,3.58,0,0,1-1.32-.75,3.43,3.43,0,0,1-.87-1.25,4.55,4.55,0,0,1-.32-1.77,4.24,4.24,0,0,1,.32-1.71,3.3,3.3,0,0,1,2.06-1.9,4.47,4.47,0,0,1,1.41-.22,4.09,4.09,0,0,1,1.43.24,3.36,3.36,0,0,1,1.13.67,3.06,3.06,0,0,1,.73,1,3.28,3.28,0,0,1,.26,1.3,1,1,0,0,1-.26.74,1.41,1.41,0,0,1-.74.33Zm1.46-3.17a1.52,1.52,0,0,0-1.1.41A1.77,1.77,0,0,0,161,124l2.93-.47a1.24,1.24,0,0,0-.35-.76A1.28,1.28,0,0,0,162.61,122.39Z" transform="translate(-5.91 -7.82)"/></svg>