<svg id="Calque_1" data-name="Calque 1" xmlns="http://www.w3.org/2000/svg" width="272.47" height="144.18" viewBox="0 0 272.47 144.18"><path d="M220.05,138.45c-2.9-.51-5.79-1.07-8.7-1.51-10-1.51-20-3.1-30-4.41a8.3,8.3,0,0,1-7-5.19c-5.09-10.58-10.35-21.1-15.55-31.64-.54-1.1-1.12-2.19-2-3.83a37.53,37.53,0,0,0-2,3.17c-5.37,10.81-10.76,21.6-16,32.47a8.06,8.06,0,0,1-6.79,5c-11.76,1.58-23.5,3.4-35.24,5.13-1.09.16-2.17.38-3.86.69,1,1.17,1.67,2,2.43,2.76,8.72,8.66,17.41,17.36,26.24,25.91,2.34,2.27,2.5,4.79,2,7.65q-3.17,18.12-6.3,36.25c-.12.7-.12,1.41-.2,2.37,1,0,1.93.07,2.82.15a5.12,5.12,0,0,1,4.87,4.43,5.06,5.06,0,0,1-2.88,5.91c-7.17,3.78-16.36-1.42-15.87-9.47.43-7.17,2-14.27,3.09-21.39.87-5.49,1.75-11,2.9-16.44a4.71,4.71,0,0,0-1.6-4.88c-8.38-8.13-16.64-16.37-25-24.47-3.5-3.37-5.19-7.18-3.67-11.94s4.8-7.2,9.7-7.9c11.75-1.68,23.47-3.57,35.23-5.18a4.47,4.47,0,0,0,3.92-2.83c5.15-10.56,10.43-21.06,15.62-31.61,2-4.15,5.14-6.57,9.89-6.76,5-.19,8.62,1.88,10.83,6.28q8,15.9,15.75,31.89a4.72,4.72,0,0,0,4.1,3c11.77,1.59,23.49,3.5,35.24,5.17a11.11,11.11,0,0,1,9.68,8c1.6,4.72-.28,8.54-3.49,11.78-4.51,4.54-9.19,8.9-13.81,13.33-2.61,2.51-6.19,2.76-8.32.61-2.3-2.31-2.24-5.59.42-8.29,3.84-3.89,7.8-7.68,11.8-11.41a9.68,9.68,0,0,1,2.9-1.28Z" transform="translate(-22.22 -80.88)"/><path d="M265,187.52c-1.08-6.31-2.08-12.18-3.07-18a71.11,71.11,0,0,0-1.28-7.31c-1-3.46.24-5.93,2.71-8.25,5.34-5,10.53-10.21,15.84-15.26a15.2,15.2,0,0,1,2.91-1.78l-.76-1.15c-7.8-1.13-15.58-2.5-23.41-3.32-4.63-.49-7.52-2.37-9.42-6.67-3-6.69-6.4-13.17-9.65-19.73-.31-.64-.74-1.21-1.29-2.11L229,121.24,218,119c.35-.89.63-1.74,1-2.54,3.18-6.48,6.42-12.93,9.55-19.44,1.84-3.8,4.76-6,9-6,4.38-.07,7.34,2.15,9.25,6.06,3.57,7.32,7.19,14.63,11,21.84a5.39,5.39,0,0,0,3.33,2.51c8.34,1.41,16.74,2.55,25.11,3.83a9.25,9.25,0,0,1,8,6.82c1.19,3.93,0,7.3-2.92,10.11-1.42,1.35-2.76,2.79-4.17,4.16-4.66,4.53-9.4,9-13.95,13.64a4.65,4.65,0,0,0-1,3.49c1.22,7.84,2.61,15.65,4,23.47,1.15,6.51-1.27,11.55-6.82,12.59a13.87,13.87,0,0,1-8-1.24c-7.18-3.39-14.15-7.22-21.14-11a4.7,4.7,0,0,0-5.12-.06c-6.05,3.35-12.22,6.48-18.34,9.69-1.26.65-2.54,1.26-3.76,1.87-.29-.38-.49-.52-.52-.69-.56-3.35-2.39-7.24-1.27-9.89,1-2.41,5.2-3.55,8.07-5.11,4.72-2.56,9.55-4.91,14.23-7.53,2.93-1.65,5.53-1.46,8.44.14,6.69,3.67,13.51,7.13,20.28,10.66C263,186.77,263.78,187,265,187.52Z" transform="translate(-22.22 -80.88)"/><path d="M52.13,187.7l20-10.4a19.92,19.92,0,0,1,4.43-2.16c1.71-.4,3.85-.75,5.3-.06,6.53,3.09,12.89,6.52,19.25,9.94a3,3,0,0,1,1.47,2.29c-.35,3.15-1,6.26-1.66,9.84-1.44-.65-2.54-1.1-3.58-1.64-5.22-2.71-10.47-5.38-15.62-8.22a4.46,4.46,0,0,0-4.85,0c-7.08,3.84-14.28,7.45-21.38,11.25-3.81,2-7.53,2.17-11.11-.27s-4.4-6.1-3.74-10.13c1.3-8,2.58-16.08,4.12-24.06a4.65,4.65,0,0,0-1.64-4.84c-5.82-5.57-11.51-11.27-17.32-16.85-3-2.91-4.34-6.29-3.05-10.34s4.19-6.23,8.37-6.84c8.28-1.21,16.56-2.38,24.81-3.79a5.32,5.32,0,0,0,3.31-2.49c3.76-7.22,7.35-14.54,10.9-21.87,1.9-3.91,4.82-6.07,9.24-6s7.18,2.22,9,5.95c3.49,7.11,7,14.23,10.64,21.74-3.53.51-6.64,1.11-9.78,1.3a3.62,3.62,0,0,1-2.63-1.8c-2.44-4.53-4.67-9.18-7.23-14.32-.71,1.24-1.28,2.11-1.74,3-3.3,6.65-6.72,13.25-9.81,20-1.56,3.42-3.94,4.92-7.58,5.35-8.2,1-16.36,2.22-25.13,3.44,1,1.06,1.67,1.87,2.42,2.6,5.46,5.35,10.88,10.73,16.4,16a7.38,7.38,0,0,1,2.42,7.46c-1.57,8-2.83,16-4.2,24.07A13.39,13.39,0,0,0,52.13,187.7Z" transform="translate(-22.22 -80.88)"/><path d="M196.3,214c-2-12.16-4-23.62-5.85-35.08a66.9,66.9,0,0,1-1-6.73c-.21-3.24,1.71-5.55,4.63-5.89a5.25,5.25,0,0,1,6.09,4.41c1.7,9.11,3.22,18.25,4.81,27.39.76,4.36,1.51,8.72,2.28,13.09.82,4.65-.33,8.66-4.17,11.56s-8,3.07-12.21.86c-10.7-5.58-21.4-11.14-32-16.81a4.19,4.19,0,0,0-4.54,0c-4.22,2.37-8.53,4.59-12.83,6.81-3.5,1.8-6.75,1-8.3-1.91s-.32-6,3.15-7.89c5.37-2.85,10.83-5.54,16.14-8.5a8,8,0,0,1,8.43.07C172.44,201.51,184.05,207.53,196.3,214Z" transform="translate(-22.22 -80.88)"/></svg>