<svg id="Calque_1" data-name="Calque 1" xmlns="http://www.w3.org/2000/svg" width="269.16" height="277.79" viewBox="0 0 269.16 277.79"><path d="M158.29,276.18c-.44,3.82,1.09,9-4.7,9s-4.28-5.14-4.74-9h-8.48c-4.66,0-9.33.05-14,0-6-.08-9.84-3.93-9.88-9.88s-.12-12.14,0-18.21a4.87,4.87,0,0,0-2.53-4.8,69.73,69.73,0,0,1-31.81-66c1.81-18.32,9.28-34,22.72-46.74,11.75-11.11,26-16.76,41.93-18.52.65-.07,1.29-.18,2.14-.3,0-2.25-.05-4.4,0-6.55.08-3,1.91-5,4.44-5.07s4.61,2,4.7,5c.07,2.15,0,4.3,0,6.27,5.21,1.06,10.23,1.78,15.09,3.11,20.19,5.55,34.9,17.92,44.19,36.54,9.21,18.46,10.47,37.67,3.71,57.14-5.14,14.77-14.72,26.32-27.8,34.89a5.25,5.25,0,0,0-2.74,5.2c.19,6,.09,12,0,18s-3.85,9.83-9.86,9.89C173.39,276.23,166,276.18,158.29,276.18Zm31.06-41.86a2.72,2.72,0,0,0,.8-.18A52.25,52.25,0,0,0,205,219.21c13-20.75,14.78-42.38,4-64.54-3.61-7.46-8.33-14.34-16.13-18.35-.73-.38-1.19-1.31-1.77-2a8.06,8.06,0,0,0-1.36-1.67c-17.79-12.13-37-14.84-57.29-7.83-6.59,2.28-13.28,4.8-17.69,10.91-.77,1.07-2.71,1.22-3.77,2.17a54.61,54.61,0,0,0-12.61,16.29c-9.83,19.53-9.86,39.15.14,58.65a61.19,61.19,0,0,0,19,21.7c2.71-4.34,6.85-4.93,11.38-4.83,5.74.14,11.49,0,17.24,0,.88,0,1.75-.07,2.74-.12,0-7.52,0-14.75-.09-22,0-.68-1.08-1.7-1.87-2-12.46-4.18-18.56-15-15.71-27.82a22.5,22.5,0,0,1,19.31-17.31,22.87,22.87,0,0,1,22.68,10.93c7.39,12.89,1.81,30.13-13.08,34-1.71.45-2.15,1.33-2.1,3,.12,4.24,0,8.48,0,12.73v8.56c7.5,0,14.65,0,21.8,0C183.78,229.72,187,230.79,189.35,234.32Zm-63.51,4.94v27.32h55.47V239.26Zm14-55.79a13.69,13.69,0,1,0,13.74-13.81A13.8,13.8,0,0,0,139.89,183.47Z" transform="translate(-18.99 -7.37)"/><path d="M80.09,89.88c1.29,1.43,2.65,2.88,3.94,4.4,2,2.38,1.94,5-.13,6.88s-4.58,1.6-6.69-.52c-1.29-1.29-2.45-2.71-3.77-4.2-6.67,3.57-13.57,4.82-20.84,2A22.87,22.87,0,0,1,40.66,88.32,23.12,23.12,0,0,1,46,59c7.93-6.81,20.66-7,28.93-.58C82.56,64.29,88,76.71,80.09,89.88Zm-19.23.64A13.7,13.7,0,1,0,46.93,76.89,13.79,13.79,0,0,0,60.86,90.52Z" transform="translate(-18.99 -7.37)"/><path d="M153.46,7.37a22.3,22.3,0,0,1,22.63,18.88C178,38.41,172,48.84,160.86,52.37c-2.16.68-2.81,1.61-2.73,3.81.17,4.59-1.55,6.89-4.68,6.78s-4.51-2.25-4.45-6.78c0-1.76-.08-3-2.25-3.63-11.3-3.41-17.81-13.78-16-25.15C132.65,15.29,141.53,7.46,153.46,7.37ZM139.87,30.24a14,14,0,0,0,13.48,14.17c7.35.22,13.8-6.13,13.93-13.71a13.71,13.71,0,1,0-27.41-.46Z" transform="translate(-18.99 -7.37)"/><path d="M233.65,96.54c-1.15,1.27-2.33,2.66-3.61,4-2.14,2.2-4.78,2.4-6.9.6-2-1.68-2.42-4.24-.13-6.35,3.59-3.32,3.26-6.2,1.64-10.58-4.61-12.41,3.17-26.32,15.83-29.59,13.19-3.41,25.75,4.19,28.3,17.51,1.8,9.38-.7,17.74-8.63,23.46-7.78,5.6-16.33,6.09-25,1.56-.37-.19-.74-.37-1.12-.54A1.53,1.53,0,0,0,233.65,96.54ZM260.1,76.91a13.74,13.74,0,1,0-27.47.1c.06,7.28,6.49,13.78,13.69,13.84S260.13,84.32,260.1,76.91Z" transform="translate(-18.99 -7.37)"/><path d="M44.66,206.34c-12.53.12-21.28-5.87-24.4-15.24-3.21-9.65-.22-20.16,7.46-25.78,12.64-9.26,31.72-5.12,36.6,11.52.47,1.61,1.16,2.17,2.76,2a14.63,14.63,0,0,1,3.24,0,4.61,4.61,0,0,1,4.24,4.46c0,2.45-1.77,4.81-4.28,4.54-4.31-.46-5.66,1.63-7.19,5.27C59.37,202,52,206,44.66,206.34ZM28.51,183.48A13.87,13.87,0,0,0,42.3,197.29a13.82,13.82,0,0,0-.07-27.63A13.72,13.72,0,0,0,28.51,183.48Z" transform="translate(-18.99 -7.37)"/><path d="M267.25,206.39c-13.32-.18-21.42-6.18-24.46-16.31-.5-1.63-1.2-2.13-2.77-2a17.63,17.63,0,0,1-3.48-.12,4.4,4.4,0,0,1-4-4.35c-.05-2.43,1.3-3.82,3.5-4.54a.59.59,0,0,1,.24-.07c5.18,1.14,6.53-2.25,8.29-6.17,3.8-8.43,13-13.22,22.56-12.44,8.93.73,17.16,7.4,19.95,16.18a23,23,0,0,1-7,24.41C275.61,204.68,270.31,206.42,267.25,206.39Zm11.39-23a13.73,13.73,0,0,0-13.83-13.72,13.82,13.82,0,1,0,13.83,13.72Z" transform="translate(-18.99 -7.37)"/><path d="M98.7,123.08A10.22,10.22,0,0,1,96,121.49a89.33,89.33,0,0,1-6.3-7,4.43,4.43,0,0,1,.52-6.28,4.27,4.27,0,0,1,6.08.09,67.06,67.06,0,0,1,6.9,7.8C105.28,119,103,123,98.7,123.08Z" transform="translate(-18.99 -7.37)"/><path d="M218.86,111.07c-.49,1.39-.58,2.32-1.08,2.9-2.36,2.76-4.7,5.57-7.31,8.09a4.12,4.12,0,0,1-5.85-.27,4.26,4.26,0,0,1-.57-5.86,99.7,99.7,0,0,1,6.76-7.62,3.76,3.76,0,0,1,5-.77C217.1,108.45,218,110,218.86,111.07Z" transform="translate(-18.99 -7.37)"/><path d="M158.16,81.7c0,1.58.08,3.16,0,4.73a4.58,4.58,0,0,1-4.57,4.37A4.52,4.52,0,0,1,149,86.44c-.11-3.32-.11-6.65,0-10a4.42,4.42,0,0,1,4.67-4.2,4.56,4.56,0,0,1,4.46,4.2c0,.16,0,.33,0,.49V81.7Z" transform="translate(-18.99 -7.37)"/></svg>