<svg id="Calque_1" data-name="Calque 1" xmlns="http://www.w3.org/2000/svg" width="219.91" height="267.41" viewBox="0 0 219.91 267.41"><path d="M69.74,123c0-5.52-.08-10.59,0-15.66.18-8.74-.14-17.55.86-26.2C73.4,57,85.17,37.77,105,24.11c19.42-13.37,41.13-17.43,64.11-11.52C198.06,20,216.81,38.72,226.44,66.7c2.89,8.39,3.79,17.22,3.82,26.1s0,17.83,0,26.75V123c2.64,0,5.1,0,7.56,0,3.77,0,7.45.38,10.88,2.24,7.45,4,11.17,10.36,11.19,18.69q.12,56.25,0,112.49c0,12.19-8.92,20.89-21.11,20.91q-69,.07-138,0c-4.17,0-7.34-1.47-9-5.35-1.57-3.57-1-7,1.84-9.62,1.43-1.3,3.54-2,5.45-2.62a11.12,11.12,0,0,1,3.47-.11H237c4.72,0,5.08-.36,5.08-5.11v-109c0-4.53-.27-4.8-4.82-4.8H62.77c-4.58,0-4.85.26-4.85,4.77V255c0,4.08.54,4.62,4.56,4.64,2.75,0,5.5-.07,8.25.06a8.78,8.78,0,0,1,0,17.53c-4.82.07-9.77.43-14.45-.46C46.61,275,40.13,266.6,40.11,256.4q-.12-56.25,0-112.5c0-12.38,8.74-20.71,21.31-20.93C64.07,122.93,66.72,123,69.74,123Zm18-.18H212.41c0-2.39.05-4.62,0-6.85-.27-11.48.23-23-1-34.42-2-18.4-11.55-32.89-26.86-43.13a61.66,61.66,0,0,0-73.41,3.28C96.84,53.09,89,68.19,88,86.46c-.6,11.55-.31,23.14-.42,34.72C87.6,121.67,87.69,122.15,87.75,122.79Z" transform="translate(-40.05 -9.95)"/><path d="M141.08,225.4c0-2.33-.09-4.67,0-7,.09-1.57-.49-2.28-1.94-2.92a26.61,26.61,0,1,1,36-15.38A26,26,0,0,1,161,215.41a3,3,0,0,0-2.07,3.35c.1,4.74.12,9.5,0,14.24-.12,3.93-2,6.92-5.76,8.28-3.46,1.26-7,.82-9.34-2.14a15.16,15.16,0,0,1-2.6-6.51C140.75,230.29,141.09,227.82,141.08,225.4ZM150,200.11a8.89,8.89,0,1,0-8.87-8.83A8.84,8.84,0,0,0,150,200.11Z" transform="translate(-40.05 -9.95)"/></svg>