<svg id="Calque_1" data-name="Calque 1" xmlns="http://www.w3.org/2000/svg" width="176.08" height="263.78" viewBox="0 0 176.08 263.78"><path d="M84.46,74.66c-18.63-5-24.53-21.86-21.91-33.83,3-13.58,14.35-22.73,27.85-22.72a28.19,28.19,0,0,1,28.35,24.77c1.75,13.18-5.67,27.37-22.25,31.71v69.77h85.14c2.17-8.55,7-15.13,14.91-19.23a27.5,27.5,0,0,1,19.14-2.46,28.65,28.65,0,0,1,22.25,30.65c-1,12.73-12.21,24.35-25.05,25.55-15,1.4-27.47-7.47-31.24-22.29h-85a3.22,3.22,0,0,0-.23.85c0,18.5-.25,37,.13,55.49a35.07,35.07,0,0,0,34.35,34.35c16.58.34,33.17.07,49.75.06.24,0,.49-.07.38-.06,1.81-3.57,3.23-7.12,5.27-10.26,6.63-10.16,19.7-14.57,31.66-11a28.34,28.34,0,0,1,20,26.37c.17,16.08-11.46,28.58-27.39,29.43-12.39.67-24.72-8-28.17-20.05-.6-2.09-1.5-2.66-3.58-2.65-15.5.09-31,.05-46.5.05A47.49,47.49,0,0,1,85,218.52a56.88,56.88,0,0,1-.53-8.46q0-66.12,0-132.25Zm124.89,59.28a16.61,16.61,0,1,0,16.53,17A16.6,16.6,0,0,0,209.35,133.94ZM107.07,46.11c-.55-9.67-8.19-16.67-17.62-16.13A16.77,16.77,0,0,0,73.89,47.92c.46,8.57,8.59,15.75,17.26,15.24C100.38,62.62,107.56,54.92,107.07,46.11Zm118.81,207a16.61,16.61,0,1,0-16.43,16.87A16.62,16.62,0,0,0,225.88,253.06Z" transform="translate(-61.96 -18.11)"/></svg>